<svg width="1344.000000pt" height="1341.000000pt" viewBox="0 0 1344.000000 1341.000000" xmlns="http://www.w3.org/2000/svg">
  <g transform="translate(0.000000,1341.000000) scale(0.100000,-0.100000)" fill="#fefefe" stroke="none">
    <path d="M0 6705 l0 -6705 6720 0 6720 0 0 6705 0 6705 -6720 0 -6720 0 0
-6705z m6400 6639 l41 -17 35 -45 c18 -25 34 -50 34 -56 l0 -11 362 0 363 0
185 -18 c531 -50 1064 -169 1575 -349 269 -95 449 -170 670 -281 119 -60 367
-194 415 -226 41 -26 63 -40 100 -60 29 -16 193 -121 250 -160 54 -37 250
-178 271 -195 14 -12 36 -28 49 -36 30 -20 256 -205 339 -278 87 -76 439 -428
523 -522 36 -41 94 -109 129 -150 34 -41 65 -77 69 -80 4 -3 50 -61 104 -130
53 -69 101 -131 107 -138 6 -7 49 -68 97 -135 109 -155 200 -299 315 -497 110
-190 282 -542 375 -770 125 -305 241 -667 316 -980 44 -186 50 -215 80 -390
33 -190 62 -415 78 -620 l13 -165 0 -350 0 -350 -13 -155 c-31 -376 -83 -700
-173 -1080 -43 -185 -134 -491 -186 -630 -145 -383 -289 -697 -467 -1014 -36
-65 -66 -120 -66 -123 0 -2 -11 -19 -25 -37 -14 -18 -25 -36 -25 -39 0 -9
-112 -186 -194 -306 -39 -57 -75 -110 -81 -119 -5 -8 -16 -23 -22 -31 -7 -9
-30 -39 -50 -67 -185 -253 -386 -485 -639 -738 -102 -101 -244 -234 -319 -297
-22 -19 -44 -39 -50 -45 -5 -6 -37 -33 -70 -60 -33 -27 -65 -53 -71 -59 -6 -5
-23 -19 -39 -30 -15 -11 -51 -38 -79 -60 -58 -47 -159 -122 -196 -147 -14 -10
-43 -31 -65 -48 -22 -16 -47 -33 -55 -37 -8 -4 -56 -35 -107 -70 -52 -35 -97
-63 -102 -63 -5 0 -14 -6 -20 -14 -7 -8 -26 -21 -44 -30 -18 -9 -61 -34 -96
-56 -34 -22 -65 -40 -67 -40 -3 0 -21 -11 -42 -23 -20 -13 -77 -45 -127 -72
-291 -156 -513 -256 -845 -380 -262 -97 -668 -210 -1000 -278 -227 -46 -516
-86 -785 -107 -161 -13 -728 -13 -896 1 -287 22 -600 64 -814 110 -321 67
-608 149 -925 262 -275 98 -629 257 -895 402 -178 97 -469 283 -632 404 -34
25 -74 55 -89 66 -63 46 -104 84 -95 89 5 3 20 -3 34 -14 14 -11 28 -20 31
-20 3 0 33 -20 68 -44 70 -49 294 -186 304 -186 3 0 18 -8 32 -19 81 -56 426
-227 677 -336 150 -64 409 -159 570 -208 480 -147 854 -222 1370 -274 l180
-18 395 0 395 0 190 18 c236 22 419 48 645 92 278 54 372 77 615 149 220 65
354 111 640 224 73 28 330 146 400 183 33 17 96 49 140 72 44 22 103 54 130
70 51 30 87 51 150 87 52 29 162 99 233 147 35 24 65 43 68 43 8 0 109 73 112
82 2 4 8 8 14 8 6 0 23 10 38 23 16 12 48 36 71 52 87 61 357 281 468 380 195
175 478 466 626 643 11 13 30 36 43 50 25 28 142 179 227 291 28 37 73 100
101 141 122 178 141 207 147 220 4 8 21 35 37 60 16 25 35 56 42 70 7 14 21
38 33 55 11 16 29 46 39 65 11 19 37 67 58 105 97 175 215 420 324 675 60 141
169 462 228 673 108 383 187 817 223 1222 l17 190 0 340 0 340 -17 200 c-15
182 -53 464 -92 685 -17 98 -45 222 -81 365 -53 207 -65 248 -124 435 -15 45
-98 273 -128 350 -28 71 -36 91 -84 200 -81 187 -259 538 -339 670 -15 25 -45
74 -65 110 -21 36 -56 92 -79 125 -23 34 -44 67 -48 75 -4 8 -41 62 -82 120
-41 58 -83 116 -92 130 -55 80 -229 296 -362 449 -147 169 -482 499 -650 641
-29 25 -60 52 -69 60 -20 19 -242 191 -323 250 -255 186 -460 315 -764 482
-64 35 -207 106 -360 178 -124 58 -364 154 -550 220 -242 85 -606 185 -875
239 -156 31 -405 68 -580 87 -135 14 -481 33 -622 34 l-48 0 0 -18 c0 -10 -12
-37 -27 -60 l-28 -43 -41 -19 c-70 -34 -143 -24 -197 28 -41 38 -57 74 -57
125 l0 43 30 48 30 47 43 19 c52 24 85 25 137 4z m-375 -2164 c283 -19 545
-94 775 -221 109 -61 279 -196 370 -295 51 -55 161 -196 185 -235 40 -68 117
-213 135 -254 37 -85 88 -233 95 -275 l7 -40 18 0 c28 0 206 -67 295 -111 177
-88 278 -161 425 -309 l125 -125 66 -100 c128 -193 216 -390 268 -602 44 -176
50 -221 57 -402 l6 -166 -10 -116 c-20 -212 -78 -419 -172 -609 -56 -113 -74
-143 -140 -234 -19 -26 -207 -215 -237 -238 -55 -42 -206 -126 -283 -156 -178
-71 -422 -114 -745 -133 l-170 -10 -905 3 -905 3 -3 22 -3 22 48 6 c126 16
173 27 229 55 l61 30 52 55 52 55 26 57 c15 32 33 92 40 133 l14 75 6 373 5
372 -861 0 -861 0 0 24 0 23 71 7 c81 8 176 36 228 68 54 32 123 106 153 163
14 28 34 86 44 130 l19 80 0 1195 0 1195 -18 85 c-10 47 -30 107 -45 133 -35
66 -116 144 -177 171 -49 23 -150 49 -232 61 l-43 7 0 19 0 19 898 0 c493 0
960 -5 1037 -10z m-35 -6420 l0 -1040 110 0 110 0 0 -35 0 -35 -380 0 -380 0
0 35 0 35 120 0 120 0 0 995 0 995 -120 0 -120 0 0 35 0 35 203 1 c111 0 225
4 252 9 28 4 58 8 68 9 l17 1 0 -1040z m-2720 996 l95 -17 75 -37 75 -37 62
-62 63 -62 32 -68 33 -68 3 -101 4 -100 -26 -63 c-69 -170 -232 -272 -548
-341 l-108 -24 0 -13 0 -13 24 0 c29 0 154 -41 223 -72 76 -36 189 -116 229
-162 46 -54 91 -151 110 -239 9 -40 20 -144 25 -232 5 -88 13 -179 18 -203 9
-47 39 -85 85 -109 l30 -16 93 5 93 5 0 -28 0 -28 -57 -18 -58 -18 -150 0
-150 0 -63 25 -63 25 -48 45 c-60 56 -103 128 -131 216 l-22 69 7 165 7 165
-12 65 c-14 78 -68 195 -107 232 -15 14 -52 38 -81 53 l-53 28 -102 13 c-56 7
-159 14 -229 14 l-128 0 0 -515 0 -515 170 0 170 0 0 -35 0 -35 -525 0 -525 0
0 35 0 35 170 0 170 0 0 995 0 995 -170 0 -170 0 0 36 0 35 683 -4 682 -3 95
-18z m5245 -82 l44 -25 20 -43 c12 -23 21 -55 21 -71 0 -15 -10 -47 -22 -72
l-22 -43 -42 -25 -43 -25 -41 0 -41 0 -39 23 -39 22 -26 46 c-14 26 -25 59
-25 73 0 42 37 104 82 136 l41 30 44 0 44 0 44 -26z m-3625 -768 c39 -14 83
-34 99 -45 16 -12 34 -21 39 -21 6 0 40 -30 76 -66 l65 -65 35 -72 c33 -68 66
-189 66 -243 l0 -24 -406 0 -407 0 6 -212 6 -213 19 -78 18 -79 32 -38 32 -39
55 -20 56 -21 73 0 72 0 55 16 c30 9 78 29 107 46 l53 30 48 58 c47 56 103
159 117 214 l6 26 29 0 c16 0 29 -1 29 -2 -1 -18 -36 -111 -61 -164 l-33 -68
-60 -61 -61 -61 -65 -33 c-112 -59 -235 -74 -371 -46 l-72 15 -69 37 c-39 20
-91 54 -117 75 -110 90 -193 225 -225 365 l-16 72 0 88 0 88 19 75 c10 41 27
93 37 115 71 153 223 295 371 344 82 28 88 29 186 30 l87 1 70 -24z m2360 3
c41 -11 106 -37 145 -57 l70 -36 80 -81 81 -81 36 -75 c20 -41 42 -94 49 -119
l13 -45 0 -135 -1 -135 -17 -50 c-10 -27 -34 -84 -54 -125 l-37 -75 -85 -85
-85 -85 -85 -42 -85 -42 -73 -16 c-92 -19 -171 -19 -261 0 -119 25 -228 84
-319 174 -63 62 -113 137 -153 233 l-30 70 -9 84 -9 84 9 83 8 82 26 68 c14
38 35 81 46 97 11 15 20 32 20 38 0 15 140 156 185 185 55 36 139 73 205 91
l55 15 100 0 100 1 75 -21z m2553 -2 l73 -24 64 -43 c35 -23 77 -59 94 -78 17
-20 36 -40 42 -46 5 -6 25 -38 42 -71 33 -62 72 -196 72 -247 l0 -28 -405 0
-405 0 0 -157 c1 -87 7 -207 14 -268 l13 -110 17 -36 c24 -51 74 -95 129 -113
l48 -16 67 0 c82 0 171 22 232 57 25 14 66 48 91 74 46 48 120 178 133 232 l6
27 29 0 30 0 -9 -27 c-24 -77 -45 -131 -61 -155 -11 -14 -19 -30 -19 -35 0
-13 -102 -117 -135 -138 -100 -64 -199 -95 -300 -95 -78 0 -183 25 -257 60
-72 35 -177 117 -223 176 -54 69 -92 137 -116 209 l-24 70 1 155 0 155 27 67
c14 37 38 89 54 115 38 65 143 174 211 220 31 21 93 50 137 65 l80 27 87 1 87
0 74 -23z m1221 -1 c67 -25 146 -73 146 -87 0 -5 6 -9 14 -9 13 0 38 31 61 75
6 11 21 21 33 23 l22 3 0 -175 0 -176 -29 0 -28 0 -6 28 c-11 53 -57 139 -99
183 -24 25 -65 56 -93 69 l-50 25 -115 0 -115 -1 -51 -27 c-86 -46 -124 -101
-124 -177 0 -58 18 -100 53 -123 36 -23 121 -46 234 -62 138 -19 242 -48 314
-86 l60 -32 48 -52 47 -53 23 -58 c12 -33 25 -86 28 -119 l5 -60 -11 -57 c-25
-119 -107 -234 -209 -294 -53 -32 -138 -53 -207 -53 -100 0 -181 29 -302 111
-23 15 -47 28 -54 28 -6 0 -36 -20 -65 -45 -28 -25 -62 -45 -73 -45 l-21 0 0
230 0 230 24 0 24 0 7 -32 c4 -18 18 -55 31 -82 13 -28 24 -53 24 -58 0 -17
72 -118 115 -161 l46 -46 67 -33 67 -32 81 -4 82 -4 53 17 c71 24 94 39 156
101 l52 53 7 46 c3 25 4 67 1 91 l-5 46 -31 32 c-37 38 -95 60 -211 81 -47 9
-123 23 -170 31 -47 9 -119 29 -161 45 l-75 30 -51 44 c-62 54 -90 98 -109
168 -27 101 -13 204 39 283 58 89 109 130 209 169 l63 24 82 1 83 0 64 -24z
m-2444 -663 l0 -668 -14 -126 c-8 -70 -24 -160 -36 -200 -24 -81 -75 -192 -96
-210 -8 -6 -14 -17 -14 -24 0 -7 -30 -41 -67 -75 l-67 -63 -65 -31 -66 -31
-80 1 -80 0 -45 23 c-93 49 -139 105 -140 172 0 20 7 50 15 67 l16 31 45 21
45 22 32 -6 c43 -8 74 -30 92 -66 l15 -29 -25 -67 -25 -67 6 -19 c7 -23 43
-32 98 -24 l44 7 25 23 c36 33 53 72 66 151 23 130 31 407 31 1088 l0 677
-145 0 -145 0 0 35 0 35 208 1 c114 1 234 5 267 9 33 4 70 8 83 9 l22 1 0
-667z" />
    <path d="M5152 9728 l3 -1403 18 -60 c9 -33 32 -88 49 -123 l31 -63 65 -61 65
-60 61 -28 c76 -34 205 -60 296 -60 l70 0 0 500 0 501 63 -7 c34 -3 80 -10
102 -15 22 -5 90 -12 150 -15 l110 -6 45 16 c25 9 48 16 53 16 4 0 7 -196 7
-435 l0 -435 20 0 c42 0 178 104 287 219 35 36 63 69 63 73 0 4 6 13 13 20 22
22 80 110 115 173 53 97 92 184 122 275 69 208 100 410 100 655 0 135 -18 349
-35 417 l-7 25 -51 7 c-29 3 -117 6 -195 6 l-144 0 -34 -16 -34 -16 -9 -37
c-16 -59 -31 -210 -31 -301 0 -47 -4 -111 -10 -144 l-9 -59 -36 -69 c-19 -38
-35 -74 -35 -80 0 -6 25 -42 56 -79 l56 -69 59 0 59 0 0 -10 c0 -12 -39 -18
-170 -25 l-105 -6 -29 30 -30 31 -21 0 c-12 0 -30 -8 -39 -19 -27 -30 -125
-69 -199 -79 l-68 -9 -62 9 -62 10 -44 25 c-51 30 -88 70 -113 122 l-17 36 -1
55 0 55 24 50 c32 68 97 130 178 168 l67 32 0 17 c1 9 -3 19 -8 23 -14 8 -70
114 -80 152 l-9 33 9 35 10 34 45 45 45 46 51 15 c66 19 121 19 187 -1 l53
-15 34 -32 c19 -18 38 -45 43 -62 l8 -30 -9 -33 -9 -33 -39 -38 c-22 -21 -65
-50 -95 -65 -30 -14 -55 -32 -55 -39 0 -8 24 -47 53 -87 28 -40 59 -82 67 -94
73 -104 124 -166 136 -166 l13 0 27 57 c14 32 32 93 40 138 l14 80 -1 220 -1
219 21 17 21 17 127 8 c71 4 172 7 226 8 l97 0 0 22 c0 63 -147 412 -206 491
-13 17 -24 34 -24 37 0 3 -28 43 -62 88 -123 164 -286 305 -452 394 -109 58
-199 91 -326 119 l-105 24 -178 10 c-98 6 -247 11 -333 11 l-154 0 2 -1402z" />
    <path d="M6073 9853 c-12 -2 -33 -15 -47 -28 l-26 -24 0 -31 c0 -17 11 -53 26
-81 32 -65 93 -149 106 -149 22 0 81 54 94 86 28 67 12 166 -32 206 -21 18
-84 29 -121 21z" />
    <path d="M7650 9392 c0 -178 -19 -360 -51 -471 -60 -217 -120 -355 -224 -516
l-57 -90 -99 -98 c-96 -94 -174 -153 -290 -215 -121 -66 -294 -120 -478 -148
l-113 -17 5 -351 6 -351 14 -80 c25 -134 53 -191 146 -288 l46 -49 70 -33 c39
-18 97 -41 130 -51 l60 -19 205 1 205 1 119 32 119 31 85 42 c47 23 117 67
156 98 76 61 182 171 225 234 103 153 141 221 200 361 35 83 69 204 95 335
l25 125 6 160 7 160 -11 135 c-12 154 -40 305 -78 430 -30 97 -102 270 -144
348 -42 77 -114 185 -166 250 -64 78 -182 192 -199 192 l-14 0 0 -158z" />
    <path d="M5943 9432 c-48 -26 -92 -69 -99 -98 -4 -14 -4 -52 -1 -84 l5 -59 33
-58 c67 -116 150 -183 229 -182 19 0 52 6 73 13 52 19 107 58 107 77 0 8 -31
54 -69 101 -37 47 -84 107 -102 133 -19 26 -44 61 -57 79 -12 17 -32 46 -43
64 -12 17 -26 32 -32 32 -7 -1 -26 -9 -44 -18z" />
    <path d="M2520 5260 l0 -452 253 5 252 5 57 14 c32 9 68 23 82 32 68 44 115
125 136 232 l12 60 -4 164 -4 165 -27 57 -27 56 -45 40 -45 39 -57 13 -58 13
-262 4 -263 5 0 -452z" />
    <path d="M4626 4863 c-17 -2 -49 -18 -73 -34 l-43 -30 -22 -42 -23 -42 -3
-142 -4 -143 240 0 239 0 7 53 c9 77 7 186 -4 235 -13 53 -43 96 -88 124 l-33
20 -82 3 c-45 2 -95 1 -111 -2z" />
    <path d="M6980 4861 c-19 -4 -48 -15 -65 -23 -37 -20 -88 -73 -108 -114 l-16
-31 -10 -144 c-14 -184 -14 -367 0 -544 l10 -140 23 -50 23 -50 37 -30 c21
-17 58 -38 84 -47 l47 -16 70 -1 70 0 51 17 c66 23 105 55 139 115 l27 48 10
112 10 112 -5 290 -6 290 -11 35 c-19 57 -62 113 -112 143 l-46 28 -93 4 c-52
2 -110 1 -129 -4z" />
    <path d="M9537 4861 c-48 -10 -105 -56 -131 -107 l-21 -39 -3 -142 -4 -143
240 0 240 0 7 76 c4 42 5 107 3 144 l-5 68 -22 45 -22 45 -39 27 -39 27 -83 4
c-46 1 -100 -1 -121 -5z" />
  </g>
  <g transform="translate(0.000000,1341.000000) scale(0.100000,-0.100000)" fill="#000000" stroke="none">
    <path d="M6253 13350 l-43 -19 -30 -47 -30 -48 0 -53 c0 -60 15 -95 57 -135
36 -34 73 -48 130 -48 l47 0 40 20 41 19 28 43 c15 23 27 50 27 60 l0 18 38 0
c137 -2 482 -21 612 -34 175 -19 424 -56 580 -87 419 -84 866 -222 1267 -390
205 -86 435 -199 633 -311 105 -59 163 -94 326 -196 70 -43 211 -140 323 -222
81 -59 303 -231 323 -250 9 -8 40 -35 69 -60 168 -142 503 -472 650 -641 133
-153 307 -369 362 -449 9 -14 51 -72 92 -130 41 -58 78 -112 82 -120 4 -8 25
-41 48 -75 23 -33 58 -89 79 -125 20 -36 50 -85 65 -110 80 -132 258 -483 339
-670 48 -109 56 -129 84 -200 30 -77 113 -305 128 -350 59 -187 71 -228 124
-435 36 -143 64 -267 81 -365 39 -221 77 -503 92 -685 l17 -200 0 -330 0 -330
-17 -190 c-36 -405 -115 -839 -223 -1222 -59 -211 -168 -532 -228 -673 -109
-255 -227 -500 -324 -675 -21 -38 -47 -86 -58 -105 -10 -19 -28 -49 -39 -65
-12 -17 -26 -41 -33 -55 -7 -14 -26 -45 -42 -70 -16 -25 -33 -52 -37 -60 -6
-13 -25 -42 -147 -220 -28 -41 -73 -104 -101 -141 -85 -112 -202 -263 -227
-291 -13 -14 -32 -37 -43 -50 -148 -177 -431 -468 -626 -643 -111 -99 -381
-319 -468 -380 -23 -16 -55 -40 -71 -52 -15 -13 -32 -23 -38 -23 -6 0 -12 -4
-14 -8 -3 -9 -104 -82 -112 -82 -3 0 -33 -19 -68 -43 -71 -48 -181 -118 -233
-147 -63 -36 -99 -57 -150 -87 -27 -16 -86 -48 -130 -70 -44 -23 -107 -55
-140 -72 -70 -37 -327 -155 -400 -183 -286 -113 -420 -159 -640 -224 -243 -72
-337 -95 -615 -149 -226 -44 -409 -70 -645 -92 l-190 -18 -385 0 -385 0 -180
18 c-516 52 -890 127 -1370 274 -161 49 -420 144 -570 208 -251 109 -596 280
-677 336 -14 11 -29 19 -32 19 -10 0 -234 137 -304 186 -35 24 -65 44 -68 44
-3 0 -18 10 -34 21 l-29 22 -15 -6 c-34 -13 -20 -30 92 -115 223 -168 504
-351 717 -467 476 -259 1037 -477 1555 -603 313 -76 491 -109 780 -142 286
-33 425 -40 764 -40 403 0 618 16 976 71 388 60 912 194 1260 324 332 124 554
224 845 380 50 27 107 59 127 72 21 12 39 23 42 23 2 0 33 18 67 40 35 22 78
47 96 56 18 9 37 22 44 30 6 8 15 14 20 14 5 0 50 28 102 63 51 35 99 66 107
70 8 4 33 21 55 37 22 17 51 38 65 48 37 25 138 100 196 147 28 22 64 49 79
60 16 11 33 25 39 30 6 6 38 32 71 59 33 27 65 54 70 60 6 6 28 26 50 45 75
63 217 196 319 297 253 253 454 485 639 738 20 28 43 58 50 67 6 8 17 23 22
31 6 9 42 62 81 119 82 120 194 297 194 306 0 3 11 21 25 39 14 18 25 35 25
37 0 3 30 58 66 123 178 317 322 631 467 1014 52 139 143 445 186 630 90 380
142 704 173 1080 l13 155 0 360 0 360 -13 165 c-21 263 -67 592 -114 815 -80
383 -212 813 -360 1175 -93 228 -265 580 -375 770 -115 198 -206 342 -315 497
-48 67 -91 128 -97 135 -6 7 -54 69 -107 138 -54 69 -100 127 -104 130 -4 3
-35 39 -69 80 -35 41 -93 109 -129 150 -84 94 -436 446 -523 522 -83 73 -309
258 -339 278 -13 8 -35 24 -49 36 -21 17 -217 158 -271 195 -57 39 -221 144
-250 160 -37 20 -59 34 -100 60 -48 32 -296 166 -415 226 -221 111 -401 186
-670 281 -511 180 -1045 299 -1575 349 l-185 18 -362 0 -363 0 0 11 c0 6 -16
31 -34 56 l-35 45 -41 17 c-53 21 -105 20 -157 -4z" />
    <path d="M4080 11171 l0 -29 43 -7 c82 -12 183 -38 232 -61 61 -27 142 -105
177 -171 15 -26 35 -86 45 -133 l18 -85 0 -1185 0 -1185 -19 -80 c-10 -44 -30
-102 -44 -130 -30 -57 -99 -131 -153 -163 -52 -32 -147 -60 -228 -68 l-71 -7
0 -33 0 -34 861 0 861 0 -5 -362 -6 -363 -14 -75 c-7 -41 -25 -101 -40 -133
l-26 -57 -52 -55 -52 -55 -61 -30 c-56 -28 -103 -39 -229 -55 l-48 -6 3 -32 3
-32 915 -3 915 -3 170 10 c323 19 567 62 745 133 77 30 228 114 283 156 30 23
218 212 237 238 66 91 84 121 140 234 94 190 152 397 172 609 l10 116 -6 175
c-6 190 -12 234 -57 413 -52 212 -140 409 -268 602 l-66 100 -125 125 c-147
148 -248 221 -425 309 -89 44 -267 111 -295 111 l-18 0 -7 40 c-7 42 -58 190
-95 275 -18 41 -95 186 -135 254 -24 39 -134 180 -185 235 -91 99 -261 234
-370 295 -156 86 -332 150 -515 188 -66 13 -183 28 -260 33 -77 5 -548 10
-1047 10 l-908 0 0 -29z m1547 -62 l178 -10 105 -24 c127 -28 217 -61 326
-119 166 -89 329 -230 452 -394 34 -45 62 -85 62 -88 0 -3 11 -20 24 -37 37
-50 131 -251 170 -365 20 -57 36 -109 36 -115 l0 -12 -98 -1 c-53 0 -154 -4
-225 -8 l-127 -8 -22 -17 -21 -18 2 -219 2 -219 -15 -80 c-8 -45 -26 -106 -40
-138 -15 -31 -28 -57 -30 -57 -2 0 -30 36 -63 80 -32 44 -82 112 -111 151 -28
39 -57 79 -62 90 l-11 19 56 26 c30 15 73 44 94 65 l40 38 10 38 11 39 -10 36
-10 36 -35 31 c-65 57 -190 76 -293 46 l-51 -15 -45 -46 -46 -45 -10 -40 -11
-39 11 -39 c11 -41 53 -124 78 -154 8 -9 13 -18 11 -20 -2 -1 -34 -17 -70 -35
-80 -40 -144 -101 -175 -167 l-24 -50 0 -65 1 -65 17 -36 c25 -52 62 -92 113
-122 l44 -25 67 -10 67 -11 73 10 c78 11 176 49 204 80 9 11 22 19 29 19 6 0
24 -14 41 -31 l29 -31 120 7 c66 3 132 8 148 11 l27 6 0 19 0 19 -59 0 -59 0
-56 69 -56 69 35 70 36 69 9 59 c6 33 10 97 10 144 0 91 15 242 31 301 l9 37
34 16 34 16 134 0 c73 0 156 -3 185 -6 l51 -7 7 -25 c16 -66 35 -280 35 -407
0 -350 -71 -645 -222 -920 -35 -63 -93 -151 -115 -173 -7 -7 -13 -16 -13 -20
-1 -12 -123 -137 -185 -188 -66 -55 -139 -104 -155 -104 l-10 0 0 440 c0 242
-1 440 -3 440 -1 0 -28 -9 -60 -20 l-57 -20 -57 0 c-32 0 -87 5 -123 10 -36 6
-99 15 -140 20 -41 6 -82 13 -92 16 l-18 5 0 -505 0 -506 -60 0 c-82 0 -213
28 -286 60 l-61 28 -65 60 -65 61 -31 63 c-17 35 -40 90 -49 123 l-18 60 -3
1393 -2 1392 144 0 c80 0 225 -5 323 -11z m557 -1288 c10 -9 25 -30 32 -48 30
-71 8 -154 -52 -200 l-32 -24 -35 50 c-46 64 -87 145 -87 171 0 25 42 67 73
73 33 7 80 -3 101 -22z m1574 -369 c70 -70 131 -146 187 -232 64 -99 97 -160
147 -280 87 -204 131 -388 149 -620 l11 -135 -7 -150 -7 -150 -24 -125 c-26
-131 -60 -252 -95 -335 -59 -140 -97 -208 -200 -361 -43 -63 -149 -173 -225
-234 -39 -31 -109 -75 -156 -98 l-85 -42 -119 -31 -119 -32 -195 -1 -195 -1
-60 19 c-33 10 -91 33 -130 51 l-70 33 -46 49 c-93 97 -121 154 -146 288 l-14
80 -6 341 -6 341 114 17 c333 51 561 159 768 363 l99 98 57 90 c104 161 164
299 224 516 12 41 28 129 36 194 l15 119 0 160 0 159 23 -19 c12 -10 46 -43
75 -72z m-1728 -77 c14 -18 43 -59 65 -90 22 -31 73 -98 113 -148 39 -50 72
-93 72 -96 0 -11 -69 -53 -107 -67 -21 -7 -49 -13 -63 -13 -68 -1 -156 72
-218 181 l-33 57 -6 50 c-3 27 -3 61 1 75 7 29 51 72 99 98 l32 17 10 -16 c6
-8 21 -30 35 -48z" />
    <path d="M5895 5800 c-27 -5 -141 -9 -252 -9 l-203 -1 0 -45 0 -45 120 0 120
0 0 -985 0 -985 -120 0 -120 0 0 -45 0 -45 390 0 390 0 0 45 0 45 -110 0 -110
0 0 1040 0 1040 -27 -1 c-16 -1 -50 -5 -78 -9z" />
    <path d="M1800 5746 l0 -46 170 0 170 0 0 -985 0 -985 -170 0 -170 0 0 -45 0
-45 535 0 535 0 0 45 0 45 -170 0 -170 0 0 505 0 505 118 0 c64 0 163 -7 219
-14 l102 -13 53 -28 c29 -15 66 -39 81 -53 38 -37 93 -154 107 -231 l12 -65
-7 -162 -8 -162 22 -72 c28 -90 71 -163 132 -220 l48 -45 63 -25 63 -25 160 0
160 0 58 18 57 18 0 46 0 45 -17 -7 c-10 -4 -52 -10 -94 -12 l-75 -5 -30 15
c-46 24 -76 62 -85 109 -5 24 -13 115 -18 203 -5 88 -16 192 -25 232 -19 88
-64 185 -110 239 -40 46 -153 126 -229 162 -68 31 -193 72 -226 73 -14 0 19
11 74 24 186 44 318 94 407 154 64 43 124 118 154 192 l26 63 -4 110 -3 111
-33 68 -32 68 -63 62 -62 62 -75 37 -75 37 -95 17 -95 18 -692 3 -693 4 0 -45z
m1293 -66 l57 -13 45 -39 45 -40 27 -56 27 -57 4 -154 4 -155 -12 -59 c-21
-108 -68 -189 -136 -233 -14 -9 -50 -23 -82 -31 l-57 -15 -242 -5 -243 -5 0
442 0 442 253 -5 252 -4 58 -13z" />
    <path d="M8393 5710 c-74 -17 -143 -101 -143 -176 l0 -36 25 -47 26 -46 39
-22 39 -23 51 0 51 0 43 25 42 25 22 43 22 44 0 38 c0 21 -9 58 -21 81 l-20
43 -42 24 c-50 29 -90 37 -134 27z" />
    <path d="M4615 4933 c-11 -2 -46 -13 -78 -24 -148 -49 -300 -191 -371 -344
-10 -22 -27 -74 -37 -115 l-19 -75 0 -98 0 -98 16 -72 c32 -140 115 -275 225
-365 26 -21 78 -55 117 -75 l69 -37 72 -15 c142 -30 279 -14 391 46 l65 33 61
61 60 61 33 68 c32 66 61 148 61 174 l0 12 -39 0 -39 0 -6 -26 c-14 -55 -70
-158 -117 -214 l-48 -58 -53 -30 c-72 -41 -149 -62 -224 -62 l-63 0 -56 21
-55 20 -32 39 -32 38 -18 79 -18 78 -7 203 -6 202 407 0 406 0 0 34 c0 64 -30
180 -66 253 l-35 72 -65 65 c-36 36 -70 66 -76 66 -5 0 -23 9 -39 21 -16 11
-60 31 -99 45 l-70 24 -97 -1 c-54 -1 -107 -3 -118 -6z m228 -102 c67 -41 96
-109 97 -226 0 -33 -3 -84 -6 -112 l-7 -53 -229 0 -230 0 4 133 4 132 22 42
22 42 43 30 c24 16 56 32 73 34 16 3 62 4 102 2 l72 -3 33 -21z" />
    <path d="M6910 4924 c-66 -18 -150 -55 -205 -91 -45 -29 -185 -170 -185 -185
0 -6 -9 -23 -20 -38 -11 -16 -32 -59 -46 -97 l-26 -68 -9 -87 -9 -88 9 -89 10
-89 30 -70 c74 -175 187 -294 354 -370 64 -30 173 -52 257 -52 38 0 102 7 142
15 l73 16 85 42 85 42 85 85 85 85 37 75 c20 41 44 98 54 125 l17 50 1 145 0
145 -13 45 c-7 25 -29 78 -49 119 l-36 75 -81 81 -80 81 -70 36 c-39 20 -104
46 -145 57 l-75 21 -110 -1 -110 0 -55 -15z m329 -101 c49 -31 92 -86 111
-143 l11 -35 6 -280 5 -280 -10 -112 -10 -112 -27 -48 c-34 -60 -73 -92 -139
-115 l-51 -17 -60 0 c-72 1 -140 23 -191 64 l-37 30 -23 50 -23 50 -10 140
c-14 176 -14 340 0 524 l10 144 16 31 c20 41 71 94 108 114 47 25 93 31 184
27 l84 -4 46 -28z" />
    <path d="M9465 4912 c-44 -15 -106 -44 -137 -65 -68 -46 -173 -155 -211 -220
-16 -26 -40 -78 -54 -115 l-27 -67 0 -165 -1 -165 24 -70 c40 -118 108 -216
210 -301 78 -64 170 -110 263 -129 163 -35 303 -9 443 80 33 21 135 125 135
138 0 5 8 21 19 35 17 25 71 170 71 192 0 6 -18 10 -40 10 l-40 0 -6 -27 c-13
-54 -87 -184 -133 -232 -25 -26 -66 -60 -91 -74 -58 -34 -149 -57 -222 -57
-110 0 -195 47 -234 129 l-17 36 -13 110 c-7 61 -13 176 -14 258 l0 147 405 0
405 0 0 38 c0 60 -37 190 -72 257 -17 33 -37 65 -42 71 -6 6 -25 26 -42 46
-17 19 -59 55 -94 78 l-64 43 -73 24 -74 23 -97 0 -97 -1 -80 -27z m306 -87
l38 -27 22 -44 c25 -54 34 -136 24 -238 l-7 -76 -230 0 -230 0 4 133 3 132 21
39 c26 51 83 97 131 107 21 4 71 6 111 4 l74 -4 39 -26z" />
    <path d="M10722 4915 c-100 -39 -151 -80 -209 -169 -52 -79 -67 -197 -39 -303
19 -70 47 -114 109 -168 l51 -44 75 -30 c42 -16 114 -36 161 -45 47 -8 123
-22 170 -31 116 -21 174 -43 210 -80 l31 -32 6 -36 c3 -20 2 -57 -2 -82 l-6
-46 -52 -53 c-62 -62 -85 -77 -156 -101 l-54 -17 -71 4 -71 5 -67 32 -67 32
-46 46 c-43 43 -115 144 -115 161 0 5 -11 30 -24 58 -13 27 -27 64 -31 82 l-7
32 -34 0 -34 0 0 -240 0 -240 31 0 31 0 53 46 54 46 43 -29 c84 -57 141 -86
197 -99 113 -27 246 -11 333 40 102 60 184 175 209 294 l11 57 -5 70 -5 70
-23 59 -23 58 -47 53 -48 52 -60 32 c-72 38 -176 67 -314 86 -113 16 -198 39
-234 62 -33 22 -53 64 -53 113 0 66 42 123 124 167 l51 27 105 0 105 1 50 -25
c28 -13 69 -44 93 -69 42 -44 88 -130 99 -183 l6 -28 38 0 39 0 0 186 0 185
-32 -3 -33 -3 -10 -20 c-17 -34 -54 -81 -55 -69 0 17 -75 63 -146 90 l-64 24
-93 0 -92 -1 -63 -24z" />
    <path d="M8545 4917 c-22 -4 -156 -10 -297 -14 l-258 -6 0 -43 0 -44 145 0
145 0 0 -667 c-1 -872 -12 -1094 -63 -1186 -11 -20 -31 -44 -44 -52 -12 -9
-42 -18 -66 -21 l-43 -6 -17 16 -16 16 26 71 26 70 -16 34 c-20 42 -54 65
-106 72 l-40 5 -45 -21 -45 -22 -16 -31 c-8 -17 -15 -52 -15 -77 l1 -46 17
-31 c21 -38 62 -73 122 -105 l45 -23 90 -1 90 0 66 31 65 31 67 63 c37 34 67
67 67 73 0 6 6 18 14 26 27 30 66 115 91 195 l25 81 15 135 15 135 -2 675 -3
675 -40 -8z" />
  </g>
  <g transform="translate(0.000000,1341.000000) scale(0.100000,-0.100000)" fill="#3f3f3f" stroke="none">
    <path d="M4605 9505 c0 -533 1 -750 2 -482 2 269 2 705 0 970 -1 265 -2 46 -2
-488z" />
    <path d="M6523 9490 c0 -36 2 -50 4 -32 2 17 2 47 0 65 -2 17 -4 3 -4 -33z" />
    <path d="M5798 8380 c-2 -281 0 -510 4 -510 4 0 9 230 10 510 2 281 0 510 -4
510 -4 0 -9 -230 -10 -510z" />
    <path d="M6338 8430 c1 -248 6 -449 10 -446 9 5 4 896 -6 896 -4 0 -6 -203 -4
-450z" />
    <path d="M8253 8140 c0 -41 2 -58 4 -37 2 20 2 54 0 75 -2 20 -4 3 -4 -38z" />
    <path d="M6342 7588 l3 -253 2 245 3 244 13 8 12 8 -17 0 -18 0 2 -252z" />
    <path d="M5798 7623 c4 -355 8 -388 10 -100 1 158 -1 287 -5 287 -5 0 -7 -84
-5 -187z" />
    <path d="M13304 6695 c0 -71 1 -99 3 -62 2 37 2 96 0 130 -2 34 -3 4 -3 -68z" />
    <path d="M1800 5745 l0 -45 173 2 172 2 -169 3 -168 3 4 40 c2 22 0 40 -4 40
-5 0 -8 -20 -8 -45z" />
    <path d="M5440 5708 c0 -5 55 -7 123 -6 124 2 109 5 -41 10 -45 2 -82 0 -82
-4z" />
    <path d="M2520 5703 c0 -5 64 -7 142 -5 261 4 286 8 71 10 -117 1 -213 -1
-213 -5z" />
    <path d="M8500 5696 c0 -1 18 -17 40 -35 22 -17 37 -25 34 -17 -5 13 -74 61
-74 52z" />
    <path d="M8541 5413 l-44 -44 35 20 c19 12 40 32 46 46 6 14 11 25 9 24 -1 -1
-22 -21 -46 -46z" />
    <path d="M4464 4555 c0 -66 1 -92 3 -57 2 34 2 88 0 120 -2 31 -3 3 -3 -63z" />
    <path d="M9384 4555 c0 -66 1 -92 3 -57 2 34 2 88 0 120 -2 31 -3 3 -3 -63z" />
    <path d="M10450 3890 c0 -132 3 -240 8 -240 4 0 7 108 7 240 0 132 -3 240 -7
240 -5 0 -8 -108 -8 -240z" />
    <path d="M6580 3823 c0 -9 38 -46 60 -58 8 -4 -1 8 -19 28 -19 21 -36 37 -38
37 -2 0 -3 -3 -3 -7z" />
    <path d="M1800 3685 l0 -45 535 0 c294 0 535 3 535 8 0 4 -239 6 -531 4 l-531
-2 4 40 c2 22 0 40 -4 40 -5 0 -8 -20 -8 -45z" />
    <path d="M5440 3648 c0 -5 176 -8 390 -8 215 0 390 3 390 8 0 4 -175 7 -390 7
-214 0 -390 -3 -390 -7z" />
  </g>
  <g transform="translate(0.000000,1341.000000) scale(0.100000,-0.100000)" fill="#9f9f9f" stroke="none">
    <path d="M8560 12991 c8 -5 31 -11 50 -15 l35 -6 -20 8 c-11 5 -33 12 -50 16
l-30 6 15 -9z" />
    <path d="M5988 4765 c1 -575 6 -1045 10 -1045 4 0 6 470 4 1045 -1 575 -6
1045 -10 1045 -4 0 -6 -470 -4 -1045z" />
    <path d="M2112 5783 c175 -2 461 -2 635 0 175 1 32 2 -317 2 -349 0 -492 -1
-318 -2z" />
    <path d="M5440 5783 c0 -5 42 -7 92 -5 168 5 185 8 46 10 -76 1 -138 -1 -138
-5z" />
    <path d="M2522 5268 c-1 -246 1 -449 6 -451 6 -5 6 329 -1 738 -1 88 -4 -41
-5 -287z" />
    <path d="M3303 5300 c0 -36 2 -50 4 -32 2 17 2 47 0 65 -2 17 -4 3 -4 -33z" />
    <path d="M11295 4735 c0 -102 3 -185 8 -185 4 0 7 83 7 185 0 102 -3 185 -7
185 -5 0 -8 -83 -8 -185z" />
    <path d="M2520 4235 c0 -283 3 -515 8 -515 4 0 7 232 7 515 0 283 -3 515 -7
515 -5 0 -8 -232 -8 -515z" />
    <path d="M7374 4275 c0 -49 1 -71 3 -48 2 23 2 64 0 90 -2 26 -3 8 -3 -42z" />
    <path d="M3213 4055 c0 -27 2 -38 4 -22 2 15 2 37 0 50 -2 12 -4 0 -4 -28z" />
    <path d="M3958 3710 l4 -40 -23 -9 c-13 -5 -19 -10 -12 -10 6 -1 18 2 27 5
l16 6 0 44 c0 24 -3 44 -8 44 -4 0 -6 -18 -4 -40z" />
    <path d="M4700 545 c19 -7 42 -13 50 -13 8 0 -1 6 -20 13 -19 7 -42 13 -50 13
-8 0 1 -6 20 -13z" />
    <path d="M6373 293 c15 -2 37 -2 50 0 12 2 0 4 -28 4 -27 0 -38 -2 -22 -4z" />
    <path d="M6553 293 c15 -2 37 -2 50 0 12 2 0 4 -28 4 -27 0 -38 -2 -22 -4z" />
  </g>
  <g transform="translate(0.000000,1341.000000) scale(0.100000,-0.100000)" fill="#808080" stroke="none">
    <path d="M5738 11193 c18 -2 45 -2 60 0 15 2 0 4 -33 4 -33 0 -45 -2 -27 -4z" />
    <path d="M7990 4818 c0 -5 66 -7 148 -6 148 2 130 5 -51 10 -53 2 -97 0 -97
-4z" />
    <path d="M4865 4370 l-410 -5 413 -3 412 -2 0 10 c0 6 -1 9 -2 8 -2 -2 -187
-5 -413 -8z" />
    <path d="M9380 4363 c0 -7 311 -7 680 0 80 1 -41 4 -267 5 -227 1 -413 -1
-413 -5z" />
    <path d="M9383 4235 c0 -44 2 -61 4 -37 2 23 2 59 0 80 -2 20 -4 1 -4 -43z" />
    <path d="M4463 4235 c0 -33 2 -45 4 -27 2 18 2 45 0 60 -2 15 -4 0 -4 -33z" />
    <path d="M9089 3963 c12 -23 43 -61 39 -48 -10 29 -32 65 -40 65 l-9 0 10 -17z" />
    <path d="M4920 3714 c-63 -27 -56 -32 13 -8 26 9 47 20 47 25 0 5 -1 8 -2 8
-2 -1 -28 -12 -58 -25z" />
    <path d="M1893 3723 c48 -2 125 -2 170 0 45 1 6 3 -88 3 -93 0 -130 -2 -82 -3z" />
    <path d="M2575 3723 c147 -7 295 -7 295 0 0 4 -80 6 -177 5 -98 -1 -151 -3
-118 -5z" />
    <path d="M5440 3723 c0 -5 37 -7 82 -5 150 5 165 8 41 10 -68 1 -123 -1 -123
-5z" />
    <path d="M6020 3724 c82 -8 200 -8 200 -1 0 4 -53 6 -117 5 -65 -1 -102 -3
-83 -4z" />
  </g>
  <g transform="translate(0.000000,1341.000000) scale(0.100000,-0.100000)" fill="#bebebe" stroke="none">
    <path d="M5155 9840 c0 -707 1 -996 2 -642 2 353 2 931 0 1285 -1 353 -2 64
-2 -643z" />
    <path d="M7120 10720 c6 -11 20 -25 33 -31 l22 -12 -29 32 c-17 17 -31 31 -33
31 -2 0 1 -9 7 -20z" />
    <path d="M7785 6910 c-16 -17 -26 -30 -22 -30 10 0 61 50 55 55 -2 3 -17 -9
-33 -25z" />
    <path d="M7531 3805 c-13 -14 -22 -28 -19 -30 2 -3 17 9 33 25 16 17 25 30 19
30 -5 0 -20 -12 -33 -25z" />
    <path d="M2863 3685 c0 -27 2 -38 4 -22 2 15 2 37 0 50 -2 12 -4 0 -4 -28z" />
    <path d="M11036 2170 c-21 -22 -34 -40 -29 -40 12 0 78 68 72 74 -3 3 -22 -13
-43 -34z" />
    <path d="M6458 293 c18 -2 45 -2 60 0 15 2 0 4 -33 4 -33 0 -45 -2 -27 -4z" />
  </g>
  <g transform="translate(0.000000,1341.000000) scale(0.100000,-0.100000)" fill="#dedede" stroke="none">
    <path d="M6844 9943 c7 -7 87 -5 95 3 2 2 -20 4 -49 4 -29 0 -50 -3 -46 -7z" />
    <path d="M4080 7808 c0 -5 390 -7 868 -6 477 2 728 4 557 5 -811 7 -1425 7
-1425 1z" />
    <path d="M5272 6578 l3 -33 960 0 960 0 -959 2 -958 3 4 30 c3 17 1 30 -4 30
-5 0 -8 -15 -6 -32z" />
    <path d="M5443 5745 c0 -27 2 -38 4 -22 2 15 2 37 0 50 -2 12 -4 0 -4 -28z" />
    <path d="M7651 3958 c-12 -22 -18 -37 -12 -34 12 8 44 66 39 71 -2 2 -14 -15
-27 -37z" />
    <path d="M5443 3685 c0 -27 2 -38 4 -22 2 15 2 37 0 50 -2 12 -4 0 -4 -28z" />
  </g>
  <g transform="translate(0.000000,1341.000000) scale(0.100000,-0.100000)" fill="#efefef" stroke="none">
    <path d="M11040 11285 c30 -30 57 -55 59 -55 3 0 -19 25 -49 55 -30 30 -57 55
-59 55 -3 0 19 -25 49 -55z" />
    <path d="M11800 10383 c1 -4 12 -21 26 -38 l26 -30 -16 32 c-15 31 -36 52 -36
36z" />
    <path d="M8440 9336 c0 -4 11 -21 25 -38 14 -16 25 -25 25 -19 0 12 -49 69
-50 57z" />
    <path d="M7336 8343 c-16 -19 -26 -36 -23 -39 3 -3 17 11 32 31 15 19 26 37
24 39 -2 1 -17 -12 -33 -31z" />
    <path d="M7090 8100 c-19 -17 -30 -30 -24 -30 5 0 25 13 44 30 19 16 31 29 25
29 -5 0 -26 -13 -45 -29z" />
    <path d="M5159 4725 c14 -30 40 -61 41 -50 0 6 -12 24 -26 40 l-25 30 10 -20z" />
    <path d="M4212 4649 c-18 -28 -32 -53 -29 -55 2 -2 20 21 40 51 19 30 32 55
29 55 -4 0 -22 -23 -40 -51z" />
    <path d="M10770 3725 c0 -7 72 -36 78 -31 2 3 -13 12 -33 20 -41 17 -45 18
-45 11z" />
    <path d="M3150 1151 c0 -10 50 -45 56 -39 2 3 -10 14 -26 27 -17 12 -30 17
-30 12z" />
    <path d="M3285 1144 c24 -19 75 -46 75 -41 0 6 -79 57 -87 57 -5 0 1 -8 12
-16z" />
  </g>
  <g transform="translate(0.000000,1341.000000) scale(0.100000,-0.100000)" fill="#212121" stroke="none">
    <path d="M6843 13223 c26 -2 67 -2 90 0 23 2 2 3 -48 3 -49 0 -68 -1 -42 -3z" />
    <path d="M6494 9600 c0 -52 1 -74 3 -47 2 26 2 68 0 95 -2 26 -3 4 -3 -48z" />
    <path d="M8429 9342 c20 -29 51 -59 51 -50 0 3 -11 18 -25 34 -14 16 -25 32
-25 37 0 4 -5 7 -11 7 -6 0 -1 -13 10 -28z" />
    <path d="M7310 8310 c-17 -22 -27 -40 -21 -40 6 0 17 11 23 25 6 14 15 25 19
25 4 0 9 7 13 15 9 24 0 17 -34 -25z" />
    <path d="M7993 4855 c0 -27 2 -38 4 -22 2 15 2 37 0 50 -2 12 -4 0 -4 -28z" />
    <path d="M2583 4743 c37 -2 96 -2 130 0 34 2 4 3 -68 3 -71 0 -99 -1 -62 -3z" />
    <path d="M6773 4355 c0 -33 2 -45 4 -27 2 18 2 45 0 60 -2 15 -4 0 -4 -33z" />
    <path d="M9033 4275 c0 -27 2 -38 4 -22 2 15 2 37 0 50 -2 12 -4 0 -4 -28z" />
    <path d="M6773 4195 c0 -33 2 -45 4 -27 2 18 2 45 0 60 -2 15 -4 0 -4 -33z" />
    <path d="M6213 3685 c0 -27 2 -38 4 -22 2 15 2 37 0 50 -2 12 -4 0 -4 -28z" />
  </g>
  <g transform="translate(0.000000,1341.000000) scale(0.100000,-0.100000)" fill="#606060" stroke="none">
    <path d="M4084 11186 c-3 -8 -4 -23 -1 -33 l5 -18 1 27 1 28 818 3 817 2 -818
3 -818 2 -5 -14z" />
    <path d="M8853 8120 c0 -30 2 -43 4 -27 2 15 2 39 0 55 -2 15 -4 2 -4 -28z" />
    <path d="M12944 6725 c0 -55 1 -76 3 -47 2 29 2 74 0 100 -2 26 -3 2 -3 -53z" />
    <path d="M2612 4813 c48 -2 129 -2 180 0 51 1 12 3 -87 3 -99 0 -141 -2 -93
-3z" />
  </g>
  <g transform="translate(0.000000,1341.000000) scale(0.100000,-0.100000)" fill="#131313" stroke="none">
    <path d="M6861 9903 c-1 -23 3 -44 7 -47 4 -2 6 12 4 32 -5 56 -10 62 -11 15z" />
  </g>
  <g transform="translate(0.000000,1341.000000) scale(0.100000,-0.100000)" fill="#4f4f4f" stroke="none" />
  <g transform="translate(0.000000,1341.000000) scale(0.100000,-0.100000)" fill="#090909" stroke="none">
    <path d="M11039 2168 c-21 -21 -34 -38 -30 -38 9 0 76 69 70 72 -2 2 -20 -14
-40 -34z" />
  </g>
  <g transform="translate(0.000000,1341.000000) scale(0.100000,-0.100000)" fill="#333333" stroke="none" />
  <g transform="translate(0.000000,1341.000000) scale(0.100000,-0.100000)" fill="#737373" stroke="none" />
  <g transform="translate(0.000000,1341.000000) scale(0.100000,-0.100000)" fill="#cccccc" stroke="none" />
  <g transform="translate(0.000000,1341.000000) scale(0.100000,-0.100000)" fill="#939393" stroke="none">
    <path d="M11350 1985 c-24 -25 -42 -45 -39 -45 3 0 25 20 49 45 24 25 42 45
39 45 -3 0 -25 -20 -49 -45z" />
  </g>
  <g transform="translate(0.000000,1341.000000) scale(0.100000,-0.100000)" fill="#b4b4b4" stroke="none" />
  <g transform="translate(0.000000,1341.000000) scale(0.100000,-0.100000)" fill="#e5e5e5" stroke="none" />
  <g transform="translate(0.000000,1341.000000) scale(0.100000,-0.100000)" fill="#282828" stroke="none" />
  <g transform="translate(0.000000,1341.000000) scale(0.100000,-0.100000)" fill="#d5d5d5" stroke="none" />
  <g transform="translate(0.000000,1341.000000) scale(0.100000,-0.100000)" fill="#aaaaaa" stroke="none" />
  <g transform="translate(0.000000,1341.000000) scale(0.100000,-0.100000)" fill="#595959" stroke="none" />
  <g transform="translate(0.000000,1341.000000) scale(0.100000,-0.100000)" fill="#686868" stroke="none" />
  <g transform="translate(0.000000,1341.000000) scale(0.100000,-0.100000)" fill="#898989" stroke="none" />
</svg>