<svg width="1472.000000pt" height="1224.000000pt" viewBox="0 0 1472.000000 1224.000000" xmlns="http://www.w3.org/2000/svg">
  <g transform="translate(0.000000,1224.000000) scale(0.100000,-0.100000)" fill="#ffffff" stroke="none">
    <path d="M0 6120 l0 -6120 7360 0 7360 0 0 6120 0 6120 -7360 0 -7360 0 0
-6120z m6461 5136 c38 -16 74 -51 83 -81 l6 -20 302 0 303 -1 115 -12 c325
-35 697 -110 1000 -202 351 -106 670 -244 995 -429 193 -110 553 -357 680
-466 17 -14 78 -67 138 -118 130 -112 356 -341 491 -497 54 -63 108 -126 120
-140 99 -114 331 -450 428 -620 301 -526 499 -1055 607 -1625 56 -293 91 -659
91 -945 0 -152 -16 -417 -35 -585 -39 -336 -119 -711 -219 -1016 -97 -297
-269 -681 -431 -959 -64 -110 -217 -349 -302 -470 -22 -32 -181 -237 -209
-270 -129 -151 -305 -336 -465 -485 -117 -109 -384 -327 -482 -394 -129 -87
-324 -214 -372 -243 -33 -20 -83 -49 -112 -66 -85 -51 -449 -227 -568 -275
-144 -59 -439 -157 -590 -198 -109 -28 -362 -85 -490 -109 -182 -35 -601 -70
-825 -70 -158 0 -463 21 -660 46 -152 19 -436 74 -585 115 -258 69 -587 186
-815 290 -110 50 -350 172 -433 221 -143 84 -469 310 -522 361 l-10 10 15 -8
c8 -5 33 -21 55 -36 199 -134 524 -314 720 -396 33 -14 78 -33 101 -43 91 -42
341 -132 480 -174 267 -81 439 -119 764 -171 183 -29 297 -37 606 -42 l310 -6
170 12 c527 37 1121 180 1589 383 273 118 487 230 695 362 77 49 314 210 334
226 12 10 53 42 93 72 121 90 331 279 484 435 178 181 223 232 344 383 33 41
62 77 66 80 13 12 168 233 234 334 127 196 255 434 377 701 121 263 254 682
313 985 14 74 30 151 35 170 13 53 48 347 60 505 13 182 13 513 -1 707 -22
321 -81 679 -160 968 -46 168 -139 441 -198 585 -46 110 -221 467 -273 557
-18 31 -48 83 -67 115 -47 80 -189 294 -248 373 -160 216 -304 382 -508 586
-193 193 -321 305 -515 450 -122 92 -320 228 -410 281 -448 268 -856 441
-1336 567 -380 100 -675 142 -1121 161 l-151 7 -7 -31 -6 -30 -34 -30 c-19
-17 -49 -33 -67 -36 l-33 -6 -38 16 -38 16 -19 32 -20 32 0 38 c0 21 7 51 15
67 15 30 75 69 106 70 9 0 32 -6 50 -14z m-167 -1690 c127 -21 291 -68 386
-112 72 -34 182 -100 225 -136 144 -119 209 -189 290 -313 73 -111 112 -191
159 -328 l42 -119 84 -29 c104 -35 242 -105 330 -167 78 -56 210 -186 268
-264 36 -49 132 -204 132 -213 0 -2 13 -32 29 -67 44 -97 87 -242 106 -358
l16 -105 1 -145 0 -145 -16 -97 c-42 -255 -155 -493 -308 -649 -161 -163 -347
-251 -628 -296 l-105 -17 -847 -3 -848 -4 0 10 c0 11 18 17 85 26 27 4 73 16
102 27 l52 19 45 43 c49 49 72 87 94 161 l15 50 4 318 5 317 -666 0 -666 0 0
13 0 14 80 11 c44 6 98 21 121 32 22 12 60 39 84 61 l43 40 26 54 c14 30 30
83 36 117 l10 63 0 905 0 905 -11 64 c-19 122 -80 210 -178 261 -37 19 -79 29
-173 45 l-38 6 0 16 0 16 758 -6 757 -5 99 -16z m-154 -4971 l0 -805 90 0 90
0 0 -25 0 -25 -290 0 -290 0 0 25 0 25 90 0 90 0 0 775 0 775 -90 0 -90 0 0
20 0 20 113 1 c61 1 144 5 182 9 39 4 78 8 88 8 l17 2 0 -805z m-2097 770 c42
-7 98 -23 123 -35 24 -12 68 -44 97 -70 l53 -48 28 -56 28 -56 5 -63 5 -63
-16 -56 -16 -57 -51 -55 -51 -56 -82 -39 c-73 -36 -178 -68 -278 -85 l-38 -7
0 -12 0 -13 68 -18 c198 -52 331 -163 377 -316 l16 -55 9 -152 9 -151 14 -34
c8 -19 27 -45 43 -57 l28 -22 78 3 78 3 0 -18 0 -17 -27 -11 c-15 -5 -62 -15
-105 -21 l-77 -11 -72 12 c-39 6 -87 20 -107 30 -42 22 -102 82 -125 126 -9
17 -23 47 -32 69 l-15 38 0 162 0 162 -16 55 c-9 30 -27 73 -40 97 l-25 42
-42 27 c-23 15 -67 32 -97 40 l-55 13 -142 0 -143 0 0 -400 0 -400 130 0 130
0 0 -25 0 -25 -400 0 -400 0 0 25 0 25 130 0 130 0 0 775 0 775 -130 0 -130 0
0 20 0 20 528 0 527 -1 78 -14z m4045 -49 c37 -19 68 -56 76 -90 l7 -28 -11
-34 c-6 -18 -25 -45 -41 -59 l-31 -25 -39 0 c-54 0 -93 22 -113 64 -20 43 -20
69 0 112 l17 35 36 19 c44 23 64 24 99 6z m-2837 -597 c28 -6 70 -20 93 -30
53 -23 127 -88 167 -145 34 -50 64 -130 74 -199 l7 -45 -316 0 -316 0 0 -112
c0 -62 5 -156 10 -208 l10 -95 23 -44 22 -44 38 -20 39 -20 67 -5 67 -4 60 17
c103 30 174 96 226 212 18 40 39 73 46 73 6 0 12 -7 12 -16 0 -29 -68 -159
-101 -194 -74 -77 -195 -130 -294 -130 -63 0 -164 28 -221 61 -69 39 -118 82
-163 144 -50 68 -79 139 -92 229 l-11 76 11 76 c18 123 68 220 153 299 76 71
144 108 228 124 64 13 102 13 161 0z m1910 -19 c63 -22 131 -62 182 -109 36
-33 87 -104 110 -156 25 -54 47 -151 47 -205 0 -54 -29 -167 -59 -234 l-22
-48 -77 -78 -77 -77 -65 -31 -65 -32 -72 -12 -71 -12 -73 11 -72 12 -71 35
c-83 42 -154 106 -208 190 -44 68 -65 131 -74 221 l-6 61 12 73 12 72 34 68
c54 108 159 206 264 245 73 27 130 35 212 31 l76 -4 63 -21z m1968 1 c29 -11
77 -38 106 -60 90 -68 148 -171 161 -286 l7 -55 -310 0 -310 0 -7 -41 c-10
-61 3 -274 21 -354 l16 -70 32 -32 31 -31 45 -12 44 -12 71 5 71 5 51 22 51
22 47 50 46 49 34 75 35 74 14 0 c8 0 15 -2 15 -5 0 -3 -12 -38 -27 -77 l-28
-72 -57 -58 -56 -58 -69 -32 -68 -32 -90 0 -90 -1 -55 19 c-77 27 -148 75
-209 142 -59 64 -91 123 -116 209 l-17 58 4 106 5 106 35 75 35 76 62 67 c72
76 142 120 227 142 l59 15 65 -4 c36 -3 90 -14 119 -25z m950 -2 c27 -11 57
-29 67 -40 9 -10 26 -19 36 -19 l19 0 20 35 c12 19 25 35 30 35 l9 0 0 -131 0
-130 -16 3 -16 3 -18 52 c-24 68 -73 128 -125 153 l-42 21 -65 6 -65 6 -51
-12 -50 -13 -40 -33 c-21 -19 -45 -48 -52 -65 l-13 -30 6 -41 c3 -22 13 -49
22 -59 24 -26 120 -56 242 -74 111 -17 176 -38 238 -78 45 -28 90 -87 111
-145 17 -49 18 -148 0 -205 -18 -62 -71 -130 -134 -172 l-53 -35 -56 -11 c-94
-20 -179 0 -275 63 -30 20 -61 37 -67 37 -7 0 -32 -16 -55 -35 -24 -19 -48
-35 -55 -35 l-11 0 0 175 0 175 14 0 14 0 12 -37 c23 -70 83 -174 127 -219 24
-25 65 -55 91 -67 l47 -22 90 0 90 1 40 21 c23 12 59 41 81 65 l41 44 7 43 6
42 -10 39 -11 39 -28 20 c-32 23 -112 44 -269 71 l-104 18 -64 32 -63 31 -36
42 -36 41 -16 55 -15 54 5 49 c12 101 68 180 159 229 56 29 106 39 175 34 l62
-4 50 -22z m-1922 -546 l-5 -558 -15 -80 c-26 -137 -72 -237 -146 -313 -54
-55 -111 -90 -171 -104 l-49 -11 -54 12 -54 12 -41 35 -41 34 -11 34 -11 33
10 25 c5 14 22 35 37 47 l27 21 36 0 c38 -1 61 -13 78 -44 l11 -19 -20 -59
-20 -59 12 -14 12 -15 44 0 44 0 31 28 31 27 15 55 c23 87 32 325 33 888 l0
522 -115 0 -115 0 0 25 0 25 193 3 c105 1 207 3 225 5 l34 2 -5 -557z" />
    <path d="M5492 8454 l3 -1089 24 -70 c40 -118 106 -195 206 -239 69 -31 141
-46 220 -46 l65 0 0 391 0 391 14 -5 c8 -3 75 -13 148 -23 l134 -16 57 14 57
15 0 -339 0 -338 15 0 c30 0 130 72 197 141 109 113 195 246 255 399 43 108
81 281 94 428 l12 126 -12 142 c-6 77 -16 157 -21 176 l-10 35 -46 7 c-26 3
-95 6 -155 6 l-108 0 -25 -11 -25 -12 -11 -32 c-6 -17 -14 -106 -19 -197 l-9
-166 -21 -43 c-12 -24 -19 -35 -15 -24 3 11 12 51 20 90 l15 69 -1 156 c-1 85
-1 160 -1 167 1 6 8 18 16 26 l14 15 176 7 175 7 0 17 c0 45 -70 223 -129 330
-80 145 -177 262 -293 355 -122 98 -265 166 -425 202 l-68 16 -263 5 -263 6 3
-1089z m879 81 c45 -29 63 -65 54 -107 l-7 -28 -41 -34 c-23 -18 -53 -39 -67
-46 l-24 -13 27 32 27 33 0 64 c0 36 -4 74 -10 84 -5 10 -25 24 -44 30 l-35
11 -39 -11 c-22 -5 -43 -17 -46 -26 -10 -25 -7 -70 7 -100 21 -49 69 -114 83
-114 8 0 14 -8 15 -17 0 -19 8 -32 114 -178 l70 -96 21 4 21 4 -4 -22 -5 -21
48 -57 48 -57 31 -2 c16 -1 -13 -4 -65 -7 l-95 -6 -19 23 -19 24 -24 -5 -25
-5 11 11 c16 16 13 30 -12 57 -27 30 -165 213 -189 252 -10 16 -25 28 -33 28
-8 0 -15 7 -15 16 0 8 -16 49 -36 90 l-35 74 19 43 c33 73 104 110 201 102
l53 -4 39 -26z m-305 -339 l-36 -33 0 -55 0 -55 26 -49 c34 -64 69 -111 100
-131 14 -8 50 -19 82 -22 l57 -7 -40 -12 c-22 -7 -67 -12 -101 -12 l-60 0 -53
26 -53 27 -29 45 -29 46 0 48 0 49 19 37 c22 43 73 94 116 116 17 9 31 16 33
16 2 0 -13 -15 -32 -34z" />
    <path d="M7434 8172 l-1 -157 -22 -104 c-12 -58 -27 -125 -35 -150 -38 -127
-107 -268 -178 -363 -66 -90 -185 -200 -270 -249 -132 -77 -255 -119 -417
-143 l-86 -12 0 -295 0 -294 14 -55 c19 -76 55 -144 100 -189 82 -82 176 -117
341 -127 l95 -6 95 11 c133 17 202 36 300 84 l85 42 96 95 96 95 46 72 c25 39
60 100 78 135 51 100 98 251 121 382 l20 121 -5 205 -4 205 -21 95 c-42 191
-111 359 -208 506 -57 86 -207 254 -228 254 l-11 0 -1 -158z" />
    <path d="M3450 4990 l0 -352 228 4 227 3 42 24 c50 29 88 80 110 148 l15 48 1
135 1 135 -13 43 -12 44 -39 42 -39 42 -38 13 -38 13 -222 5 -223 5 0 -352z" />
    <path d="M5077 4679 c-50 -15 -93 -56 -106 -105 -6 -21 -11 -83 -11 -136 l0
-98 189 0 189 0 7 66 c10 87 1 167 -22 207 -10 17 -33 40 -51 50 l-33 19 -62
4 c-34 2 -79 -2 -100 -7z" />
    <path d="M6899 4676 c-55 -20 -95 -52 -115 -93 l-18 -38 -9 -159 -10 -159 10
-166 10 -166 16 -31 c22 -43 80 -91 124 -103 53 -15 121 -14 179 4 l50 15 26
27 c15 16 35 46 45 68 l17 40 4 263 4 263 -12 65 c-17 101 -51 143 -134 169
-60 18 -138 19 -187 1z" />
    <path d="M8899 4681 c-48 -16 -69 -32 -94 -71 l-25 -40 0 -115 0 -115 184 0
185 0 7 22 c3 12 7 60 7 107 l1 86 -22 45 -22 45 -31 19 -32 19 -66 3 c-36 2
-78 0 -92 -5z" />
  </g>
  <g transform="translate(0.000000,1224.000000) scale(0.100000,-0.100000)" fill="#000000" stroke="none">
    <path d="M6348 11259 c-21 -10 -44 -33 -53 -49 -8 -16 -15 -51 -15 -78 l0 -49
23 -33 22 -33 41 -15 41 -15 36 7 37 7 35 30 34 30 6 30 7 31 136 -7 c450 -20
738 -62 1116 -161 480 -126 888 -299 1336 -567 90 -53 288 -189 410 -281 194
-145 322 -257 515 -450 204 -204 348 -370 508 -586 59 -79 201 -293 248 -373
19 -32 49 -84 67 -115 52 -90 227 -447 273 -557 59 -144 152 -417 198 -585 79
-289 138 -647 160 -968 14 -194 14 -506 1 -687 -12 -158 -47 -452 -60 -505 -5
-19 -21 -96 -35 -170 -59 -303 -192 -722 -313 -985 -122 -267 -250 -505 -377
-701 -66 -101 -221 -322 -234 -334 -4 -3 -33 -39 -66 -80 -121 -151 -166 -202
-344 -383 -153 -156 -363 -345 -484 -435 -40 -30 -81 -62 -93 -72 -20 -16
-257 -177 -334 -226 -208 -132 -422 -244 -695 -362 -468 -203 -1062 -346
-1590 -383 l-169 -12 -301 6 c-299 5 -414 14 -595 42 -325 52 -497 90 -764
171 -139 42 -389 132 -480 174 -23 10 -68 29 -101 43 -205 86 -526 264 -737
408 -31 22 -58 39 -61 39 -3 0 -7 -6 -10 -14 l-6 -14 93 -70 c105 -80 336
-237 443 -300 82 -48 322 -171 433 -221 228 -104 557 -221 815 -290 149 -41
433 -96 585 -115 201 -25 503 -46 670 -46 233 0 649 35 835 70 128 24 381 81
490 109 151 41 446 139 590 198 119 48 483 224 568 275 29 17 79 46 112 66 48
29 243 156 372 243 51 34 221 168 317 249 210 177 443 410 630 630 28 33 187
238 209 270 85 121 238 360 302 470 162 278 334 662 431 959 160 492 254 1086
254 1611 0 296 -35 659 -91 955 -92 482 -243 922 -467 1365 -104 203 -191 353
-297 510 -88 130 -225 317 -271 370 -12 14 -66 77 -120 140 -135 156 -361 385
-491 497 -60 51 -121 104 -138 118 -127 109 -487 356 -680 466 -325 185 -643
322 -995 429 -178 55 -447 118 -610 145 -85 14 -180 29 -210 35 -30 5 -111 15
-180 22 l-125 12 -298 1 -297 0 -6 20 c-15 48 -86 96 -143 95 -14 -1 -43 -10
-63 -21z" />
    <path d="M4670 9577 l0 -26 38 -6 c94 -16 136 -26 173 -45 98 -51 159 -139
178 -261 l11 -64 0 -895 0 -895 -10 -63 c-6 -34 -22 -87 -36 -117 l-26 -54
-43 -40 c-24 -22 -62 -49 -84 -61 -23 -11 -77 -26 -121 -32 l-80 -11 0 -24 0
-23 666 0 666 0 -5 -307 -5 -308 -14 -50 c-22 -73 -45 -112 -94 -161 l-45 -43
-52 -19 c-29 -11 -75 -23 -102 -27 -28 -4 -58 -9 -67 -12 l-18 -4 0 -20 0 -20
858 4 857 3 105 17 c282 45 467 133 628 296 153 156 266 393 308 649 l16 97 0
155 0 155 -17 105 c-19 116 -62 261 -106 358 -16 35 -29 65 -29 67 0 9 -96
164 -132 213 -58 78 -190 208 -268 264 -88 62 -226 132 -330 167 l-84 29 -42
119 c-47 137 -86 217 -159 328 -81 124 -146 194 -290 313 -43 36 -153 102
-225 136 -95 44 -259 91 -386 112 l-99 16 -767 5 -768 6 0 -26z m1403 -71
c359 -81 638 -331 789 -706 28 -70 58 -157 58 -171 0 -4 -79 -10 -175 -14
l-176 -7 -14 -15 c-8 -8 -15 -17 -15 -21 -1 -4 -2 -95 -3 -202 l-3 -195 -24
-70 c-14 -38 -30 -70 -37 -70 -15 0 -201 252 -191 259 2 2 17 8 33 15 17 6 50
28 73 49 l43 37 5 35 c8 49 -9 85 -54 115 l-39 26 -50 6 -51 6 -51 -13 -52
-12 -33 -32 -34 -31 -12 -41 -12 -42 36 -75 c20 -42 36 -78 36 -80 0 -3 -18
-12 -40 -21 -51 -20 -116 -79 -141 -127 l-19 -38 0 -59 0 -58 29 -46 29 -46
56 -27 56 -27 88 4 88 4 69 38 69 38 21 -25 22 -24 111 6 c61 4 114 10 118 13
3 4 3 11 0 16 l-6 10 -38 -5 -37 -4 -41 48 c-22 26 -43 53 -47 59 -4 7 7 42
24 78 l31 66 9 167 c5 92 13 181 19 198 l11 32 25 12 25 11 98 0 c54 0 119 -3
145 -6 l46 -7 10 -36 c5 -20 14 -96 21 -169 l11 -132 -11 -125 c-19 -213 -74
-410 -159 -565 -82 -150 -210 -298 -314 -364 -31 -20 -60 -36 -63 -36 -3 0 -5
155 -5 345 l0 346 -19 -10 c-10 -6 -40 -15 -66 -21 l-48 -11 -116 15 c-64 9
-131 19 -149 22 l-32 7 0 -392 0 -391 -55 0 c-69 0 -144 16 -210 46 -100 44
-166 121 -206 239 l-24 70 -3 1079 -3 1079 253 -6 253 -5 68 -16z m208 -966
c5 0 18 -9 29 -20 l20 -20 0 -59 0 -59 -26 -31 c-14 -17 -31 -31 -38 -31 -16
0 -70 77 -86 122 l-13 35 7 26 6 26 33 10 c17 5 38 7 45 5 8 -2 18 -4 23 -4z
m1383 -473 c97 -148 166 -316 208 -507 l21 -95 4 -195 5 -195 -20 -121 c-23
-131 -70 -282 -121 -382 -18 -35 -53 -96 -78 -135 l-46 -72 -96 -95 -96 -95
-85 -42 c-98 -48 -167 -67 -300 -84 l-95 -11 -86 6 c-48 4 -113 13 -145 22
-147 38 -247 141 -285 294 l-13 55 -1 284 0 285 86 12 c162 24 285 66 417 143
85 49 204 159 270 249 71 95 140 236 178 363 8 25 23 92 35 150 l22 104 1 158
1 159 81 -85 c45 -47 107 -124 138 -170z m-1496 135 c24 -39 162 -222 189
-251 l22 -25 -11 -14 c-19 -23 -85 -52 -118 -52 -72 0 -131 49 -184 153 l-26
52 0 38 c0 21 5 47 10 57 10 19 77 70 92 70 5 0 16 -12 26 -28z" />
    <path d="M6025 5400 c-38 -4 -121 -8 -182 -9 l-113 -1 0 -30 0 -30 90 0 90 0
0 -765 0 -765 -90 0 -90 0 0 -35 0 -35 300 0 300 0 0 35 0 35 -90 0 -90 0 0
805 0 805 -27 -2 c-16 0 -59 -4 -98 -8z" />
    <path d="M2900 5360 l0 -30 130 0 130 0 0 -765 0 -765 -130 0 -130 0 0 -35 0
-35 410 0 410 0 0 35 0 35 -130 0 -130 0 0 390 0 390 133 0 132 0 55 -13 c30
-8 74 -25 97 -40 l42 -27 25 -42 c13 -24 31 -67 40 -97 l16 -55 0 -162 0 -162
15 -38 c9 -22 23 -52 32 -69 24 -44 83 -104 125 -126 21 -11 71 -24 113 -31
l75 -12 83 11 c45 7 94 16 110 22 l27 11 0 28 0 29 -77 -5 -78 -4 -29 23 c-16
12 -35 38 -43 57 l-14 34 -9 151 -9 152 -16 55 c-45 150 -162 251 -360 311
l-90 27 40 7 c105 18 207 50 281 86 l82 39 51 56 51 55 16 56 16 56 -4 73 -5
73 -29 56 -28 57 -53 48 c-29 26 -73 58 -97 70 -25 12 -81 28 -123 35 l-78 14
-537 1 -538 0 0 -30z m1023 -51 l38 -13 39 -42 39 -42 12 -44 13 -43 -1 -125
-1 -125 -15 -48 c-21 -68 -60 -119 -110 -148 l-42 -24 -217 -3 -218 -4 0 342
0 342 213 -5 212 -5 38 -13z" />
    <path d="M7979 5320 l-36 -19 -17 -35 c-9 -19 -16 -48 -16 -66 0 -45 28 -98
61 -115 15 -8 50 -15 78 -15 l49 0 31 25 c16 14 35 42 41 61 l12 35 -7 37
c-11 60 -73 112 -132 112 -15 -1 -44 -9 -64 -20z" />
    <path d="M5080 4729 c-84 -16 -152 -53 -228 -124 -86 -80 -136 -178 -154 -305
l-11 -80 11 -80 c6 -44 22 -104 34 -133 26 -63 82 -140 132 -184 86 -75 210
-123 321 -123 109 0 227 50 304 130 33 35 92 149 105 203 l6 27 -27 0 -28 0
-33 -73 c-52 -116 -123 -182 -226 -212 l-60 -17 -58 5 c-32 3 -75 14 -95 24
l-38 20 -22 44 -23 44 -10 95 c-5 52 -10 141 -10 198 l0 102 316 0 317 0 -6
53 c-9 72 -40 158 -76 211 -40 57 -114 122 -167 145 -86 38 -179 48 -274 30z
m183 -76 c62 -36 86 -114 72 -237 l-7 -66 -179 0 -179 0 0 88 c0 48 5 105 11
126 13 49 56 90 106 105 21 5 62 8 91 6 l53 -4 32 -18z" />
    <path d="M6890 4729 c-153 -29 -284 -129 -354 -270 l-34 -68 -12 -73 -13 -72
6 -71 c4 -38 13 -93 22 -121 19 -65 79 -158 141 -217 58 -56 167 -113 243
-127 123 -23 254 -1 355 60 71 43 180 157 208 219 31 68 58 179 58 241 0 65
-21 157 -49 220 -44 98 -139 193 -240 241 -91 43 -226 58 -331 38z m186 -64
c84 -26 117 -68 135 -169 l11 -66 -4 -252 -4 -253 -17 -40 c-10 -22 -30 -52
-45 -68 l-26 -27 -50 -15 c-92 -28 -173 -15 -232 37 -19 17 -42 45 -51 62
l-16 30 -10 162 -10 161 10 154 10 154 18 38 c9 20 31 47 48 59 67 48 147 59
233 33z" />
    <path d="M8876 4725 c-85 -22 -155 -66 -227 -142 l-62 -67 -35 -76 -36 -75 -4
-116 -4 -116 17 -58 c25 -86 57 -145 116 -209 61 -67 132 -115 209 -142 l55
-19 100 0 100 0 68 33 69 32 56 58 57 58 28 72 c15 39 27 78 27 87 l0 15 -25
0 -24 0 -35 -74 -34 -75 -46 -49 -47 -50 -50 -21 c-27 -12 -78 -24 -112 -28
l-62 -5 -42 11 c-23 6 -56 23 -72 37 l-31 26 -16 51 c-19 61 -37 291 -28 360
l6 47 310 0 311 0 -6 64 c-11 121 -69 226 -162 297 -29 22 -78 50 -107 61
l-53 20 -75 4 -75 4 -59 -15z m203 -71 l31 -19 22 -44 21 -44 0 -78 c-1 -43
-4 -87 -8 -98 l-6 -21 -175 0 -174 0 0 105 0 105 25 40 c38 60 88 82 177 76
l56 -4 31 -18z" />
    <path d="M9857 4730 c-91 -23 -175 -89 -208 -164 -11 -27 -23 -74 -26 -106
l-5 -56 15 -55 16 -55 36 -41 36 -42 63 -31 64 -32 104 -18 c157 -27 237 -48
269 -71 l28 -20 10 -37 10 -37 -9 -39 -8 -39 -39 -39 c-21 -22 -56 -49 -78
-61 l-40 -21 -80 0 -80 -1 -47 22 c-26 12 -67 42 -91 67 -44 45 -104 149 -127
219 l-12 37 -24 0 -24 0 0 -185 0 -185 21 0 c12 0 42 16 66 36 l43 36 57 -38
c31 -21 75 -44 97 -52 62 -21 135 -26 198 -13 l57 12 53 35 c63 42 116 110
134 172 18 57 17 176 0 225 -21 58 -66 117 -111 145 -63 40 -126 60 -253 81
-125 21 -195 42 -224 68 -10 8 -20 31 -24 50 l-6 33 12 31 c7 16 31 45 52 64
l40 33 50 12 50 13 57 -7 c31 -4 74 -16 97 -26 51 -25 101 -86 124 -153 l18
-52 26 -3 26 -3 0 140 0 141 -19 0 -19 0 -21 -35 c-11 -19 -24 -35 -29 -35 -5
0 -17 9 -26 19 -10 11 -40 29 -68 41 l-51 22 -71 4 c-39 2 -88 -1 -109 -6z" />
    <path d="M8115 4718 c-27 -3 -132 -7 -232 -7 l-183 -1 0 -35 0 -35 115 0 115
0 0 -512 c-1 -554 -10 -792 -33 -878 l-15 -55 -31 -27 -31 -28 -33 0 c-18 0
-38 5 -44 11 l-11 11 19 56 c11 31 17 64 13 74 -3 10 -15 28 -27 38 l-21 20
-47 0 -47 0 -30 -25 c-17 -14 -33 -39 -37 -55 l-7 -30 12 -35 11 -35 41 -34
40 -34 50 -12 50 -13 50 6 c66 8 130 42 189 100 82 80 129 179 156 322 l15 80
5 530 c2 292 3 548 1 570 l-3 40 -50 -7z" />
  </g>
  <g transform="translate(0.000000,1224.000000) scale(0.100000,-0.100000)" fill="#7f7f7f" stroke="none">
    <path d="M6628 11163 c6 -2 18 -2 25 0 6 3 1 5 -13 5 -14 0 -19 -2 -12 -5z" />
    <path d="M7038 11163 c7 -3 16 -2 19 1 4 3 -2 6 -13 5 l-19 -1 13 -5z" />
    <path d="M7318 11143 c7 -3 16 -2 19 1 4 3 -2 6 -13 5 l-19 -1 13 -5z" />
    <path d="M7408 11133 c7 -3 16 -2 19 1 4 3 -2 6 -13 5 l-19 -1 13 -5z" />
    <path d="M6708 11113 c6 -2 18 -2 25 0 6 3 1 5 -13 5 -14 0 -19 -2 -12 -5z" />
    <path d="M7533 11113 c4 -3 10 -3 14 0 3 4 0 7 -7 7 -7 0 -10 -3 -7 -7z" />
    <path d="M6908 11103 c7 -3 16 -2 19 1 4 3 -2 6 -13 5 l-19 -1 13 -5z" />
    <path d="M7038 11093 c7 -3 16 -2 19 1 4 3 -2 6 -13 5 l-19 -1 13 -5z" />
    <path d="M7218 11073 c7 -3 16 -2 19 1 4 3 -2 6 -13 5 l-19 -1 13 -5z" />
    <path d="M7773 11073 c4 -3 10 -3 14 0 3 4 0 7 -7 7 -7 0 -10 -3 -7 -7z" />
    <path d="M7363 11053 c4 -3 10 -3 14 0 3 4 0 7 -7 7 -7 0 -10 -3 -7 -7z" />
    <path d="M6208 9583 c7 -3 16 -2 19 1 4 3 -2 6 -13 5 l-19 -1 13 -5z" />
    <path d="M4708 9543 c7 -3 16 -2 19 1 4 3 -2 6 -13 5 l-19 -1 13 -5z" />
    <path d="M6785 9410 c3 -5 8 -10 11 -10 3 0 2 5 -1 10 -3 6 -8 10 -11 10 -3 0
-2 -4 1 -10z" />
    <path d="M6915 9320 c3 -5 8 -10 11 -10 3 0 2 5 -1 10 -3 6 -8 10 -11 10 -3 0
-2 -4 1 -10z" />
    <path d="M10730 9256 c0 -2 8 -10 18 -17 l17 -14 -14 18 c-13 16 -21 21 -21
13z" />
    <path d="M5075 8280 c0 -415 1 -585 2 -377 2 207 2 547 0 755 -1 207 -2 37 -2
-378z" />
    <path d="M6815 8900 c3 -5 8 -10 11 -10 3 0 2 5 -1 10 -3 6 -8 10 -11 10 -3 0
-2 -4 1 -10z" />
    <path d="M11125 8680 c3 -5 8 -10 11 -10 3 0 2 5 -1 10 -3 6 -8 10 -11 10 -3
0 -2 -4 1 -10z" />
    <path d="M6758 8613 c6 -2 18 -2 25 0 6 3 1 5 -13 5 -14 0 -19 -2 -12 -5z" />
    <path d="M6213 8573 c4 -3 10 -3 14 0 3 4 0 7 -7 7 -7 0 -10 -3 -7 -7z" />
    <path d="M6160 8490 c0 -7 3 -10 7 -7 3 4 3 10 0 14 -4 3 -7 0 -7 -7z" />
    <path d="M6331 8454 l1 -19 5 13 c3 7 2 16 -1 19 -3 4 -6 -2 -5 -13z" />
    <path d="M6051 8424 l1 -19 5 13 c3 7 2 16 -1 19 -3 4 -6 -2 -5 -13z" />
    <path d="M6331 8414 l1 -19 5 13 c3 7 2 16 -1 19 -3 4 -6 -2 -5 -13z" />
    <path d="M6344 8328 l-7 -11 11 7 c12 7 16 16 8 16 -3 0 -8 -5 -12 -12z" />
    <path d="M6971 8304 l1 -19 5 13 c3 7 2 16 -1 19 -3 4 -6 -2 -5 -13z" />
    <path d="M7910 8296 c0 -2 8 -10 18 -17 l17 -14 -14 18 c-13 16 -21 21 -21 13z" />
    <path d="M7441 8264 l1 -19 5 13 c3 7 2 16 -1 19 -3 4 -6 -2 -5 -13z" />
    <path d="M6561 8194 l1 -19 5 13 c3 7 2 16 -1 19 -3 4 -6 -2 -5 -13z" />
    <path d="M6004 8188 l-7 -11 11 7 c12 7 16 16 8 16 -3 0 -8 -5 -12 -12z" />
    <path d="M6032 8110 c0 -14 2 -19 5 -12 2 6 2 18 0 25 -3 6 -5 1 -5 -13z" />
    <path d="M7442 8100 c0 -14 2 -19 5 -12 2 6 2 18 0 25 -3 6 -5 1 -5 -13z" />
    <path d="M6971 8094 l1 -19 5 13 c3 7 2 16 -1 19 -3 4 -6 -2 -5 -13z" />
    <path d="M6961 7984 l1 -19 5 13 c3 7 2 16 -1 19 -3 4 -6 -2 -5 -13z" />
    <path d="M7431 7984 l1 -19 5 13 c3 7 2 16 -1 19 -3 4 -6 -2 -5 -13z" />
    <path d="M6384 7888 l-7 -11 11 7 c7 4 12 9 12 12 0 8 -9 4 -16 -8z" />
    <path d="M6670 7870 c0 -7 3 -10 7 -7 3 4 3 10 0 14 -4 3 -7 0 -7 -7z" />
    <path d="M6628 7853 c7 -3 16 -2 19 1 4 3 -2 6 -13 5 l-19 -1 13 -5z" />
    <path d="M6448 7843 c7 -3 16 -2 19 1 4 3 -2 6 -13 5 l-19 -1 13 -5z" />
    <path d="M5998 7405 c-2 -217 0 -395 5 -395 4 0 7 178 7 395 0 217 -2 395 -5
395 -2 0 -6 -178 -7 -395z" />
    <path d="M6238 7763 c7 -3 16 -2 19 1 4 3 -2 6 -13 5 l-19 -1 13 -5z" />
    <path d="M6814 7518 l-7 -11 11 7 c7 4 12 9 12 12 0 8 -9 4 -16 -8z" />
    <path d="M8361 7384 l1 -19 5 13 c3 7 2 16 -1 19 -3 4 -6 -2 -5 -13z" />
    <path d="M6684 7318 l-7 -11 11 7 c12 7 16 16 8 16 -3 0 -8 -5 -12 -12z" />
    <path d="M7903 7220 c0 -36 2 -50 4 -32 2 17 2 47 0 65 -2 17 -4 3 -4 -33z" />
    <path d="M7049 7223 l-14 -18 18 14 c16 13 21 21 13 21 -2 0 -10 -8 -17 -17z" />
    <path d="M4733 7013 c4 -3 10 -3 14 0 3 4 0 7 -7 7 -7 0 -10 -3 -7 -7z" />
    <path d="M5948 7013 c6 -2 18 -2 25 0 6 3 1 5 -13 5 -14 0 -19 -2 -12 -5z" />
    <path d="M6004 6740 c0 -124 2 -174 3 -112 2 61 2 163 0 225 -1 61 -3 11 -3
-113z" />
    <path d="M11480 6900 c0 -7 3 -10 7 -7 3 4 3 10 0 14 -4 3 -7 0 -7 -7z" />
    <path d="M11490 6830 c0 -7 3 -10 7 -7 3 4 3 10 0 14 -4 3 -7 0 -7 -7z" />
    <path d="M11501 6754 l1 -19 5 13 c3 7 2 16 -1 19 -3 4 -6 -2 -5 -13z" />
    <path d="M11780 6760 c0 -7 3 -10 7 -7 3 4 3 10 0 14 -4 3 -7 0 -7 -7z" />
    <path d="M11791 6674 l1 -19 5 13 c3 7 2 16 -1 19 -3 4 -6 -2 -5 -13z" />
    <path d="M11511 6664 l1 -19 5 13 c3 7 2 16 -1 19 -3 4 -6 -2 -5 -13z" />
    <path d="M11521 6554 l1 -19 5 13 c3 7 2 16 -1 19 -3 4 -6 -2 -5 -13z" />
    <path d="M6431 6454 l1 -19 5 13 c3 7 2 16 -1 19 -3 4 -6 -2 -5 -13z" />
    <path d="M11811 6434 l1 -19 5 13 c3 7 2 16 -1 19 -3 4 -6 -2 -5 -13z" />
    <path d="M5991 6404 l1 -19 5 13 c3 7 2 16 -1 19 -3 4 -6 -2 -5 -13z" />
    <path d="M11531 6404 l1 -19 5 13 c3 7 2 16 -1 19 -3 4 -6 -2 -5 -13z" />
    <path d="M11822 6300 c0 -14 2 -19 5 -12 2 6 2 18 0 25 -3 6 -5 1 -5 -13z" />
    <path d="M11542 6220 c0 -19 2 -27 5 -17 2 9 2 25 0 35 -3 9 -5 1 -5 -18z" />
    <path d="M6575 6140 c3 -5 8 -10 11 -10 3 0 2 5 -1 10 -3 6 -8 10 -11 10 -3 0
-2 -4 1 -10z" />
    <path d="M11542 6030 c0 -19 2 -27 5 -17 2 9 2 25 0 35 -3 9 -5 1 -5 -18z" />
    <path d="M7028 6043 c7 -3 16 -2 19 1 4 3 -2 6 -13 5 l-19 -1 13 -5z" />
    <path d="M7208 5993 c7 -3 16 -2 19 1 4 3 -2 6 -13 5 l-19 -1 13 -5z" />
    <path d="M11822 5900 c0 -14 2 -19 5 -12 2 6 2 18 0 25 -3 6 -5 1 -5 -13z" />
    <path d="M11531 5844 l1 -19 5 13 c3 7 2 16 -1 19 -3 4 -6 -2 -5 -13z" />
    <path d="M11812 5760 c0 -14 2 -19 5 -12 2 6 2 18 0 25 -3 6 -5 1 -5 -13z" />
    <path d="M11521 5704 l1 -19 5 13 c3 7 2 16 -1 19 -3 4 -6 -2 -5 -13z" />
    <path d="M11801 5624 l1 -19 5 13 c3 7 2 16 -1 19 -3 4 -6 -2 -5 -13z" />
    <path d="M11511 5594 l1 -19 5 13 c3 7 2 16 -1 19 -3 4 -6 -2 -5 -13z" />
    <path d="M11780 5430 c0 -7 3 -10 7 -7 3 4 3 10 0 14 -4 3 -7 0 -7 -7z" />
    <path d="M6093 5403 c4 -3 10 -3 14 0 3 4 0 7 -7 7 -7 0 -10 -3 -7 -7z" />
    <path d="M5998 5393 c6 -2 18 -2 25 0 6 3 1 5 -13 5 -14 0 -19 -2 -12 -5z" />
    <path d="M11770 5360 c0 -7 3 -10 7 -7 3 4 3 10 0 14 -4 3 -7 0 -7 -7z" />
    <path d="M4185 5330 c3 -5 8 -10 11 -10 3 0 2 5 -1 10 -3 6 -8 10 -11 10 -3 0
-2 -4 1 -10z" />
    <path d="M3828 5323 c7 -3 16 -2 19 1 4 3 -2 6 -13 5 l-19 -1 13 -5z" />
    <path d="M4245 5290 c3 -5 8 -10 11 -10 3 0 2 5 -1 10 -3 6 -8 10 -11 10 -3 0
-2 -4 1 -10z" />
    <path d="M11460 5260 c0 -7 3 -10 7 -7 3 4 3 10 0 14 -4 3 -7 0 -7 -7z" />
    <path d="M8144 5118 l-7 -11 11 7 c12 7 16 16 8 16 -3 0 -8 -5 -12 -12z" />
    <path d="M4061 4934 l1 -19 5 13 c3 7 2 16 -1 19 -3 4 -6 -2 -5 -13z" />
    <path d="M4004 4738 l-7 -11 11 7 c12 7 16 16 8 16 -3 0 -8 -5 -12 -12z" />
    <path d="M5208 4733 c7 -3 16 -2 19 1 4 3 -2 6 -13 5 l-19 -1 13 -5z" />
    <path d="M6938 4733 c7 -3 16 -2 19 1 4 3 -2 6 -13 5 l-19 -1 13 -5z" />
    <path d="M7038 4733 c7 -3 16 -2 19 1 4 3 -2 6 -13 5 l-19 -1 13 -5z" />
    <path d="M8938 4733 c7 -3 16 -2 19 1 4 3 -2 6 -13 5 l-19 -1 13 -5z" />
    <path d="M9028 4733 c7 -3 16 -2 19 1 4 3 -2 6 -13 5 l-19 -1 13 -5z" />
    <path d="M9898 4733 c7 -3 16 -2 19 1 4 3 -2 6 -13 5 l-19 -1 13 -5z" />
    <path d="M9978 4733 c7 -3 16 -2 19 1 4 3 -2 6 -13 5 l-19 -1 13 -5z" />
    <path d="M8083 4713 c4 -3 10 -3 14 0 3 4 0 7 -7 7 -7 0 -10 -3 -7 -7z" />
    <path d="M7235 4680 c3 -5 8 -10 11 -10 3 0 2 5 -1 10 -3 6 -8 10 -11 10 -3 0
-2 -4 1 -10z" />
    <path d="M3863 4653 c4 -3 10 -3 14 0 3 4 0 7 -7 7 -7 0 -10 -3 -7 -7z" />
    <path d="M3738 4643 c6 -2 18 -2 25 0 6 3 1 5 -13 5 -14 0 -19 -2 -12 -5z" />
    <path d="M4879 4633 l-14 -18 18 14 c16 13 21 21 13 21 -2 0 -10 -8 -17 -17z" />
    <path d="M10145 4590 c3 -5 8 -10 11 -10 3 0 2 5 -1 10 -3 6 -8 10 -11 10 -3
0 -2 -4 1 -10z" />
    <path d="M4799 4553 l-14 -18 18 14 c16 13 21 21 13 21 -2 0 -10 -8 -17 -17z" />
    <path d="M4045 4540 c3 -5 8 -10 11 -10 3 0 2 5 -1 10 -3 6 -8 10 -11 10 -3 0
-2 -4 1 -10z" />
    <path d="M9345 4530 c3 -5 8 -10 11 -10 3 0 2 5 -1 10 -3 6 -8 10 -11 10 -3 0
-2 -4 1 -10z" />
    <path d="M8784 4440 c0 -52 1 -74 3 -47 2 26 2 68 0 95 -2 26 -3 4 -3 -48z" />
    <path d="M4754 4488 l-7 -11 11 7 c7 4 12 9 12 12 0 8 -9 4 -16 -8z" />
    <path d="M7211 4484 l1 -19 5 13 c3 7 2 16 -1 19 -3 4 -6 -2 -5 -13z" />
    <path d="M9151 4434 l1 -19 5 13 c3 7 2 16 -1 19 -3 4 -6 -2 -5 -13z" />
    <path d="M6762 4400 c0 -14 2 -19 5 -12 2 6 2 18 0 25 -3 6 -5 1 -5 -13z" />
    <path d="M9983 4373 c4 -3 10 -3 14 0 3 4 0 7 -7 7 -7 0 -10 -3 -7 -7z" />
    <path d="M5591 4344 l1 -19 5 13 c3 7 2 16 -1 19 -3 4 -6 -2 -5 -13z" />
    <path d="M7501 4284 l1 -19 5 13 c3 7 2 16 -1 19 -3 4 -6 -2 -5 -13z" />
    <path d="M6480 4280 c0 -7 3 -10 7 -7 3 4 3 10 0 14 -4 3 -7 0 -7 -7z" />
    <path d="M4692 4260 c0 -14 2 -19 5 -12 2 6 2 18 0 25 -3 6 -5 1 -5 -13z" />
    <path d="M4691 4184 l1 -19 5 13 c3 7 2 16 -1 19 -3 4 -6 -2 -5 -13z" />
    <path d="M7501 4174 l1 -19 5 13 c3 7 2 16 -1 19 -3 4 -6 -2 -5 -13z" />
    <path d="M9983 4123 c4 -3 10 -3 14 0 3 4 0 7 -7 7 -7 0 -10 -3 -7 -7z" />
    <path d="M8782 4090 c0 -14 2 -19 5 -12 2 6 2 18 0 25 -3 6 -5 1 -5 -13z" />
    <path d="M6762 4050 c0 -14 2 -19 5 -12 2 6 2 18 0 25 -3 6 -5 1 -5 -13z" />
    <path d="M4971 4024 l1 -19 5 13 c3 7 2 16 -1 19 -3 4 -6 -2 -5 -13z" />
    <path d="M10340 3970 c0 -7 3 -10 7 -7 3 4 3 10 0 14 -4 3 -7 0 -7 -7z" />
    <path d="M4331 3954 l1 -19 5 13 c3 7 2 16 -1 19 -3 4 -6 -2 -5 -13z" />
    <path d="M10260 3940 c0 -7 3 -10 7 -7 3 4 3 10 0 14 -4 3 -7 0 -7 -7z" />
    <path d="M9309 3843 l-14 -18 18 14 c16 13 21 21 13 21 -2 0 -10 -8 -17 -17z" />
    <path d="M4448 3793 c7 -3 16 -2 19 1 4 3 -2 6 -13 5 l-19 -1 13 -5z" />
    <path d="M8933 3763 c4 -3 10 -3 14 0 3 4 0 7 -7 7 -7 0 -10 -3 -7 -7z" />
    <path d="M8162 3730 c0 -14 2 -19 5 -12 2 6 2 18 0 25 -3 6 -5 1 -5 -13z" />
    <path d="M4308 3713 c7 -3 16 -2 19 1 4 3 -2 6 -13 5 l-19 -1 13 -5z" />
    <path d="M4408 3713 c7 -3 16 -2 19 1 4 3 -2 6 -13 5 l-19 -1 13 -5z" />
    <path d="M5128 3703 c7 -3 16 -2 19 1 4 3 -2 6 -13 5 l-19 -1 13 -5z" />
    <path d="M5228 3703 c7 -3 16 -2 19 1 4 3 -2 6 -13 5 l-19 -1 13 -5z" />
    <path d="M7038 3703 c7 -3 16 -2 19 1 4 3 -2 6 -13 5 l-19 -1 13 -5z" />
    <path d="M10053 3703 c4 -3 10 -3 14 0 3 4 0 7 -7 7 -7 0 -10 -3 -7 -7z" />
    <path d="M7922 3495 l0 -30 5 18 c2 9 2 23 0 30 -3 6 -5 -1 -5 -18z" />
    <path d="M7761 3274 l1 -19 5 13 c3 7 2 16 -1 19 -3 4 -6 -2 -5 -13z" />
    <path d="M7550 3260 c0 -7 3 -10 7 -7 3 4 3 10 0 14 -4 3 -7 0 -7 -7z" />
    <path d="M7550 3230 c0 -7 3 -10 7 -7 3 4 3 10 0 14 -4 3 -7 0 -7 -7z" />
    <path d="M7728 3083 c7 -3 16 -2 19 1 4 3 -2 6 -13 5 l-19 -1 13 -5z" />
    <path d="M7798 3083 c7 -3 16 -2 19 1 4 3 -2 6 -13 5 l-19 -1 13 -5z" />
    <path d="M10479 2623 l-14 -18 18 14 c16 13 21 21 13 21 -2 0 -10 -8 -17 -17z" />
    <path d="M9849 2383 l-14 -18 18 14 c16 13 21 21 13 21 -2 0 -10 -8 -17 -17z" />
    <path d="M9919 2093 l-14 -18 18 14 c16 13 21 21 13 21 -2 0 -10 -8 -17 -17z" />
    <path d="M3815 1890 c3 -5 8 -10 11 -10 3 0 2 5 -1 10 -3 6 -8 10 -11 10 -3 0
-2 -4 1 -10z" />
    <path d="M8814 1678 l-7 -11 11 7 c7 4 12 9 12 12 0 8 -9 4 -16 -8z" />
    <path d="M5443 1253 c4 -3 10 -3 14 0 3 4 0 7 -7 7 -7 0 -10 -3 -7 -7z" />
    <path d="M7313 1193 c4 -3 10 -3 14 0 3 4 0 7 -7 7 -7 0 -10 -3 -7 -7z" />
    <path d="M7243 1183 c4 -3 10 -3 14 0 3 4 0 7 -7 7 -7 0 -10 -3 -7 -7z" />
    <path d="M5883 1173 c4 -3 10 -3 14 0 3 4 0 7 -7 7 -7 0 -10 -3 -7 -7z" />
    <path d="M7188 1173 c7 -3 16 -2 19 1 4 3 -2 6 -13 5 l-19 -1 13 -5z" />
    <path d="M6998 1153 c7 -3 16 -2 19 1 4 3 -2 6 -13 5 l-19 -1 13 -5z" />
    <path d="M6208 1143 c7 -3 16 -2 19 1 4 3 -2 6 -13 5 l-19 -1 13 -5z" />
    <path d="M6858 1143 c7 -3 16 -2 19 1 4 3 -2 6 -13 5 l-19 -1 13 -5z" />
    <path d="M6513 1133 c15 -2 37 -2 50 0 12 2 0 4 -28 4 -27 0 -38 -2 -22 -4z" />
    <path d="M5853 1023 c4 -3 10 -3 14 0 3 4 0 7 -7 7 -7 0 -10 -3 -7 -7z" />
    <path d="M6053 993 c4 -3 10 -3 14 0 3 4 0 7 -7 7 -7 0 -10 -3 -7 -7z" />
    <path d="M7368 993 c7 -3 16 -2 19 1 4 3 -2 6 -13 5 l-19 -1 13 -5z" />
    <path d="M6248 973 c7 -3 16 -2 19 1 4 3 -2 6 -13 5 l-19 -1 13 -5z" />
    <path d="M6388 963 c7 -3 16 -2 19 1 4 3 -2 6 -13 5 l-19 -1 13 -5z" />
    <path d="M7048 963 c7 -3 16 -2 19 1 4 3 -2 6 -13 5 l-19 -1 13 -5z" />
    <path d="M6533 953 c9 -2 23 -2 30 0 6 3 -1 5 -18 5 l-30 0 18 -5z" />
    <path d="M6883 953 c9 -2 23 -2 30 0 6 3 -1 5 -18 5 l-30 0 18 -5z" />
  </g>
  <g transform="translate(0.000000,1224.000000) scale(0.100000,-0.100000)" fill="#bfbfbf" stroke="none">
    <path d="M6535 11210 c3 -5 8 -10 11 -10 3 0 2 5 -1 10 -3 6 -8 10 -11 10 -3
0 -2 -4 1 -10z" />
    <path d="M6613 11163 c4 -3 10 -3 14 0 3 4 0 7 -7 7 -7 0 -10 -3 -7 -7z" />
    <path d="M7053 11163 c4 -3 10 -3 14 0 3 4 0 7 -7 7 -7 0 -10 -3 -7 -7z" />
    <path d="M6688 11113 c7 -3 16 -2 19 1 4 3 -2 6 -13 5 l-19 -1 13 -5z" />
    <path d="M7603 11103 c4 -3 10 -3 14 0 3 4 0 7 -7 7 -7 0 -10 -3 -7 -7z" />
    <path d="M7133 11083 c4 -3 10 -3 14 0 3 4 0 7 -7 7 -7 0 -10 -3 -7 -7z" />
    <path d="M7723 11083 c4 -3 10 -3 14 0 3 4 0 7 -7 7 -7 0 -10 -3 -7 -7z" />
    <path d="M7563 11013 c4 -3 10 -3 14 0 3 4 0 7 -7 7 -7 0 -10 -3 -7 -7z" />
    <path d="M9645 10040 c3 -5 8 -10 11 -10 3 0 2 5 -1 10 -3 6 -8 10 -11 10 -3
0 -2 -4 1 -10z" />
    <path d="M4988 9593 c178 -2 466 -2 640 0 174 1 29 2 -323 2 -352 0 -495 -1
-317 -2z" />
    <path d="M6293 9573 c4 -3 10 -3 14 0 3 4 0 7 -7 7 -7 0 -10 -3 -7 -7z" />
    <path d="M5923 9523 c4 -3 10 -3 14 0 3 4 0 7 -7 7 -7 0 -10 -3 -7 -7z" />
    <path d="M6123 9493 c4 -3 10 -3 14 0 3 4 0 7 -7 7 -7 0 -10 -3 -7 -7z" />
    <path d="M5060 9210 c0 -7 3 -10 7 -7 3 4 3 10 0 14 -4 3 -7 0 -7 -7z" />
    <path d="M10495 9180 c3 -5 8 -10 11 -10 3 0 2 5 -1 10 -3 6 -8 10 -11 10 -3
0 -2 -4 1 -10z" />
    <path d="M6900 8690 c0 -7 3 -10 7 -7 3 4 3 10 0 14 -4 3 -7 0 -7 -7z" />
    <path d="M6743 8613 c4 -3 10 -3 14 0 3 4 0 7 -7 7 -7 0 -10 -3 -7 -7z" />
    <path d="M6532 8540 c0 -14 2 -19 5 -12 2 6 2 18 0 25 -3 6 -5 1 -5 -13z" />
    <path d="M6223 8543 c4 -3 10 -3 14 0 3 4 0 7 -7 7 -7 0 -10 -3 -7 -7z" />
    <path d="M6883 8543 c4 -3 10 -3 14 0 3 4 0 7 -7 7 -7 0 -10 -3 -7 -7z" />
    <path d="M6580 8490 c0 -7 3 -10 7 -7 3 4 3 10 0 14 -4 3 -7 0 -7 -7z" />
    <path d="M6160 8480 c0 -7 3 -10 7 -7 3 4 3 10 0 14 -4 3 -7 0 -7 -7z" />
    <path d="M6331 8434 l1 -19 5 13 c3 7 2 16 -1 19 -3 4 -6 -2 -5 -13z" />
    <path d="M6050 8410 c0 -7 3 -10 7 -7 3 4 3 10 0 14 -4 3 -7 0 -7 -7z" />
    <path d="M7755 8410 c3 -5 8 -10 11 -10 3 0 2 5 -1 10 -3 6 -8 10 -11 10 -3 0
-2 -4 1 -10z" />
    <path d="M6970 8290 c0 -7 3 -10 7 -7 3 4 3 10 0 14 -4 3 -7 0 -7 -7z" />
    <path d="M7440 8280 c0 -7 3 -10 7 -7 3 4 3 10 0 14 -4 3 -7 0 -7 -7z" />
    <path d="M6120 8260 c0 -7 3 -10 7 -7 3 4 3 10 0 14 -4 3 -7 0 -7 -7z" />
    <path d="M6030 8110 c0 -7 3 -10 7 -7 3 4 3 10 0 14 -4 3 -7 0 -7 -7z" />
    <path d="M6970 8110 c0 -7 3 -10 7 -7 3 4 3 10 0 14 -4 3 -7 0 -7 -7z" />
    <path d="M8085 8100 c3 -5 8 -10 11 -10 3 0 2 5 -1 10 -3 6 -8 10 -11 10 -3 0
-2 -4 1 -10z" />
    <path d="M5965 7880 c3 -5 8 -10 11 -10 3 0 2 5 -1 10 -3 6 -8 10 -11 10 -3 0
-2 -4 1 -10z" />
    <path d="M6650 7886 c0 -2 7 -7 16 -10 l15 -6 -6 10 c-6 10 -25 14 -25 6z" />
    <path d="M6463 7843 c4 -3 10 -3 14 0 3 4 0 7 -7 7 -7 0 -10 -3 -7 -7z" />
    <path d="M7400 7830 c0 -7 3 -10 7 -7 3 4 3 10 0 14 -4 3 -7 0 -7 -7z" />
    <path d="M6153 7773 c4 -3 10 -3 14 0 3 4 0 7 -7 7 -7 0 -10 -3 -7 -7z" />
    <path d="M7870 7550 c0 -7 3 -10 7 -7 3 4 3 10 0 14 -4 3 -7 0 -7 -7z" />
    <path d="M5500 7430 c0 -7 3 -10 7 -7 3 4 3 10 0 14 -4 3 -7 0 -7 -7z" />
    <path d="M5060 7350 c0 -7 3 -10 7 -7 3 4 3 10 0 14 -4 3 -7 0 -7 -7z" />
    <path d="M5510 7350 c0 -7 3 -10 7 -7 3 4 3 10 0 14 -4 3 -7 0 -7 -7z" />
    <path d="M8373 7205 l0 -40 4 23 c2 12 2 30 0 40 -3 9 -5 -1 -4 -23z" />
    <path d="M5575 7190 c3 -5 8 -10 11 -10 3 0 2 5 -1 10 -3 6 -8 10 -11 10 -3 0
-2 -4 1 -10z" />
    <path d="M11440 7120 c0 -7 3 -10 7 -7 3 4 3 10 0 14 -4 3 -7 0 -7 -7z" />
    <path d="M8360 7030 c0 -7 3 -10 7 -7 3 4 3 10 0 14 -4 3 -7 0 -7 -7z" />
    <path d="M5853 7023 c4 -3 10 -3 14 0 3 4 0 7 -7 7 -7 0 -10 -3 -7 -7z" />
    <path d="M5978 7013 c6 -2 18 -2 25 0 6 3 1 5 -13 5 -14 0 -19 -2 -12 -5z" />
    <path d="M11460 7010 c0 -7 3 -10 7 -7 3 4 3 10 0 14 -4 3 -7 0 -7 -7z" />
    <path d="M11740 7010 c0 -7 3 -10 7 -7 3 4 3 10 0 14 -4 3 -7 0 -7 -7z" />
    <path d="M6563 7003 c4 -3 10 -3 14 0 3 4 0 7 -7 7 -7 0 -10 -3 -7 -7z" />
    <path d="M11760 6910 c0 -7 3 -10 7 -7 3 4 3 10 0 14 -4 3 -7 0 -7 -7z" />
    <path d="M11770 6840 c0 -7 3 -10 7 -7 3 4 3 10 0 14 -4 3 -7 0 -7 -7z" />
    <path d="M6430 6470 c0 -7 3 -10 7 -7 3 4 3 10 0 14 -4 3 -7 0 -7 -7z" />
    <path d="M11810 6450 c0 -7 3 -10 7 -7 3 4 3 10 0 14 -4 3 -7 0 -7 -7z" />
    <path d="M11530 6390 c0 -7 3 -10 7 -7 3 4 3 10 0 14 -4 3 -7 0 -7 -7z" />
    <path d="M6450 6330 c0 -7 3 -10 7 -7 3 4 3 10 0 14 -4 3 -7 0 -7 -7z" />
    <path d="M11821 6324 l1 -19 5 13 c3 7 2 16 -1 19 -3 4 -6 -2 -5 -13z" />
    <path d="M11543 6125 c0 -44 2 -61 4 -37 2 23 2 59 0 80 -2 20 -4 1 -4 -43z" />
    <path d="M5854 6108 l-7 -11 11 7 c12 7 16 16 8 16 -3 0 -8 -5 -12 -12z" />
    <path d="M7173 6063 c4 -3 10 -3 14 0 3 4 0 7 -7 7 -7 0 -10 -3 -7 -7z" />
    <path d="M6763 6053 c4 -3 10 -3 14 0 3 4 0 7 -7 7 -7 0 -10 -3 -7 -7z" />
    <path d="M11821 5874 l1 -19 5 13 c3 7 2 16 -1 19 -3 4 -6 -2 -5 -13z" />
    <path d="M11530 5860 c0 -7 3 -10 7 -7 3 4 3 10 0 14 -4 3 -7 0 -7 -7z" />
    <path d="M11790 5520 c0 -7 3 -10 7 -7 3 4 3 10 0 14 -4 3 -7 0 -7 -7z" />
    <path d="M11500 5510 c0 -7 3 -10 7 -7 3 4 3 10 0 14 -4 3 -7 0 -7 -7z" />
    <path d="M5978 5393 c7 -3 16 -2 19 1 4 3 -2 6 -13 5 l-19 -1 13 -5z" />
    <path d="M11480 5360 c0 -7 3 -10 7 -7 3 4 3 10 0 14 -4 3 -7 0 -7 -7z" />
    <path d="M11750 5220 c0 -7 3 -10 7 -7 3 4 3 10 0 14 -4 3 -7 0 -7 -7z" />
    <path d="M11450 5200 c0 -7 3 -10 7 -7 3 4 3 10 0 14 -4 3 -7 0 -7 -7z" />
    <path d="M11740 5180 c0 -7 3 -10 7 -7 3 4 3 10 0 14 -4 3 -7 0 -7 -7z" />
    <path d="M4060 5080 c0 -7 3 -10 7 -7 3 4 3 10 0 14 -4 3 -7 0 -7 -7z" />
    <path d="M11720 5070 c0 -7 3 -10 7 -7 3 4 3 10 0 14 -4 3 -7 0 -7 -7z" />
    <path d="M4060 4950 c0 -7 3 -10 7 -7 3 4 3 10 0 14 -4 3 -7 0 -7 -7z" />
    <path d="M11670 4850 c0 -7 3 -10 7 -7 3 4 3 10 0 14 -4 3 -7 0 -7 -7z" />
    <path d="M10130 4686 c0 -2 8 -10 18 -17 l17 -14 -14 18 c-13 16 -21 21 -21
13z" />
    <path d="M9023 4673 c4 -3 10 -3 14 0 3 4 0 7 -7 7 -7 0 -10 -3 -7 -7z" />
    <path d="M3528 4643 c39 -2 105 -2 145 0 39 1 7 3 -73 3 -80 0 -112 -2 -72 -3z" />
    <path d="M3933 4623 c4 -3 10 -3 14 0 3 4 0 7 -7 7 -7 0 -10 -3 -7 -7z" />
    <path d="M3743 4573 c4 -3 10 -3 14 0 3 4 0 7 -7 7 -7 0 -10 -3 -7 -7z" />
    <path d="M5330 4550 c0 -7 3 -10 7 -7 3 4 3 10 0 14 -4 3 -7 0 -7 -7z" />
    <path d="M6770 4520 c0 -7 3 -10 7 -7 3 4 3 10 0 14 -4 3 -7 0 -7 -7z" />
    <path d="M9151 4514 l1 -19 5 13 c3 7 2 16 -1 19 -3 4 -6 -2 -5 -13z" />
    <path d="M9150 4450 c0 -7 3 -10 7 -7 3 4 3 10 0 14 -4 3 -7 0 -7 -7z" />
    <path d="M5330 4400 c0 -7 3 -10 7 -7 3 4 3 10 0 14 -4 3 -7 0 -7 -7z" />
    <path d="M6761 4374 l1 -19 5 13 c3 7 2 16 -1 19 -3 4 -6 -2 -5 -13z" />
    <path d="M9913 4383 c4 -3 10 -3 14 0 3 4 0 7 -7 7 -7 0 -10 -3 -7 -7z" />
    <path d="M9400 4370 c0 -7 3 -10 7 -7 3 4 3 10 0 14 -4 3 -7 0 -7 -7z" />
    <path d="M9140 4360 c0 -7 3 -10 7 -7 3 4 3 10 0 14 -4 3 -7 0 -7 -7z" />
    <path d="M4700 4340 c0 -7 3 -10 7 -7 3 4 3 10 0 14 -4 3 -7 0 -7 -7z" />
    <path d="M3990 4330 c0 -7 3 -10 7 -7 3 4 3 10 0 14 -4 3 -7 0 -7 -7z" />
    <path d="M8510 4320 c0 -7 3 -10 7 -7 3 4 3 10 0 14 -4 3 -7 0 -7 -7z" />
    <path d="M8782 4265 l0 -30 5 18 c2 9 2 23 0 30 -3 6 -5 -1 -5 -18z" />
    <path d="M6480 4160 c0 -7 3 -10 7 -7 3 4 3 10 0 14 -4 3 -7 0 -7 -7z" />
    <path d="M8782 4120 c0 -14 2 -19 5 -12 2 6 2 18 0 25 -3 6 -5 1 -5 -13z" />
    <path d="M9923 4133 c4 -3 10 -3 14 0 3 4 0 7 -7 7 -7 0 -10 -3 -7 -7z" />
    <path d="M10340 4110 c0 -7 3 -10 7 -7 3 4 3 10 0 14 -4 3 -7 0 -7 -7z" />
    <path d="M6761 4074 l1 -19 5 13 c3 7 2 16 -1 19 -3 4 -6 -2 -5 -13z" />
    <path d="M4970 4040 c0 -7 3 -10 7 -7 3 4 3 10 0 14 -4 3 -7 0 -7 -7z" />
    <path d="M7211 3964 l1 -19 5 13 c3 7 2 16 -1 19 -3 4 -6 -2 -5 -13z" />
    <path d="M4755 3950 c3 -5 8 -10 11 -10 3 0 2 5 -1 10 -3 6 -8 10 -11 10 -3 0
-2 -4 1 -10z" />
    <path d="M5514 3868 l-7 -11 11 7 c12 7 16 16 8 16 -3 0 -8 -5 -12 -12z" />
    <path d="M5384 3818 l-7 -11 11 7 c7 4 12 9 12 12 0 8 -9 4 -16 -8z" />
    <path d="M9825 3820 c3 -5 8 -10 11 -10 3 0 2 5 -1 10 -3 6 -8 10 -11 10 -3 0
-2 -4 1 -10z" />
    <path d="M10179 3813 l-14 -18 18 14 c9 7 17 15 17 17 0 8 -8 3 -21 -13z" />
    <path d="M4468 3793 c6 -2 18 -2 25 0 6 3 1 5 -13 5 -14 0 -19 -2 -12 -5z" />
    <path d="M9063 3763 c4 -3 10 -3 14 0 3 4 0 7 -7 7 -7 0 -10 -3 -7 -7z" />
    <path d="M6863 3713 c4 -3 10 -3 14 0 3 4 0 7 -7 7 -7 0 -10 -3 -7 -7z" />
    <path d="M8160 3710 c0 -7 3 -10 7 -7 3 4 3 10 0 14 -4 3 -7 0 -7 -7z" />
    <path d="M8883 3713 c4 -3 10 -3 14 0 3 4 0 7 -7 7 -7 0 -10 -3 -7 -7z" />
    <path d="M6923 3703 c4 -3 10 -3 14 0 3 4 0 7 -7 7 -7 0 -10 -3 -7 -7z" />
    <path d="M8943 3703 c4 -3 10 -3 14 0 3 4 0 7 -7 7 -7 0 -10 -3 -7 -7z" />
    <path d="M8150 3580 c0 -7 3 -10 7 -7 3 4 3 10 0 14 -4 3 -7 0 -7 -7z" />
    <path d="M7922 3535 l0 -30 5 18 c2 9 2 23 0 30 -3 6 -5 -1 -5 -18z" />
    <path d="M11054 3388 l-7 -11 11 7 c12 7 16 16 8 16 -3 0 -8 -5 -12 -12z" />
    <path d="M7910 3330 c0 -7 3 -10 7 -7 3 4 3 10 0 14 -4 3 -7 0 -7 -7z" />
    <path d="M7900 3280 c0 -7 3 -10 7 -7 3 4 3 10 0 14 -4 3 -7 0 -7 -7z" />
    <path d="M10644 3278 l-7 -11 11 7 c12 7 16 16 8 16 -3 0 -8 -5 -12 -12z" />
    <path d="M7730 3180 c0 -7 3 -10 7 -7 3 4 3 10 0 14 -4 3 -7 0 -7 -7z" />
    <path d="M10544 3138 l-7 -11 11 7 c12 7 16 16 8 16 -3 0 -8 -5 -12 -12z" />
    <path d="M7615 3130 c3 -5 8 -10 11 -10 3 0 2 5 -1 10 -3 6 -8 10 -11 10 -3 0
-2 -4 1 -10z" />
    <path d="M10714 2898 l-7 -11 11 7 c12 7 16 16 8 16 -3 0 -8 -5 -12 -12z" />
    <path d="M10569 2723 l-14 -18 18 14 c16 13 21 21 13 21 -2 0 -10 -8 -17 -17z" />
    <path d="M9799 2343 l-14 -18 18 14 c9 7 17 15 17 17 0 8 -8 3 -21 -13z" />
    <path d="M9424 2048 l-7 -11 11 7 c12 7 16 16 8 16 -3 0 -8 -5 -12 -12z" />
    <path d="M4005 1820 c3 -5 8 -10 11 -10 3 0 2 5 -1 10 -3 6 -8 10 -11 10 -3 0
-2 -4 1 -10z" />
    <path d="M4385 1530 c3 -5 8 -10 11 -10 3 0 2 5 -1 10 -3 6 -8 10 -11 10 -3 0
-2 -4 1 -10z" />
    <path d="M5233 1303 c4 -3 10 -3 14 0 3 4 0 7 -7 7 -7 0 -10 -3 -7 -7z" />
    <path d="M5583 1223 c4 -3 10 -3 14 0 3 4 0 7 -7 7 -7 0 -10 -3 -7 -7z" />
    <path d="M7433 1213 c4 -3 10 -3 14 0 3 4 0 7 -7 7 -7 0 -10 -3 -7 -7z" />
    <path d="M7373 1203 c4 -3 10 -3 14 0 3 4 0 7 -7 7 -7 0 -10 -3 -7 -7z" />
    <path d="M5763 1193 c4 -3 10 -3 14 0 3 4 0 7 -7 7 -7 0 -10 -3 -7 -7z" />
    <path d="M5973 1163 c4 -3 10 -3 14 0 3 4 0 7 -7 7 -7 0 -10 -3 -7 -7z" />
    <path d="M7103 1163 c4 -3 10 -3 14 0 3 4 0 7 -7 7 -7 0 -10 -3 -7 -7z" />
    <path d="M6223 1143 c4 -3 10 -3 14 0 3 4 0 7 -7 7 -7 0 -10 -3 -7 -7z" />
    <path d="M6843 1143 c4 -3 10 -3 14 0 3 4 0 7 -7 7 -7 0 -10 -3 -7 -7z" />
    <path d="M7903 1093 c4 -3 10 -3 14 0 3 4 0 7 -7 7 -7 0 -10 -3 -7 -7z" />
    <path d="M7763 1063 c4 -3 10 -3 14 0 3 4 0 7 -7 7 -7 0 -10 -3 -7 -7z" />
    <path d="M5703 1053 c4 -3 10 -3 14 0 3 4 0 7 -7 7 -7 0 -10 -3 -7 -7z" />
    <path d="M7443 1003 c4 -3 10 -3 14 0 3 4 0 7 -7 7 -7 0 -10 -3 -7 -7z" />
    <path d="M6143 983 c4 -3 10 -3 14 0 3 4 0 7 -7 7 -7 0 -10 -3 -7 -7z" />
    <path d="M7283 983 c4 -3 10 -3 14 0 3 4 0 7 -7 7 -7 0 -10 -3 -7 -7z" />
    <path d="M6373 963 c4 -3 10 -3 14 0 3 4 0 7 -7 7 -7 0 -10 -3 -7 -7z" />
    <path d="M7063 963 c4 -3 10 -3 14 0 3 4 0 7 -7 7 -7 0 -10 -3 -7 -7z" />
    <path d="M6513 953 c4 -3 10 -3 14 0 3 4 0 7 -7 7 -7 0 -10 -3 -7 -7z" />
    <path d="M6913 953 c4 -3 10 -3 14 0 3 4 0 7 -7 7 -7 0 -10 -3 -7 -7z" />
  </g>
  <g transform="translate(0.000000,1224.000000) scale(0.100000,-0.100000)" fill="#3f3f3f" stroke="none">
    <path d="M6653 11163 c4 -3 10 -3 14 0 3 4 0 7 -7 7 -7 0 -10 -3 -7 -7z" />
    <path d="M7018 11163 c7 -3 16 -2 19 1 4 3 -2 6 -13 5 l-19 -1 13 -5z" />
    <path d="M7463 11123 c4 -3 10 -3 14 0 3 4 0 7 -7 7 -7 0 -10 -3 -7 -7z" />
    <path d="M6738 11113 c7 -3 16 -2 19 1 4 3 -2 6 -13 5 l-19 -1 13 -5z" />
    <path d="M6923 11103 c4 -3 10 -3 14 0 3 4 0 7 -7 7 -7 0 -10 -3 -7 -7z" />
    <path d="M7513 11023 c4 -3 10 -3 14 0 3 4 0 7 -7 7 -7 0 -10 -3 -7 -7z" />
    <path d="M6433 10993 c4 -3 10 -3 14 0 3 4 0 7 -7 7 -7 0 -10 -3 -7 -7z" />
    <path d="M9085 10620 c3 -5 8 -10 11 -10 3 0 2 5 -1 10 -3 6 -8 10 -11 10 -3
0 -2 -4 1 -10z" />
    <path d="M9785 10180 c3 -5 8 -10 11 -10 3 0 2 5 -1 10 -3 6 -8 10 -11 10 -3
0 -2 -4 1 -10z" />
    <path d="M6193 9583 c4 -3 10 -3 14 0 3 4 0 7 -7 7 -7 0 -10 -3 -7 -7z" />
    <path d="M4773 9533 c4 -3 10 -3 14 0 3 4 0 7 -7 7 -7 0 -10 -3 -7 -7z" />
    <path d="M10520 9506 c0 -2 8 -10 18 -17 l17 -14 -14 18 c-13 16 -21 21 -21
13z" />
    <path d="M10695 9300 c3 -5 8 -10 11 -10 3 0 2 5 -1 10 -3 6 -8 10 -11 10 -3
0 -2 -4 1 -10z" />
    <path d="M10425 9270 c3 -5 8 -10 11 -10 3 0 2 5 -1 10 -3 6 -8 10 -11 10 -3
0 -2 -4 1 -10z" />
    <path d="M5072 9045 l0 -30 5 18 c2 9 2 23 0 30 -3 6 -5 -1 -5 -18z" />
    <path d="M10785 8770 c3 -5 8 -10 11 -10 3 0 2 5 -1 10 -3 6 -8 10 -11 10 -3
0 -2 -4 1 -10z" />
    <path d="M6783 8613 c4 -3 10 -3 14 0 3 4 0 7 -7 7 -7 0 -10 -3 -7 -7z" />
    <path d="M6808 8553 c6 -2 18 -2 25 0 6 3 1 5 -13 5 -14 0 -19 -2 -12 -5z" />
    <path d="M6263 8543 c4 -3 10 -3 14 0 3 4 0 7 -7 7 -7 0 -10 -3 -7 -7z" />
    <path d="M6893 8543 c4 -3 10 -3 14 0 3 4 0 7 -7 7 -7 0 -10 -3 -7 -7z" />
    <path d="M6960 8420 c0 -7 3 -10 7 -7 3 4 3 10 0 14 -4 3 -7 0 -7 -7z" />
    <path d="M6970 8320 c0 -7 3 -10 7 -7 3 4 3 10 0 14 -4 3 -7 0 -7 -7z" />
    <path d="M11335 8280 c3 -5 8 -10 11 -10 3 0 2 5 -1 10 -3 6 -8 10 -11 10 -3
0 -2 -4 1 -10z" />
    <path d="M7935 8270 c3 -5 8 -10 11 -10 3 0 2 5 -1 10 -3 6 -8 10 -11 10 -3 0
-2 -4 1 -10z" />
    <path d="M7441 8244 l1 -19 5 13 c3 7 2 16 -1 19 -3 4 -6 -2 -5 -13z" />
    <path d="M6530 8210 c0 -7 3 -10 7 -7 3 4 3 10 0 14 -4 3 -7 0 -7 -7z" />
    <path d="M7440 8120 c0 -7 3 -10 7 -7 3 4 3 10 0 14 -4 3 -7 0 -7 -7z" />
    <path d="M6970 8080 c0 -7 3 -10 7 -7 3 4 3 10 0 14 -4 3 -7 0 -7 -7z" />
    <path d="M8115 8060 c3 -5 8 -10 11 -10 3 0 2 5 -1 10 -3 6 -8 10 -11 10 -3 0
-2 -4 1 -10z" />
    <path d="M7705 8000 c3 -5 8 -10 11 -10 3 0 2 5 -1 10 -3 6 -8 10 -11 10 -3 0
-2 -4 1 -10z" />
    <path d="M6525 7950 c3 -5 8 -10 11 -10 3 0 2 5 -1 10 -3 6 -8 10 -11 10 -3 0
-2 -4 1 -10z" />
    <path d="M6940 7880 c0 -7 3 -10 7 -7 3 4 3 10 0 14 -4 3 -7 0 -7 -7z" />
    <path d="M6613 7853 c4 -3 10 -3 14 0 3 4 0 7 -7 7 -7 0 -10 -3 -7 -7z" />
    <path d="M6083 7813 c4 -3 10 -3 14 0 3 4 0 7 -7 7 -7 0 -10 -3 -7 -7z" />
    <path d="M6223 7813 c4 -3 10 -3 14 0 3 4 0 7 -7 7 -7 0 -10 -3 -7 -7z" />
    <path d="M5072 7515 l0 -30 5 18 c2 9 2 23 0 30 -3 6 -5 -1 -5 -18z" />
    <path d="M7890 7420 c0 -7 3 -10 7 -7 3 4 3 10 0 14 -4 3 -7 0 -7 -7z" />
    <path d="M7901 7284 l1 -19 5 13 c3 7 2 16 -1 19 -3 4 -6 -2 -5 -13z" />
    <path d="M11420 7220 c0 -7 3 -10 7 -7 3 4 3 10 0 14 -4 3 -7 0 -7 -7z" />
    <path d="M11700 7220 c0 -7 3 -10 7 -7 3 4 3 10 0 14 -4 3 -7 0 -7 -7z" />
    <path d="M7900 7160 c0 -7 3 -10 7 -7 3 4 3 10 0 14 -4 3 -7 0 -7 -7z" />
    <path d="M4974 7128 l-7 -11 11 7 c12 7 16 16 8 16 -3 0 -8 -5 -12 -12z" />
    <path d="M6454 7118 l-7 -11 11 7 c7 4 12 9 12 12 0 8 -9 4 -16 -8z" />
    <path d="M11720 7120 c0 -7 3 -10 7 -7 3 4 3 10 0 14 -4 3 -7 0 -7 -7z" />
    <path d="M7890 7030 c0 -7 3 -10 7 -7 3 4 3 10 0 14 -4 3 -7 0 -7 -7z" />
    <path d="M5933 7013 c4 -3 10 -3 14 0 3 4 0 7 -7 7 -7 0 -10 -3 -7 -7z" />
    <path d="M11470 6970 c0 -7 3 -10 7 -7 3 4 3 10 0 14 -4 3 -7 0 -7 -7z" />
    <path d="M11750 6970 c0 -7 3 -10 7 -7 3 4 3 10 0 14 -4 3 -7 0 -7 -7z" />
    <path d="M7870 6900 c0 -7 3 -10 7 -7 3 4 3 10 0 14 -4 3 -7 0 -7 -7z" />
    <path d="M8340 6900 c0 -7 3 -10 7 -7 3 4 3 10 0 14 -4 3 -7 0 -7 -7z" />
    <path d="M11800 6570 c0 -7 3 -10 7 -7 3 4 3 10 0 14 -4 3 -7 0 -7 -7z" />
    <path d="M6001 6514 l1 -19 5 13 c3 7 2 16 -1 19 -3 4 -6 -2 -5 -13z" />
    <path d="M11530 6420 c0 -7 3 -10 7 -7 3 4 3 10 0 14 -4 3 -7 0 -7 -7z" />
    <path d="M11821 6274 l1 -19 5 13 c3 7 2 16 -1 19 -3 4 -6 -2 -5 -13z" />
    <path d="M11542 6260 c0 -14 2 -19 5 -12 2 6 2 18 0 25 -3 6 -5 1 -5 -13z" />
    <path d="M7954 6228 l-7 -11 11 7 c7 4 12 9 12 12 0 8 -9 4 -16 -8z" />
    <path d="M6833 6043 c4 -3 10 -3 14 0 3 4 0 7 -7 7 -7 0 -10 -3 -7 -7z" />
    <path d="M7403 6013 c4 -3 10 -3 14 0 3 4 0 7 -7 7 -7 0 -10 -3 -7 -7z" />
    <path d="M7323 6003 c4 -3 10 -3 14 0 3 4 0 7 -7 7 -7 0 -10 -3 -7 -7z" />
    <path d="M11541 5994 l1 -19 5 13 c3 7 2 16 -1 19 -3 4 -6 -2 -5 -13z" />
    <path d="M7193 5993 c4 -3 10 -3 14 0 3 4 0 7 -7 7 -7 0 -10 -3 -7 -7z" />
    <path d="M11821 5924 l1 -19 5 13 c3 7 2 16 -1 19 -3 4 -6 -2 -5 -13z" />
    <path d="M11530 5830 c0 -7 3 -10 7 -7 3 4 3 10 0 14 -4 3 -7 0 -7 -7z" />
    <path d="M11490 5430 c0 -7 3 -10 7 -7 3 4 3 10 0 14 -4 3 -7 0 -7 -7z" />
    <path d="M6023 5393 c4 -3 10 -3 14 0 3 4 0 7 -7 7 -7 0 -10 -3 -7 -7z" />
    <path d="M3973 5383 c4 -3 10 -3 14 0 3 4 0 7 -7 7 -7 0 -10 -3 -7 -7z" />
    <path d="M8063 5333 c4 -3 10 -3 14 0 3 4 0 7 -7 7 -7 0 -10 -3 -7 -7z" />
    <path d="M4060 5090 c0 -7 3 -10 7 -7 3 4 3 10 0 14 -4 3 -7 0 -7 -7z" />
    <path d="M11420 5050 c0 -7 3 -10 7 -7 3 4 3 10 0 14 -4 3 -7 0 -7 -7z" />
    <path d="M4254 4748 l-7 -11 11 7 c7 4 12 9 12 12 0 8 -9 4 -16 -8z" />
    <path d="M5128 4733 c7 -3 16 -2 19 1 4 3 -2 6 -13 5 l-19 -1 13 -5z" />
    <path d="M6953 4733 c4 -3 10 -3 14 0 3 4 0 7 -7 7 -7 0 -10 -3 -7 -7z" />
    <path d="M8764 4678 l-7 -11 11 7 c12 7 16 16 8 16 -3 0 -8 -5 -12 -12z" />
    <path d="M9195 4680 c3 -5 8 -10 11 -10 3 0 2 5 -1 10 -3 6 -8 10 -11 10 -3 0
-2 -4 1 -10z" />
    <path d="M9085 4650 c3 -5 8 -10 11 -10 3 0 2 5 -1 10 -3 6 -8 10 -11 10 -3 0
-2 -4 1 -10z" />
    <path d="M3763 4643 c4 -3 10 -3 14 0 3 4 0 7 -7 7 -7 0 -10 -3 -7 -7z" />
    <path d="M6844 4638 l-7 -11 11 7 c7 4 12 9 12 12 0 8 -9 4 -16 -8z" />
    <path d="M9115 4620 c3 -5 8 -10 11 -10 3 0 2 5 -1 10 -3 6 -8 10 -11 10 -3 0
-2 -4 1 -10z" />
    <path d="M3508 4583 c29 -2 74 -2 100 0 26 2 2 3 -53 3 -55 0 -76 -1 -47 -3z" />
    <path d="M8794 4578 l-7 -11 11 7 c7 4 12 9 12 12 0 8 -9 4 -16 -8z" />
    <path d="M7370 4576 c0 -2 8 -10 18 -17 l17 -14 -14 18 c-13 16 -21 21 -21 13z" />
    <path d="M3855 4540 c3 -5 8 -10 11 -10 3 0 2 5 -1 10 -3 6 -8 10 -11 10 -3 0
-2 -4 1 -10z" />
    <path d="M6760 4420 c0 -7 3 -10 7 -7 3 4 3 10 0 14 -4 3 -7 0 -7 -7z" />
    <path d="M9620 4390 c0 -7 3 -10 7 -7 3 4 3 10 0 14 -4 3 -7 0 -7 -7z" />
    <path d="M7223 4220 c0 -36 2 -50 4 -32 2 17 2 47 0 65 -2 17 -4 3 -4 -33z" />
    <path d="M4692 4220 c0 -19 2 -27 5 -17 2 9 2 25 0 35 -3 9 -5 1 -5 -18z" />
    <path d="M7500 4190 c0 -7 3 -10 7 -7 3 4 3 10 0 14 -4 3 -7 0 -7 -7z" />
    <path d="M4320 4160 c0 -7 3 -10 7 -7 3 4 3 10 0 14 -4 3 -7 0 -7 -7z" />
    <path d="M4700 4100 c0 -7 3 -10 7 -7 3 4 3 10 0 14 -4 3 -7 0 -7 -7z" />
    <path d="M10083 4103 c4 -3 10 -3 14 0 3 4 0 7 -7 7 -7 0 -10 -3 -7 -7z" />
    <path d="M8780 4070 c0 -7 3 -10 7 -7 3 4 3 10 0 14 -4 3 -7 0 -7 -7z" />
    <path d="M6760 4030 c0 -7 3 -10 7 -7 3 4 3 10 0 14 -4 3 -7 0 -7 -7z" />
    <path d="M8790 3950 c0 -7 3 -10 7 -7 3 4 3 10 0 14 -4 3 -7 0 -7 -7z" />
    <path d="M4493 3793 c4 -3 10 -3 14 0 3 4 0 7 -7 7 -7 0 -10 -3 -7 -7z" />
    <path d="M4905 3790 c3 -5 8 -10 11 -10 3 0 2 5 -1 10 -3 6 -8 10 -11 10 -3 0
-2 -4 1 -10z" />
    <path d="M6323 3765 l0 -40 4 23 c2 12 2 30 0 40 -3 9 -5 -1 -4 -23z" />
    <path d="M8162 3765 l0 -30 5 18 c2 9 2 23 0 30 -3 6 -5 -1 -5 -18z" />
    <path d="M10063 3763 c4 -3 10 -3 14 0 3 4 0 7 -7 7 -7 0 -10 -3 -7 -7z" />
    <path d="M4483 3723 c4 -3 10 -3 14 0 3 4 0 7 -7 7 -7 0 -10 -3 -7 -7z" />
    <path d="M4323 3713 c4 -3 10 -3 14 0 3 4 0 7 -7 7 -7 0 -10 -3 -7 -7z" />
    <path d="M9043 3703 c4 -3 10 -3 14 0 3 4 0 7 -7 7 -7 0 -10 -3 -7 -7z" />
    <path d="M7921 3464 l1 -19 5 13 c3 7 2 16 -1 19 -3 4 -6 -2 -5 -13z" />
    <path d="M8130 3450 c0 -7 3 -10 7 -7 3 4 3 10 0 14 -4 3 -7 0 -7 -7z" />
    <path d="M10714 3378 l-7 -11 11 7 c7 4 12 9 12 12 0 8 -9 4 -16 -8z" />
    <path d="M7564 3298 l-7 -11 11 7 c7 4 12 9 12 12 0 8 -9 4 -16 -8z" />
    <path d="M7884 3108 l-7 -11 11 7 c12 7 16 16 8 16 -3 0 -8 -5 -12 -12z" />
    <path d="M10059 2213 l-14 -18 18 14 c16 13 21 21 13 21 -2 0 -10 -8 -17 -17z" />
    <path d="M3695 1980 c3 -5 8 -10 11 -10 3 0 2 5 -1 10 -3 6 -8 10 -11 10 -3 0
-2 -4 1 -10z" />
    <path d="M9604 1858 l-7 -11 11 7 c7 4 12 9 12 12 0 8 -9 4 -16 -8z" />
    <path d="M9324 1678 l-7 -11 11 7 c12 7 16 16 8 16 -3 0 -8 -5 -12 -12z" />
    <path d="M5833 1183 c4 -3 10 -3 14 0 3 4 0 7 -7 7 -7 0 -10 -3 -7 -7z" />
    <path d="M6193 1143 c4 -3 10 -3 14 0 3 4 0 7 -7 7 -7 0 -10 -3 -7 -7z" />
    <path d="M6448 1133 c12 -2 30 -2 40 0 9 3 -1 5 -23 4 l-40 0 23 -4z" />
    <path d="M6588 1133 c12 -2 30 -2 40 0 9 3 -1 5 -23 4 l-40 0 23 -4z" />
    <path d="M7573 1023 c4 -3 10 -3 14 0 3 4 0 7 -7 7 -7 0 -10 -3 -7 -7z" />
    <path d="M7183 973 c4 -3 10 -3 14 0 3 4 0 7 -7 7 -7 0 -10 -3 -7 -7z" />
    <path d="M6403 963 c4 -3 10 -3 14 0 3 4 0 7 -7 7 -7 0 -10 -3 -7 -7z" />
    <path d="M7033 963 c4 -3 10 -3 14 0 3 4 0 7 -7 7 -7 0 -10 -3 -7 -7z" />
    <path d="M6568 953 c6 -2 18 -2 25 0 6 3 1 5 -13 5 -14 0 -19 -2 -12 -5z" />
    <path d="M6848 953 c6 -2 18 -2 25 0 6 3 1 5 -13 5 -14 0 -19 -2 -12 -5z" />
  </g>
  <g transform="translate(0.000000,1224.000000) scale(0.100000,-0.100000)" fill="#0f0f0f" stroke="none">
    <path d="M6495 11250 c3 -5 8 -10 11 -10 3 0 2 5 -1 10 -3 6 -8 10 -11 10 -3
0 -2 -4 1 -10z" />
    <path d="M6525 11220 c3 -5 8 -10 11 -10 3 0 2 5 -1 10 -3 6 -8 10 -11 10 -3
0 -2 -4 1 -10z" />
    <path d="M7663 11093 c4 -3 10 -3 14 0 3 4 0 7 -7 7 -7 0 -10 -3 -7 -7z" />
    <path d="M7403 11043 c4 -3 10 -3 14 0 3 4 0 7 -7 7 -7 0 -10 -3 -7 -7z" />
    <path d="M7813 10953 c4 -3 10 -3 14 0 3 4 0 7 -7 7 -7 0 -10 -3 -7 -7z" />
    <path d="M7853 10943 c4 -3 10 -3 14 0 3 4 0 7 -7 7 -7 0 -10 -3 -7 -7z" />
    <path d="M8793 10583 c4 -3 10 -3 14 0 3 4 0 7 -7 7 -7 0 -10 -3 -7 -7z" />
    <path d="M9875 10110 c3 -5 8 -10 11 -10 3 0 2 5 -1 10 -3 6 -8 10 -11 10 -3
0 -2 -4 1 -10z" />
    <path d="M9595 10080 c3 -5 8 -10 11 -10 3 0 2 5 -1 10 -3 6 -8 10 -11 10 -3
0 -2 -4 1 -10z" />
    <path d="M10035 9980 c3 -5 8 -10 11 -10 3 0 2 5 -1 10 -3 6 -8 10 -11 10 -3
0 -2 -4 1 -10z" />
    <path d="M9795 9920 c3 -5 8 -10 11 -10 3 0 2 5 -1 10 -3 6 -8 10 -11 10 -3 0
-2 -4 1 -10z" />
    <path d="M10125 9900 c3 -5 8 -10 11 -10 3 0 2 5 -1 10 -3 6 -8 10 -11 10 -3
0 -2 -4 1 -10z" />
    <path d="M9875 9850 c3 -5 8 -10 11 -10 3 0 2 5 -1 10 -3 6 -8 10 -11 10 -3 0
-2 -4 1 -10z" />
    <path d="M10065 9670 c21 -22 41 -40 44 -40 3 0 -13 18 -34 40 -21 22 -41 40
-44 40 -3 0 13 -18 34 -40z" />
    <path d="M10390 9646 c0 -2 8 -10 18 -17 l17 -14 -14 18 c-13 16 -21 21 -21
13z" />
    <path d="M10175 9560 c3 -5 8 -10 11 -10 3 0 2 5 -1 10 -3 6 -8 10 -11 10 -3
0 -2 -4 1 -10z" />
    <path d="M10255 9470 c3 -5 8 -10 11 -10 3 0 2 5 -1 10 -3 6 -8 10 -11 10 -3
0 -2 -4 1 -10z" />
    <path d="M4955 9450 c3 -5 8 -10 11 -10 3 0 2 5 -1 10 -3 6 -8 10 -11 10 -3 0
-2 -4 1 -10z" />
    <path d="M10325 9390 c3 -5 8 -10 11 -10 3 0 2 5 -1 10 -3 6 -8 10 -11 10 -3
0 -2 -4 1 -10z" />
    <path d="M10645 9360 c10 -11 20 -20 23 -20 3 0 -3 9 -13 20 -10 11 -20 20
-23 20 -3 0 3 -9 13 -20z" />
    <path d="M10370 9336 c0 -2 8 -10 18 -17 l17 -14 -14 18 c-13 16 -21 21 -21
13z" />
    <path d="M6955 9290 c3 -5 8 -10 11 -10 3 0 2 5 -1 10 -3 6 -8 10 -11 10 -3 0
-2 -4 1 -10z" />
    <path d="M10475 9210 c3 -5 8 -10 11 -10 3 0 2 5 -1 10 -3 6 -8 10 -11 10 -3
0 -2 -4 1 -10z" />
    <path d="M6645 9160 c3 -5 8 -10 11 -10 3 0 2 5 -1 10 -3 6 -8 10 -11 10 -3 0
-2 -4 1 -10z" />
    <path d="M10560 9096 c0 -2 8 -10 18 -17 l17 -14 -14 18 c-13 16 -21 21 -21
13z" />
    <path d="M6755 9010 c3 -5 8 -10 11 -10 3 0 2 5 -1 10 -3 6 -8 10 -11 10 -3 0
-2 -4 1 -10z" />
    <path d="M7215 8990 c3 -5 8 -10 11 -10 3 0 2 5 -1 10 -3 6 -8 10 -11 10 -3 0
-2 -4 1 -10z" />
    <path d="M10745 8830 c3 -5 8 -10 11 -10 3 0 2 5 -1 10 -3 6 -8 10 -11 10 -3
0 -2 -4 1 -10z" />
    <path d="M6365 8550 c3 -5 8 -10 11 -10 3 0 2 5 -1 10 -3 6 -8 10 -11 10 -3 0
-2 -4 1 -10z" />
    <path d="M6400 8526 c0 -2 8 -10 18 -17 l17 -14 -14 18 c-13 16 -21 21 -21 13z" />
    <path d="M7875 8320 c3 -5 8 -10 11 -10 3 0 2 5 -1 10 -3 6 -8 10 -11 10 -3 0
-2 -4 1 -10z" />
    <path d="M6285 8270 c3 -5 8 -10 11 -10 3 0 2 5 -1 10 -3 6 -8 10 -11 10 -3 0
-2 -4 1 -10z" />
    <path d="M7510 8255 c13 -14 26 -25 28 -25 3 0 -5 11 -18 25 -13 14 -26 25
-28 25 -3 0 5 -11 18 -25z" />
    <path d="M7970 8236 c0 -2 8 -10 18 -17 l17 -14 -14 18 c-13 16 -21 21 -21 13z" />
    <path d="M6053 8223 c4 -3 10 -3 14 0 3 4 0 7 -7 7 -7 0 -10 -3 -7 -7z" />
    <path d="M6325 8210 c3 -5 8 -10 11 -10 3 0 2 5 -1 10 -3 6 -8 10 -11 10 -3 0
-2 -4 1 -10z" />
    <path d="M7595 8160 c3 -5 8 -10 11 -10 3 0 2 5 -1 10 -3 6 -8 10 -11 10 -3 0
-2 -4 1 -10z" />
    <path d="M6040 8050 c0 -7 3 -10 7 -7 3 4 3 10 0 14 -4 3 -7 0 -7 -7z" />
    <path d="M6474 8028 l-7 -11 11 7 c12 7 16 16 8 16 -3 0 -8 -5 -12 -12z" />
    <path d="M8135 8030 c3 -5 8 -10 11 -10 3 0 2 5 -1 10 -3 6 -8 10 -11 10 -3 0
-2 -4 1 -10z" />
    <path d="M6315 8000 c3 -5 8 -10 11 -10 3 0 2 5 -1 10 -3 6 -8 10 -11 10 -3 0
-2 -4 1 -10z" />
    <path d="M6355 7950 c3 -5 8 -10 11 -10 3 0 2 5 -1 10 -3 6 -8 10 -11 10 -3 0
-2 -4 1 -10z" />
    <path d="M8210 7900 c0 -7 3 -10 7 -7 3 4 3 10 0 14 -4 3 -7 0 -7 -7z" />
    <path d="M6575 7890 c3 -5 8 -10 11 -10 3 0 2 5 -1 10 -3 6 -8 10 -11 10 -3 0
-2 -4 1 -10z" />
    <path d="M6193 7863 c4 -3 10 -3 14 0 3 4 0 7 -7 7 -7 0 -10 -3 -7 -7z" />
    <path d="M6005 7850 c3 -5 8 -10 11 -10 3 0 2 5 -1 10 -3 6 -8 10 -11 10 -3 0
-2 -4 1 -10z" />
    <path d="M8255 7800 c3 -5 8 -10 11 -10 3 0 2 5 -1 10 -3 6 -8 10 -11 10 -3 0
-2 -4 1 -10z" />
    <path d="M6920 7790 c0 -7 3 -10 7 -7 3 4 3 10 0 14 -4 3 -7 0 -7 -7z" />
    <path d="M7390 7790 c0 -7 3 -10 7 -7 3 4 3 10 0 14 -4 3 -7 0 -7 -7z" />
    <path d="M6333 7763 c4 -3 10 -3 14 0 3 4 0 7 -7 7 -7 0 -10 -3 -7 -7z" />
    <path d="M7840 7680 c0 -7 3 -10 7 -7 3 4 3 10 0 14 -4 3 -7 0 -7 -7z" />
    <path d="M11620 7530 c0 -7 3 -10 7 -7 3 4 3 10 0 14 -4 3 -7 0 -7 -7z" />
    <path d="M11350 7500 c0 -7 3 -10 7 -7 3 4 3 10 0 14 -4 3 -7 0 -7 -7z" />
    <path d="M7244 7448 l-7 -11 11 7 c12 7 16 16 8 16 -3 0 -8 -5 -12 -12z" />
    <path d="M5500 7420 c0 -7 3 -10 7 -7 3 4 3 10 0 14 -4 3 -7 0 -7 -7z" />
    <path d="M7214 7408 l-7 -11 11 7 c7 4 12 9 12 12 0 8 -9 4 -16 -8z" />
    <path d="M6714 7358 l-7 -11 11 7 c7 4 12 9 12 12 0 8 -9 4 -16 -8z" />
    <path d="M7144 7318 l-7 -11 11 7 c12 7 16 16 8 16 -3 0 -8 -5 -12 -12z" />
    <path d="M6964 7158 l-7 -11 11 7 c12 7 16 16 8 16 -3 0 -8 -5 -12 -12z" />
    <path d="M5615 7140 c3 -5 8 -10 11 -10 3 0 2 5 -1 10 -3 6 -8 10 -11 10 -3 0
-2 -4 1 -10z" />
    <path d="M4904 7068 l-7 -11 11 7 c12 7 16 16 8 16 -3 0 -8 -5 -12 -12z" />
    <path d="M7694 6458 l-7 -11 11 7 c12 7 16 16 8 16 -3 0 -8 -5 -12 -12z" />
    <path d="M5980 6320 c0 -7 3 -10 7 -7 3 4 3 10 0 14 -4 3 -7 0 -7 -7z" />
    <path d="M7594 6318 l-7 -11 11 7 c7 4 12 9 12 12 0 8 -9 4 -16 -8z" />
    <path d="M5970 6280 c0 -7 3 -10 7 -7 3 4 3 10 0 14 -4 3 -7 0 -7 -7z" />
    <path d="M7363 6133 c4 -3 10 -3 14 0 3 4 0 7 -7 7 -7 0 -10 -3 -7 -7z" />
    <path d="M6615 6110 c3 -5 8 -10 11 -10 3 0 2 5 -1 10 -3 6 -8 10 -11 10 -3 0
-2 -4 1 -10z" />
    <path d="M8013 5333 c4 -3 10 -3 14 0 3 4 0 7 -7 7 -7 0 -10 -3 -7 -7z" />
    <path d="M3933 5303 c4 -3 10 -3 14 0 3 4 0 7 -7 7 -7 0 -10 -3 -7 -7z" />
    <path d="M3990 5266 c0 -2 8 -10 18 -17 l17 -14 -14 18 c-13 16 -21 21 -21 13z" />
    <path d="M4305 5230 c3 -5 8 -10 11 -10 3 0 2 5 -1 10 -3 6 -8 10 -11 10 -3 0
-2 -4 1 -10z" />
    <path d="M4345 5170 c3 -5 8 -10 11 -10 3 0 2 5 -1 10 -3 6 -8 10 -11 10 -3 0
-2 -4 1 -10z" />
    <path d="M4380 5070 c0 -7 3 -10 7 -7 3 4 3 10 0 14 -4 3 -7 0 -7 -7z" />
    <path d="M11410 5000 c0 -7 3 -10 7 -7 3 4 3 10 0 14 -4 3 -7 0 -7 -7z" />
    <path d="M11350 4770 c0 -7 3 -10 7 -7 3 4 3 10 0 14 -4 3 -7 0 -7 -7z" />
    <path d="M4264 4758 l-7 -11 11 7 c12 7 16 16 8 16 -3 0 -8 -5 -12 -12z" />
    <path d="M3954 4688 l-7 -11 11 7 c12 7 16 16 8 16 -3 0 -8 -5 -12 -12z" />
    <path d="M4124 4678 l-7 -11 11 7 c12 7 16 16 8 16 -3 0 -8 -5 -12 -12z" />
    <path d="M9744 4678 l-7 -11 11 7 c12 7 16 16 8 16 -3 0 -8 -5 -12 -12z" />
    <path d="M10184 4648 l-7 -11 11 7 c7 4 12 9 12 12 0 8 -9 4 -16 -8z" />
    <path d="M11620 4650 c0 -7 3 -10 7 -7 3 4 3 10 0 14 -4 3 -7 0 -7 -7z" />
    <path d="M5435 4640 c3 -5 8 -10 11 -10 3 0 2 5 -1 10 -3 6 -8 10 -11 10 -3 0
-2 -4 1 -10z" />
    <path d="M6684 4638 l-7 -11 11 7 c12 7 16 16 8 16 -3 0 -8 -5 -12 -12z" />
    <path d="M11600 4590 c0 -7 3 -10 7 -7 3 4 3 10 0 14 -4 3 -7 0 -7 -7z" />
    <path d="M7365 4580 c3 -5 8 -10 11 -10 3 0 2 5 -1 10 -3 6 -8 10 -11 10 -3 0
-2 -4 1 -10z" />
    <path d="M4073 4523 c4 -3 10 -3 14 0 3 4 0 7 -7 7 -7 0 -10 -3 -7 -7z" />
    <path d="M4190 4446 c0 -2 8 -10 18 -17 l17 -14 -14 18 c-13 16 -21 21 -21 13z" />
    <path d="M9390 4420 c0 -7 3 -10 7 -7 3 4 3 10 0 14 -4 3 -7 0 -7 -7z" />
    <path d="M7480 4380 c0 -7 3 -10 7 -7 3 4 3 10 0 14 -4 3 -7 0 -7 -7z" />
    <path d="M3980 4370 c0 -7 3 -10 7 -7 3 4 3 10 0 14 -4 3 -7 0 -7 -7z" />
    <path d="M8520 4370 c0 -7 3 -10 7 -7 3 4 3 10 0 14 -4 3 -7 0 -7 -7z" />
    <path d="M9675 4260 c3 -5 8 -10 11 -10 3 0 2 5 -1 10 -3 6 -8 10 -11 10 -3 0
-2 -4 1 -10z" />
    <path d="M9705 4230 c3 -5 8 -10 11 -10 3 0 2 5 -1 10 -3 6 -8 10 -11 10 -3 0
-2 -4 1 -10z" />
    <path d="M10295 4220 c3 -5 8 -10 11 -10 3 0 2 5 -1 10 -3 6 -8 10 -11 10 -3
0 -2 -4 1 -10z" />
    <path d="M7414 3938 l-7 -11 11 7 c7 4 12 9 12 12 0 8 -9 4 -16 -8z" />
    <path d="M6770 3930 c0 -7 3 -10 7 -7 3 4 3 10 0 14 -4 3 -7 0 -7 -7z" />
    <path d="M9735 3920 c3 -5 8 -10 11 -10 3 0 2 5 -1 10 -3 6 -8 10 -11 10 -3 0
-2 -4 1 -10z" />
    <path d="M4785 3910 c3 -5 8 -10 11 -10 3 0 2 5 -1 10 -3 6 -8 10 -11 10 -3 0
-2 -4 1 -10z" />
    <path d="M4030 3900 c0 -7 3 -10 7 -7 3 4 3 10 0 14 -4 3 -7 0 -7 -7z" />
    <path d="M7200 3900 c0 -7 3 -10 7 -7 3 4 3 10 0 14 -4 3 -7 0 -7 -7z" />
    <path d="M9350 3900 c0 -7 3 -10 7 -7 3 4 3 10 0 14 -4 3 -7 0 -7 -7z" />
    <path d="M10229 3863 l-14 -18 18 14 c16 13 21 21 13 21 -2 0 -10 -8 -17 -17z" />
    <path d="M4365 3840 c3 -5 8 -10 11 -10 3 0 2 5 -1 10 -3 6 -8 10 -11 10 -3 0
-2 -4 1 -10z" />
    <path d="M8675 3830 c3 -5 8 -10 11 -10 3 0 2 5 -1 10 -3 6 -8 10 -11 10 -3 0
-2 -4 1 -10z" />
    <path d="M9294 3828 l-7 -11 11 7 c7 4 12 9 12 12 0 8 -9 4 -16 -8z" />
    <path d="M10274 3828 l-7 -11 11 7 c7 4 12 9 12 12 0 8 -9 4 -16 -8z" />
    <path d="M7144 3808 l-7 -11 11 7 c7 4 12 9 12 12 0 8 -9 4 -16 -8z" />
    <path d="M9745 3810 c3 -5 8 -10 11 -10 3 0 2 5 -1 10 -3 6 -8 10 -11 10 -3 0
-2 -4 1 -10z" />
    <path d="M6845 3800 c3 -5 8 -10 11 -10 3 0 2 5 -1 10 -3 6 -8 10 -11 10 -3 0
-2 -4 1 -10z" />
    <path d="M8855 3800 c3 -5 8 -10 11 -10 3 0 2 5 -1 10 -3 6 -8 10 -11 10 -3 0
-2 -4 1 -10z" />
    <path d="M9694 3778 l-7 -11 11 7 c7 4 12 9 12 12 0 8 -9 4 -16 -8z" />
    <path d="M4135 3770 c3 -5 8 -10 11 -10 3 0 2 5 -1 10 -3 6 -8 10 -11 10 -3 0
-2 -4 1 -10z" />
    <path d="M9224 3768 l-7 -11 11 7 c7 4 12 9 12 12 0 8 -9 4 -16 -8z" />
    <path d="M10214 3768 l-7 -11 11 7 c7 4 12 9 12 12 0 8 -9 4 -16 -8z" />
    <path d="M9835 3750 c3 -5 8 -10 11 -10 3 0 2 5 -1 10 -3 6 -8 10 -11 10 -3 0
-2 -4 1 -10z" />
    <path d="M10924 3728 l-7 -11 11 7 c12 7 16 16 8 16 -3 0 -8 -5 -12 -12z" />
    <path d="M8953 3703 c4 -3 10 -3 14 0 3 4 0 7 -7 7 -7 0 -10 -3 -7 -7z" />
    <path d="M9973 3703 c4 -3 10 -3 14 0 3 4 0 7 -7 7 -7 0 -10 -3 -7 -7z" />
    <path d="M10784 3488 l-7 -11 11 7 c12 7 16 16 8 16 -3 0 -8 -5 -12 -12z" />
    <path d="M8110 3390 c0 -7 3 -10 7 -7 3 4 3 10 0 14 -4 3 -7 0 -7 -7z" />
    <path d="M7575 3170 c3 -5 8 -10 11 -10 3 0 2 5 -1 10 -3 6 -8 10 -11 10 -3 0
-2 -4 1 -10z" />
    <path d="M10904 3158 l-7 -11 11 7 c12 7 16 16 8 16 -3 0 -8 -5 -12 -12z" />
    <path d="M10184 2708 l-7 -11 11 7 c7 4 12 9 12 12 0 8 -9 4 -16 -8z" />
    <path d="M10554 2708 l-7 -11 11 7 c12 7 16 16 8 16 -3 0 -8 -5 -12 -12z" />
    <path d="M10089 2613 l-14 -18 18 14 c16 13 21 21 13 21 -2 0 -10 -8 -17 -17z" />
    <path d="M10024 2548 l-19 -23 23 19 c12 11 22 21 22 23 0 8 -8 2 -26 -19z" />
    <path d="M9864 2398 l-7 -11 11 7 c12 7 16 16 8 16 -3 0 -8 -5 -12 -12z" />
    <path d="M9774 2318 l-19 -23 23 19 c21 18 27 26 19 26 -2 0 -12 -10 -23 -22z" />
    <path d="M9939 2113 l-14 -18 18 14 c16 13 21 21 13 21 -2 0 -10 -8 -17 -17z" />
    <path d="M3705 2010 c3 -5 8 -10 11 -10 3 0 2 5 -1 10 -3 6 -8 10 -11 10 -3 0
-2 -4 1 -10z" />
    <path d="M9334 1988 l-7 -11 11 7 c12 7 16 16 8 16 -3 0 -8 -5 -12 -12z" />
    <path d="M9299 1963 l-14 -18 18 14 c16 13 21 21 13 21 -2 0 -10 -8 -17 -17z" />
    <path d="M9194 1898 l-7 -11 11 7 c12 7 16 16 8 16 -3 0 -8 -5 -12 -12z" />
    <path d="M9574 1838 l-7 -11 11 7 c12 7 16 16 8 16 -3 0 -8 -5 -12 -12z" />
    <path d="M3985 1770 c3 -5 8 -10 11 -10 3 0 2 5 -1 10 -3 6 -8 10 -11 10 -3 0
-2 -4 1 -10z" />
    <path d="M9374 1708 l-7 -11 11 7 c12 7 16 16 8 16 -3 0 -8 -5 -12 -12z" />
    <path d="M4135 1670 c3 -5 8 -10 11 -10 3 0 2 5 -1 10 -3 6 -8 10 -11 10 -3 0
-2 -4 1 -10z" />
    <path d="M8593 1573 c4 -3 10 -3 14 0 3 4 0 7 -7 7 -7 0 -10 -3 -7 -7z" />
    <path d="M9143 1573 c4 -3 10 -3 14 0 3 4 0 7 -7 7 -7 0 -10 -3 -7 -7z" />
    <path d="M4963 1383 c4 -3 10 -3 14 0 3 4 0 7 -7 7 -7 0 -10 -3 -7 -7z" />
    <path d="M5063 1353 c4 -3 10 -3 14 0 3 4 0 7 -7 7 -7 0 -10 -3 -7 -7z" />
    <path d="M7973 1343 c4 -3 10 -3 14 0 3 4 0 7 -7 7 -7 0 -10 -3 -7 -7z" />
    <path d="M5133 1333 c4 -3 10 -3 14 0 3 4 0 7 -7 7 -7 0 -10 -3 -7 -7z" />
    <path d="M5213 1183 c4 -3 10 -3 14 0 3 4 0 7 -7 7 -7 0 -10 -3 -7 -7z" />
    <path d="M5493 1103 c4 -3 10 -3 14 0 3 4 0 7 -7 7 -7 0 -10 -3 -7 -7z" />
    <path d="M5523 1093 c4 -3 10 -3 14 0 3 4 0 7 -7 7 -7 0 -10 -3 -7 -7z" />
    <path d="M5813 1033 c4 -3 10 -3 14 0 3 4 0 7 -7 7 -7 0 -10 -3 -7 -7z" />
  </g>
  <g transform="translate(0.000000,1224.000000) scale(0.100000,-0.100000)" fill="#efefef" stroke="none">
    <path d="M6309 11233 l-14 -18 18 14 c16 13 21 21 13 21 -2 0 -10 -8 -17 -17z" />
    <path d="M6325 11020 c3 -5 8 -10 11 -10 3 0 2 5 -1 10 -3 6 -8 10 -11 10 -3
0 -2 -4 1 -10z" />
    <path d="M6383 10993 c4 -3 10 -3 14 0 3 4 0 7 -7 7 -7 0 -10 -3 -7 -7z" />
    <path d="M9745 10210 c3 -5 8 -10 11 -10 3 0 2 5 -1 10 -3 6 -8 10 -11 10 -3
0 -2 -4 1 -10z" />
    <path d="M9515 10140 c3 -5 8 -10 11 -10 3 0 2 5 -1 10 -3 6 -8 10 -11 10 -3
0 -2 -4 1 -10z" />
    <path d="M9855 10130 c3 -5 8 -10 11 -10 3 0 2 5 -1 10 -3 6 -8 10 -11 10 -3
0 -2 -4 1 -10z" />
    <path d="M10015 10000 c3 -5 8 -10 11 -10 3 0 2 5 -1 10 -3 6 -8 10 -11 10 -3
0 -2 -4 1 -10z" />
    <path d="M10215 9820 c3 -5 8 -10 11 -10 3 0 2 5 -1 10 -3 6 -8 10 -11 10 -3
0 -2 -4 1 -10z" />
    <path d="M9915 9810 c3 -5 8 -10 11 -10 3 0 2 5 -1 10 -3 6 -8 10 -11 10 -3 0
-2 -4 1 -10z" />
    <path d="M10455 9580 c3 -5 8 -10 11 -10 3 0 2 5 -1 10 -3 6 -8 10 -11 10 -3
0 -2 -4 1 -10z" />
    <path d="M10215 9510 c3 -5 8 -10 11 -10 3 0 2 5 -1 10 -3 6 -8 10 -11 10 -3
0 -2 -4 1 -10z" />
    <path d="M4915 9480 c3 -5 8 -10 11 -10 3 0 2 5 -1 10 -3 6 -8 10 -11 10 -3 0
-2 -4 1 -10z" />
    <path d="M6645 9480 c3 -5 8 -10 11 -10 3 0 2 5 -1 10 -3 6 -8 10 -11 10 -3 0
-2 -4 1 -10z" />
    <path d="M4960 9446 c0 -2 8 -10 18 -17 l17 -14 -14 18 c-13 16 -21 21 -21 13z" />
    <path d="M10305 9410 c3 -5 8 -10 11 -10 3 0 2 5 -1 10 -3 6 -8 10 -11 10 -3
0 -2 -4 1 -10z" />
    <path d="M6525 9280 c3 -5 8 -10 11 -10 3 0 2 5 -1 10 -3 6 -8 10 -11 10 -3 0
-2 -4 1 -10z" />
    <path d="M7035 9220 c10 -11 20 -20 23 -20 3 0 -3 9 -13 20 -10 11 -20 20 -23
20 -3 0 3 -9 13 -20z" />
    <path d="M10465 9220 c3 -5 8 -10 11 -10 3 0 2 5 -1 10 -3 6 -8 10 -11 10 -3
0 -2 -4 1 -10z" />
    <path d="M6625 9180 c3 -5 8 -10 11 -10 3 0 2 5 -1 10 -3 6 -8 10 -11 10 -3 0
-2 -4 1 -10z" />
    <path d="M11055 8800 c3 -5 8 -10 11 -10 3 0 2 5 -1 10 -3 6 -8 10 -11 10 -3
0 -2 -4 1 -10z" />
    <path d="M6293 8573 c4 -3 10 -3 14 0 3 4 0 7 -7 7 -7 0 -10 -3 -7 -7z" />
    <path d="M6094 8518 l-19 -23 23 19 c21 18 27 26 19 26 -2 0 -12 -10 -23 -22z" />
    <path d="M6570 8400 c0 -7 3 -10 7 -7 3 4 3 10 0 14 -4 3 -7 0 -7 -7z" />
    <path d="M7785 8390 c3 -5 8 -10 11 -10 3 0 2 5 -1 10 -3 6 -8 10 -11 10 -3 0
-2 -4 1 -10z" />
    <path d="M6305 8010 c3 -5 8 -10 11 -10 3 0 2 5 -1 10 -3 6 -8 10 -11 10 -3 0
-2 -4 1 -10z" />
    <path d="M6494 8009 c-3 -6 -2 -15 3 -20 l9 -9 0 20 c0 23 -2 24 -12 9z" />
    <path d="M6555 7920 c3 -5 8 -10 11 -10 3 0 2 5 -1 10 -3 6 -8 10 -11 10 -3 0
-2 -4 1 -10z" />
    <path d="M6950 7920 c0 -7 3 -10 7 -7 3 4 3 10 0 14 -4 3 -7 0 -7 -7z" />
    <path d="M6323 7763 c4 -3 10 -3 14 0 3 4 0 7 -7 7 -7 0 -10 -3 -7 -7z" />
    <path d="M11360 7460 c0 -7 3 -10 7 -7 3 4 3 10 0 14 -4 3 -7 0 -7 -7z" />
    <path d="M11650 7420 c0 -7 3 -10 7 -7 3 4 3 10 0 14 -4 3 -7 0 -7 -7z" />
    <path d="M6669 7303 l-14 -18 18 14 c16 13 21 21 13 21 -2 0 -10 -8 -17 -17z" />
    <path d="M6994 7178 l-7 -11 11 7 c12 7 16 16 8 16 -3 0 -8 -5 -12 -12z" />
    <path d="M11430 7170 c0 -7 3 -10 7 -7 3 4 3 10 0 14 -4 3 -7 0 -7 -7z" />
    <path d="M7614 6348 l-7 -11 11 7 c12 7 16 16 8 16 -3 0 -8 -5 -12 -12z" />
    <path d="M8039 6303 l-14 -18 18 14 c16 13 21 21 13 21 -2 0 -10 -8 -17 -17z" />
    <path d="M7529 6253 l-14 -18 18 14 c9 7 17 15 17 17 0 8 -8 3 -21 -13z" />
    <path d="M5914 6168 l-7 -11 11 7 c12 7 16 16 8 16 -3 0 -8 -5 -12 -12z" />
    <path d="M5623 6033 c4 -3 10 -3 14 0 3 4 0 7 -7 7 -7 0 -10 -3 -7 -7z" />
    <path d="M7944 5298 l-7 -11 11 7 c7 4 12 9 12 12 0 8 -9 4 -16 -8z" />
    <path d="M3985 5270 c3 -5 8 -10 11 -10 3 0 2 5 -1 10 -3 6 -8 10 -11 10 -3 0
-2 -4 1 -10z" />
    <path d="M8160 5260 c0 -7 3 -10 7 -7 3 4 3 10 0 14 -4 3 -7 0 -7 -7z" />
    <path d="M4315 5220 c3 -5 8 -10 11 -10 3 0 2 5 -1 10 -3 6 -8 10 -11 10 -3 0
-2 -4 1 -10z" />
    <path d="M7945 5100 c3 -5 8 -10 11 -10 3 0 2 5 -1 10 -3 6 -8 10 -11 10 -3 0
-2 -4 1 -10z" />
    <path d="M3994 4728 l-7 -11 11 7 c12 7 16 16 8 16 -3 0 -8 -5 -12 -12z" />
    <path d="M5385 4680 c3 -5 8 -10 11 -10 3 0 2 5 -1 10 -3 6 -8 10 -11 10 -3 0
-2 -4 1 -10z" />
    <path d="M6744 4678 l-7 -11 11 7 c7 4 12 9 12 12 0 8 -9 4 -16 -8z" />
    <path d="M5203 4673 c4 -3 10 -3 14 0 3 4 0 7 -7 7 -7 0 -10 -3 -7 -7z" />
    <path d="M7083 4663 c4 -3 10 -3 14 0 3 4 0 7 -7 7 -7 0 -10 -3 -7 -7z" />
    <path d="M5425 4650 c3 -5 8 -10 11 -10 3 0 2 5 -1 10 -3 6 -8 10 -11 10 -3 0
-2 -4 1 -10z" />
    <path d="M8714 4648 l-7 -11 11 7 c7 4 12 9 12 12 0 8 -9 4 -16 -8z" />
    <path d="M6654 4618 l-7 -11 11 7 c12 7 16 16 8 16 -3 0 -8 -5 -12 -12z" />
    <path d="M9674 4618 l-7 -11 11 7 c7 4 12 9 12 12 0 8 -9 4 -16 -8z" />
    <path d="M7330 4616 c0 -2 8 -10 18 -17 l17 -14 -14 18 c-13 16 -21 21 -21 13z" />
    <path d="M9305 4590 c3 -5 8 -10 11 -10 3 0 2 5 -1 10 -3 6 -8 10 -11 10 -3 0
-2 -4 1 -10z" />
    <path d="M6594 4558 l-7 -11 11 7 c7 4 12 9 12 12 0 8 -9 4 -16 -8z" />
    <path d="M11230 4400 c0 -7 3 -10 7 -7 3 4 3 10 0 14 -4 3 -7 0 -7 -7z" />
    <path d="M7490 4340 c0 -7 3 -10 7 -7 3 4 3 10 0 14 -4 3 -7 0 -7 -7z" />
    <path d="M10245 4280 c3 -5 8 -10 11 -10 3 0 2 5 -1 10 -3 6 -8 10 -11 10 -3
0 -2 -4 1 -10z" />
    <path d="M9873 4143 c4 -3 10 -3 14 0 3 4 0 7 -7 7 -7 0 -10 -3 -7 -7z" />
    <path d="M11124 4138 l-7 -11 11 7 c12 7 16 16 8 16 -3 0 -8 -5 -12 -12z" />
    <path d="M4710 4060 c0 -7 3 -10 7 -7 3 4 3 10 0 14 -4 3 -7 0 -7 -7z" />
    <path d="M9400 4030 c0 -7 3 -10 7 -7 3 4 3 10 0 14 -4 3 -7 0 -7 -7z" />
    <path d="M7424 3948 l-7 -11 11 7 c7 4 12 9 12 12 0 8 -9 4 -16 -8z" />
    <path d="M9284 3908 l-7 -11 11 7 c7 4 12 9 12 12 0 8 -9 4 -16 -8z" />
    <path d="M10320 3900 c0 -7 3 -10 7 -7 3 4 3 10 0 14 -4 3 -7 0 -7 -7z" />
    <path d="M4340 3890 c0 -7 3 -10 7 -7 3 4 3 10 0 14 -4 3 -7 0 -7 -7z" />
    <path d="M9344 3888 l-7 -11 11 7 c7 4 12 9 12 12 0 8 -9 4 -16 -8z" />
    <path d="M4065 3840 c3 -5 8 -10 11 -10 3 0 2 5 -1 10 -3 6 -8 10 -11 10 -3 0
-2 -4 1 -10z" />
    <path d="M5015 3830 c3 -5 8 -10 11 -10 3 0 2 5 -1 10 -3 6 -8 10 -11 10 -3 0
-2 -4 1 -10z" />
    <path d="M5394 3828 l-7 -11 11 7 c7 4 12 9 12 12 0 8 -9 4 -16 -8z" />
    <path d="M6820 3826 c0 -2 8 -10 18 -17 l17 -14 -14 18 c-13 16 -21 21 -21 13z" />
    <path d="M4875 3810 c3 -5 8 -10 11 -10 3 0 2 5 -1 10 -3 6 -8 10 -11 10 -3 0
-2 -4 1 -10z" />
    <path d="M6685 3800 c3 -5 8 -10 11 -10 3 0 2 5 -1 10 -3 6 -8 10 -11 10 -3 0
-2 -4 1 -10z" />
    <path d="M8705 3800 c3 -5 8 -10 11 -10 3 0 2 5 -1 10 -3 6 -8 10 -11 10 -3 0
-2 -4 1 -10z" />
    <path d="M9103 3713 c4 -3 10 -3 14 0 3 4 0 7 -7 7 -7 0 -10 -3 -7 -7z" />
    <path d="M7989 3183 l-14 -18 18 14 c9 7 17 15 17 17 0 8 -8 3 -21 -13z" />
    <path d="M7849 3163 l-14 -18 18 14 c9 7 17 15 17 17 0 8 -8 3 -21 -13z" />
    <path d="M10884 3128 l-7 -11 11 7 c12 7 16 16 8 16 -3 0 -8 -5 -12 -12z" />
    <path d="M7645 3110 c3 -5 8 -10 11 -10 3 0 2 5 -1 10 -3 6 -8 10 -11 10 -3 0
-2 -4 1 -10z" />
    <path d="M10814 3028 l-7 -11 11 7 c12 7 16 16 8 16 -3 0 -8 -5 -12 -12z" />
    <path d="M10779 2983 l-14 -18 18 14 c16 13 21 21 13 21 -2 0 -10 -8 -17 -17z" />
    <path d="M10394 2948 l-7 -11 11 7 c12 7 16 16 8 16 -3 0 -8 -5 -12 -12z" />
    <path d="M10264 2798 l-7 -11 11 7 c12 7 16 16 8 16 -3 0 -8 -5 -12 -12z" />
    <path d="M10224 2758 l-7 -11 11 7 c12 7 16 16 8 16 -3 0 -8 -5 -12 -12z" />
    <path d="M10509 2653 l-24 -28 28 24 c15 14 27 26 27 28 0 8 -8 1 -31 -24z" />
    <path d="M10059 2583 l-24 -28 28 24 c25 23 32 31 24 31 -2 0 -14 -12 -28 -27z" />
    <path d="M10134 2278 l-7 -11 11 7 c12 7 16 16 8 16 -3 0 -8 -5 -12 -12z" />
    <path d="M10044 2198 l-7 -11 11 7 c12 7 16 16 8 16 -3 0 -8 -5 -12 -12z" />
    <path d="M9574 2158 l-7 -11 11 7 c12 7 16 16 8 16 -3 0 -8 -5 -12 -12z" />
    <path d="M9544 2138 l-7 -11 11 7 c12 7 16 16 8 16 -3 0 -8 -5 -12 -12z" />
    <path d="M9974 2138 l-7 -11 11 7 c12 7 16 16 8 16 -3 0 -8 -5 -12 -12z" />
    <path d="M9784 1988 l-7 -11 11 7 c12 7 16 16 8 16 -3 0 -8 -5 -12 -12z" />
    <path d="M9744 1958 l-7 -11 11 7 c12 7 16 16 8 16 -3 0 -8 -5 -12 -12z" />
    <path d="M9704 1928 l-7 -11 11 7 c12 7 16 16 8 16 -3 0 -8 -5 -12 -12z" />
    <path d="M3825 1880 c3 -5 8 -10 11 -10 3 0 2 5 -1 10 -3 6 -8 10 -11 10 -3 0
-2 -4 1 -10z" />
    <path d="M3955 1790 c3 -5 8 -10 11 -10 3 0 2 5 -1 10 -3 6 -8 10 -11 10 -3 0
-2 -4 1 -10z" />
    <path d="M4405 1610 c3 -5 8 -10 11 -10 3 0 2 5 -1 10 -3 6 -8 10 -11 10 -3 0
-2 -4 1 -10z" />
    <path d="M5273 1293 c4 -3 10 -3 14 0 3 4 0 7 -7 7 -7 0 -10 -3 -7 -7z" />
    <path d="M7753 1283 c4 -3 10 -3 14 0 3 4 0 7 -7 7 -7 0 -10 -3 -7 -7z" />
    <path d="M5643 1213 c4 -3 10 -3 14 0 3 4 0 7 -7 7 -7 0 -10 -3 -7 -7z" />
    <path d="M8253 1193 c4 -3 10 -3 14 0 3 4 0 7 -7 7 -7 0 -10 -3 -7 -7z" />
    <path d="M5303 1153 c4 -3 10 -3 14 0 3 4 0 7 -7 7 -7 0 -10 -3 -7 -7z" />
    <path d="M6083 1153 c4 -3 10 -3 14 0 3 4 0 7 -7 7 -7 0 -10 -3 -7 -7z" />
    <path d="M5753 1043 c4 -3 10 -3 14 0 3 4 0 7 -7 7 -7 0 -10 -3 -7 -7z" />
    <path d="M7193 973 c4 -3 10 -3 14 0 3 4 0 7 -7 7 -7 0 -10 -3 -7 -7z" />
  </g>
  <g transform="translate(0.000000,1224.000000) scale(0.100000,-0.100000)" fill="#9f9f9f" stroke="none">
    <path d="M7293 11063 c4 -3 10 -3 14 0 3 4 0 7 -7 7 -7 0 -10 -3 -7 -7z" />
    <path d="M9215 10550 c3 -5 8 -10 11 -10 3 0 2 5 -1 10 -3 6 -8 10 -11 10 -3
0 -2 -4 1 -10z" />
    <path d="M9335 10480 c3 -5 8 -10 11 -10 3 0 2 5 -1 10 -3 6 -8 10 -11 10 -3
0 -2 -4 1 -10z" />
    <path d="M10025 9990 c3 -5 8 -10 11 -10 3 0 2 5 -1 10 -3 6 -8 10 -11 10 -3
0 -2 -4 1 -10z" />
    <path d="M10170 9866 c0 -2 8 -10 18 -17 l17 -14 -14 18 c-13 16 -21 21 -21
13z" />
    <path d="M9905 9820 c3 -5 8 -10 11 -10 3 0 2 5 -1 10 -3 6 -8 10 -11 10 -3 0
-2 -4 1 -10z" />
    <path d="M10350 9686 c0 -2 8 -10 18 -17 l17 -14 -14 18 c-13 16 -21 21 -21
13z" />
    <path d="M10105 9630 c3 -5 8 -10 11 -10 3 0 2 5 -1 10 -3 6 -8 10 -11 10 -3
0 -2 -4 1 -10z" />
    <path d="M5933 9523 c4 -3 10 -3 14 0 3 4 0 7 -7 7 -7 0 -10 -3 -7 -7z" />
    <path d="M10225 9500 c3 -5 8 -10 11 -10 3 0 2 5 -1 10 -3 6 -8 10 -11 10 -3
0 -2 -4 1 -10z" />
    <path d="M4985 9420 c3 -5 8 -10 11 -10 3 0 2 5 -1 10 -3 6 -8 10 -11 10 -3 0
-2 -4 1 -10z" />
    <path d="M6515 9290 c3 -5 8 -10 11 -10 3 0 2 5 -1 10 -3 6 -8 10 -11 10 -3 0
-2 -4 1 -10z" />
    <path d="M7115 9130 c3 -5 8 -10 11 -10 3 0 2 5 -1 10 -3 6 -8 10 -11 10 -3 0
-2 -4 1 -10z" />
    <path d="M6395 8530 c3 -5 8 -10 11 -10 3 0 2 5 -1 10 -3 6 -8 10 -11 10 -3 0
-2 -4 1 -10z" />
    <path d="M6094 8518 l-7 -11 11 7 c7 4 12 9 12 12 0 8 -9 4 -16 -8z" />
    <path d="M6960 8410 c0 -7 3 -10 7 -7 3 4 3 10 0 14 -4 3 -7 0 -7 -7z" />
    <path d="M6335 8200 c3 -5 8 -10 11 -10 3 0 2 5 -1 10 -3 6 -8 10 -11 10 -3 0
-2 -4 1 -10z" />
    <path d="M8005 8200 c3 -5 8 -10 11 -10 3 0 2 5 -1 10 -3 6 -8 10 -11 10 -3 0
-2 -4 1 -10z" />
    <path d="M6490 8000 c0 -7 3 -10 7 -7 3 4 3 10 0 14 -4 3 -7 0 -7 -7z" />
    <path d="M6545 7930 c3 -5 8 -10 11 -10 3 0 2 5 -1 10 -3 6 -8 10 -11 10 -3 0
-2 -4 1 -10z" />
    <path d="M5975 7870 c3 -5 8 -10 11 -10 3 0 2 5 -1 10 -3 6 -8 10 -11 10 -3 0
-2 -4 1 -10z" />
    <path d="M6930 7830 c0 -7 3 -10 7 -7 3 4 3 10 0 14 -4 3 -7 0 -7 -7z" />
    <path d="M6083 7783 c4 -3 10 -3 14 0 3 4 0 7 -7 7 -7 0 -10 -3 -7 -7z" />
    <path d="M7294 7538 l-7 -11 11 7 c12 7 16 16 8 16 -3 0 -8 -5 -12 -12z" />
    <path d="M7004 7188 l-7 -11 11 7 c12 7 16 16 8 16 -3 0 -8 -5 -12 -12z" />
    <path d="M4954 7108 l-19 -23 23 19 c21 18 27 26 19 26 -2 0 -12 -10 -23 -22z" />
    <path d="M7579 6303 l-14 -18 18 14 c16 13 21 21 13 21 -2 0 -10 -8 -17 -17z" />
    <path d="M7509 6233 l-14 -18 18 14 c9 7 17 15 17 17 0 8 -8 3 -21 -13z" />
    <path d="M6843 6043 c4 -3 10 -3 14 0 3 4 0 7 -7 7 -7 0 -10 -3 -7 -7z" />
    <path d="M11700 4970 c0 -7 3 -10 7 -7 3 4 3 10 0 14 -4 3 -7 0 -7 -7z" />
    <path d="M4380 4950 c0 -7 3 -10 7 -7 3 4 3 10 0 14 -4 3 -7 0 -7 -7z" />
    <path d="M4344 4848 l-7 -11 11 7 c7 4 12 9 12 12 0 8 -9 4 -16 -8z" />
    <path d="M10033 4723 c4 -3 10 -3 14 0 3 4 0 7 -7 7 -7 0 -10 -3 -7 -7z" />
    <path d="M7145 4630 c3 -5 8 -10 11 -10 3 0 2 5 -1 10 -3 6 -8 10 -11 10 -3 0
-2 -4 1 -10z" />
    <path d="M9265 4630 c3 -5 8 -10 11 -10 3 0 2 5 -1 10 -3 6 -8 10 -11 10 -3 0
-2 -4 1 -10z" />
    <path d="M9295 4600 c3 -5 8 -10 11 -10 3 0 2 5 -1 10 -3 6 -8 10 -11 10 -3 0
-2 -4 1 -10z" />
    <path d="M5495 4580 c3 -5 8 -10 11 -10 3 0 2 5 -1 10 -3 6 -8 10 -11 10 -3 0
-2 -4 1 -10z" />
    <path d="M4185 4450 c3 -5 8 -10 11 -10 3 0 2 5 -1 10 -3 6 -8 10 -11 10 -3 0
-2 -4 1 -10z" />
    <path d="M10255 4270 c3 -5 8 -10 11 -10 3 0 2 5 -1 10 -3 6 -8 10 -11 10 -3
0 -2 -4 1 -10z" />
    <path d="M9234 3848 l-19 -23 23 19 c12 11 22 21 22 23 0 8 -8 2 -26 -19z" />
    <path d="M10214 3848 l-7 -11 11 7 c7 4 12 9 12 12 0 8 -9 4 -16 -8z" />
    <path d="M6815 3830 c3 -5 8 -10 11 -10 3 0 2 5 -1 10 -3 6 -8 10 -11 10 -3 0
-2 -4 1 -10z" />
    <path d="M10434 2998 l-7 -11 11 7 c12 7 16 16 8 16 -3 0 -8 -5 -12 -12z" />
    <path d="M10404 2958 l-7 -11 11 7 c12 7 16 16 8 16 -3 0 -8 -5 -12 -12z" />
    <path d="M10274 2808 l-7 -11 11 7 c12 7 16 16 8 16 -3 0 -8 -5 -12 -12z" />
    <path d="M10584 2738 l-7 -11 11 7 c12 7 16 16 8 16 -3 0 -8 -5 -12 -12z" />
    <path d="M10134 2658 l-19 -23 23 19 c12 11 22 21 22 23 0 8 -8 2 -26 -19z" />
    <path d="M10514 2658 l-7 -11 11 7 c12 7 16 16 8 16 -3 0 -8 -5 -12 -12z" />
    <path d="M9994 2518 l-19 -23 23 19 c21 18 27 26 19 26 -2 0 -12 -10 -23 -22z" />
    <path d="M10314 2448 l-7 -11 11 7 c12 7 16 16 8 16 -3 0 -8 -5 -12 -12z" />
    <path d="M9664 2228 l-7 -11 11 7 c12 7 16 16 8 16 -3 0 -8 -5 -12 -12z" />
    <path d="M9884 2068 l-7 -11 11 7 c12 7 16 16 8 16 -3 0 -8 -5 -12 -12z" />
    <path d="M9064 1818 l-7 -11 11 7 c12 7 16 16 8 16 -3 0 -8 -5 -12 -12z" />
    <path d="M8944 1748 l-7 -11 11 7 c12 7 16 16 8 16 -3 0 -8 -5 -12 -12z" />
    <path d="M4525 1460 c3 -5 8 -10 11 -10 3 0 2 5 -1 10 -3 6 -8 10 -11 10 -3 0
-2 -4 1 -10z" />
    <path d="M6073 1153 c4 -3 10 -3 14 0 3 4 0 7 -7 7 -7 0 -10 -3 -7 -7z" />
  </g>
  <g transform="translate(0.000000,1224.000000) scale(0.100000,-0.100000)" fill="#5f5f5f" stroke="none">
    <path d="M6315 11030 c3 -5 8 -10 11 -10 3 0 2 5 -1 10 -3 6 -8 10 -11 10 -3
0 -2 -4 1 -10z" />
    <path d="M9865 10120 c3 -5 8 -10 11 -10 3 0 2 5 -1 10 -3 6 -8 10 -11 10 -3
0 -2 -4 1 -10z" />
    <path d="M10285 9750 c10 -11 20 -20 23 -20 3 0 -3 9 -13 20 -10 11 -20 20
-23 20 -3 0 3 -9 13 -20z" />
    <path d="M10495 9530 c3 -5 8 -10 11 -10 3 0 2 5 -1 10 -3 6 -8 10 -11 10 -3
0 -2 -4 1 -10z" />
    <path d="M10315 9400 c3 -5 8 -10 11 -10 3 0 2 5 -1 10 -3 6 -8 10 -11 10 -3
0 -2 -4 1 -10z" />
    <path d="M6635 9170 c3 -5 8 -10 11 -10 3 0 2 5 -1 10 -3 6 -8 10 -11 10 -3 0
-2 -4 1 -10z" />
    <path d="M7995 8210 c3 -5 8 -10 11 -10 3 0 2 5 -1 10 -3 6 -8 10 -11 10 -3 0
-2 -4 1 -10z" />
    <path d="M6503 6993 c4 -3 10 -3 14 0 3 4 0 7 -7 7 -7 0 -10 -3 -7 -7z" />
    <path d="M7880 6960 c0 -7 3 -10 7 -7 3 4 3 10 0 14 -4 3 -7 0 -7 -7z" />
    <path d="M8054 6318 l-7 -11 11 7 c7 4 12 9 12 12 0 8 -9 4 -16 -8z" />
    <path d="M5638 6033 c7 -3 16 -2 19 1 4 3 -2 6 -13 5 l-19 -1 13 -5z" />
    <path d="M9993 4673 c4 -3 10 -3 14 0 3 4 0 7 -7 7 -7 0 -10 -3 -7 -7z" />
    <path d="M7325 4620 c3 -5 8 -10 11 -10 3 0 2 5 -1 10 -3 6 -8 10 -11 10 -3 0
-2 -4 1 -10z" />
    <path d="M9759 4613 l-14 -18 18 14 c16 13 21 21 13 21 -2 0 -10 -8 -17 -17z" />
    <path d="M4839 4593 l-14 -18 18 14 c16 13 21 21 13 21 -2 0 -10 -8 -17 -17z" />
    <path d="M5330 4390 c0 -7 3 -10 7 -7 3 4 3 10 0 14 -4 3 -7 0 -7 -7z" />
    <path d="M10265 4260 c3 -5 8 -10 11 -10 3 0 2 5 -1 10 -3 6 -8 10 -11 10 -3
0 -2 -4 1 -10z" />
    <path d="M6480 4170 c0 -7 3 -10 7 -7 3 4 3 10 0 14 -4 3 -7 0 -7 -7z" />
    <path d="M9750 3896 c0 -2 8 -10 18 -17 l17 -14 -14 18 c-13 16 -21 21 -21 13z" />
    <path d="M4800 3886 c0 -2 8 -10 18 -17 l17 -14 -14 18 c-13 16 -21 21 -21 13z" />
    <path d="M9254 3868 l-7 -11 11 7 c7 4 12 9 12 12 0 8 -9 4 -16 -8z" />
    <path d="M4375 3830 c3 -5 8 -10 11 -10 3 0 2 5 -1 10 -3 6 -8 10 -11 10 -3 0
-2 -4 1 -10z" />
    <path d="M10194 3828 l-7 -11 11 7 c7 4 12 9 12 12 0 8 -9 4 -16 -8z" />
    <path d="M8845 3810 c3 -5 8 -10 11 -10 3 0 2 5 -1 10 -3 6 -8 10 -11 10 -3 0
-2 -4 1 -10z" />
    <path d="M8785 3750 c3 -5 8 -10 11 -10 3 0 2 5 -1 10 -3 6 -8 10 -11 10 -3 0
-2 -4 1 -10z" />
    <path d="M7910 3320 c0 -7 3 -10 7 -7 3 4 3 10 0 14 -4 3 -7 0 -7 -7z" />
    <path d="M9974 2498 l-7 -11 11 7 c12 7 16 16 8 16 -3 0 -8 -5 -12 -12z" />
    <path d="M9879 2413 l-14 -18 18 14 c16 13 21 21 13 21 -2 0 -10 -8 -17 -17z" />
    <path d="M10154 2298 l-7 -11 11 7 c12 7 16 16 8 16 -3 0 -8 -5 -12 -12z" />
    <path d="M7513 1013 c4 -3 10 -3 14 0 3 4 0 7 -7 7 -7 0 -10 -3 -7 -7z" />
  </g>
  <g transform="translate(0.000000,1224.000000) scale(0.100000,-0.100000)" fill="#1f1f1f" stroke="none">
    <path d="M7193 11153 c4 -3 10 -3 14 0 3 4 0 7 -7 7 -7 0 -10 -3 -7 -7z" />
    <path d="M8383 10913 c4 -3 10 -3 14 0 3 4 0 7 -7 7 -7 0 -10 -3 -7 -7z" />
    <path d="M6950 8490 c0 -7 3 -10 7 -7 3 4 3 10 0 14 -4 3 -7 0 -7 -7z" />
    <path d="M6389 8363 l-14 -18 18 14 c9 7 17 15 17 17 0 8 -8 3 -21 -13z" />
    <path d="M7850 8346 c0 -2 8 -10 18 -17 l17 -14 -14 18 c-13 16 -21 21 -21 13z" />
    <path d="M6014 8198 l-7 -11 11 7 c12 7 16 16 8 16 -3 0 -8 -5 -12 -12z" />
    <path d="M6180 8176 c0 -2 8 -10 18 -17 l17 -14 -14 18 c-13 16 -21 21 -21 13z" />
    <path d="M6520 8150 c0 -7 3 -10 7 -7 3 4 3 10 0 14 -4 3 -7 0 -7 -7z" />
    <path d="M5954 8138 l-7 -11 11 7 c7 4 12 9 12 12 0 8 -9 4 -16 -8z" />
    <path d="M6463 8023 c4 -3 10 -3 14 0 3 4 0 7 -7 7 -7 0 -10 -3 -7 -7z" />
    <path d="M6095 7950 c3 -5 8 -10 11 -10 3 0 2 5 -1 10 -3 6 -8 10 -11 10 -3 0
-2 -4 1 -10z" />
    <path d="M6263 7823 c4 -3 10 -3 14 0 3 4 0 7 -7 7 -7 0 -10 -3 -7 -7z" />
    <path d="M7860 7600 c0 -7 3 -10 7 -7 3 4 3 10 0 14 -4 3 -7 0 -7 -7z" />
    <path d="M11410 7270 c0 -7 3 -10 7 -7 3 4 3 10 0 14 -4 3 -7 0 -7 -7z" />
    <path d="M11450 7070 c0 -7 3 -10 7 -7 3 4 3 10 0 14 -4 3 -7 0 -7 -7z" />
    <path d="M7914 6198 l-7 -11 11 7 c12 7 16 16 8 16 -3 0 -8 -5 -12 -12z" />
    <path d="M7314 6108 l-7 -11 11 7 c12 7 16 16 8 16 -3 0 -8 -5 -12 -12z" />
    <path d="M8170 5180 c0 -7 3 -10 7 -7 3 4 3 10 0 14 -4 3 -7 0 -7 -7z" />
    <path d="M7490 4130 c0 -7 3 -10 7 -7 3 4 3 10 0 14 -4 3 -7 0 -7 -7z" />
    <path d="M5504 3858 l-7 -11 11 7 c7 4 12 9 12 12 0 8 -9 4 -16 -8z" />
    <path d="M4075 3830 c3 -5 8 -10 11 -10 3 0 2 5 -1 10 -3 6 -8 10 -11 10 -3 0
-2 -4 1 -10z" />
    <path d="M9785 3780 c3 -5 8 -10 11 -10 3 0 2 5 -1 10 -3 6 -8 10 -11 10 -3 0
-2 -4 1 -10z" />
    <path d="M7735 3150 c3 -5 8 -10 11 -10 3 0 2 5 -1 10 -3 6 -8 10 -11 10 -3 0
-2 -4 1 -10z" />
    <path d="M10444 3008 l-7 -11 11 7 c12 7 16 16 8 16 -3 0 -8 -5 -12 -12z" />
    <path d="M3885 1840 c3 -5 8 -10 11 -10 3 0 2 5 -1 10 -3 6 -8 10 -11 10 -3 0
-2 -4 1 -10z" />
    <path d="M4585 1530 c3 -5 8 -10 11 -10 3 0 2 5 -1 10 -3 6 -8 10 -11 10 -3 0
-2 -4 1 -10z" />
    <path d="M4823 1433 c4 -3 10 -3 14 0 3 4 0 7 -7 7 -7 0 -10 -3 -7 -7z" />
    <path d="M5563 1083 c4 -3 10 -3 14 0 3 4 0 7 -7 7 -7 0 -10 -3 -7 -7z" />
    <path d="M7663 1043 c4 -3 10 -3 14 0 3 4 0 7 -7 7 -7 0 -10 -3 -7 -7z" />
    <path d="M5913 1013 c4 -3 10 -3 14 0 3 4 0 7 -7 7 -7 0 -10 -3 -7 -7z" />
  </g>
  <g transform="translate(0.000000,1224.000000) scale(0.100000,-0.100000)" fill="#cfcfcf" stroke="none">
    <path d="M7213 11153 c4 -3 10 -3 14 0 3 4 0 7 -7 7 -7 0 -10 -3 -7 -7z" />
    <path d="M6534 11058 l-7 -11 11 7 c12 7 16 16 8 16 -3 0 -8 -5 -12 -12z" />
    <path d="M10225 9810 c3 -5 8 -10 11 -10 3 0 2 5 -1 10 -3 6 -8 10 -11 10 -3
0 -2 -4 1 -10z" />
    <path d="M10775 9200 c3 -5 8 -10 11 -10 3 0 2 5 -1 10 -3 6 -8 10 -11 10 -3
0 -2 -4 1 -10z" />
    <path d="M6685 9110 c3 -5 8 -10 11 -10 3 0 2 5 -1 10 -3 6 -8 10 -11 10 -3 0
-2 -4 1 -10z" />
    <path d="M10645 8980 c3 -5 8 -10 11 -10 3 0 2 5 -1 10 -3 6 -8 10 -11 10 -3
0 -2 -4 1 -10z" />
    <path d="M6134 8548 l-7 -11 11 7 c12 7 16 16 8 16 -3 0 -8 -5 -12 -12z" />
    <path d="M7955 8250 c10 -11 20 -20 23 -20 3 0 -3 9 -13 20 -10 11 -20 20 -23
20 -3 0 3 -9 13 -20z" />
    <path d="M8065 8130 c3 -5 8 -10 11 -10 3 0 2 5 -1 10 -3 6 -8 10 -11 10 -3 0
-2 -4 1 -10z" />
    <path d="M7224 7418 l-7 -11 11 7 c12 7 16 16 8 16 -3 0 -8 -5 -12 -12z" />
    <path d="M7164 7338 l-7 -11 11 7 c12 7 16 16 8 16 -3 0 -8 -5 -12 -12z" />
    <path d="M11710 7170 c0 -7 3 -10 7 -7 3 4 3 10 0 14 -4 3 -7 0 -7 -7z" />
    <path d="M8109 6383 l-14 -18 18 14 c16 13 21 21 13 21 -2 0 -10 -8 -17 -17z" />
    <path d="M7564 6288 l-7 -11 11 7 c12 7 16 16 8 16 -3 0 -8 -5 -12 -12z" />
    <path d="M6515 6200 c3 -5 8 -10 11 -10 3 0 2 5 -1 10 -3 6 -8 10 -11 10 -3 0
-2 -4 1 -10z" />
    <path d="M7464 6198 l-7 -11 11 7 c12 7 16 16 8 16 -3 0 -8 -5 -12 -12z" />
    <path d="M7473 6023 c4 -3 10 -3 14 0 3 4 0 7 -7 7 -7 0 -10 -3 -7 -7z" />
    <path d="M3975 5280 c3 -5 8 -10 11 -10 3 0 2 5 -1 10 -3 6 -8 10 -11 10 -3 0
-2 -4 1 -10z" />
    <path d="M4944 4678 l-7 -11 11 7 c12 7 16 16 8 16 -3 0 -8 -5 -12 -12z" />
    <path d="M5103 4673 c4 -3 10 -3 14 0 3 4 0 7 -7 7 -7 0 -10 -3 -7 -7z" />
    <path d="M7043 4673 c4 -3 10 -3 14 0 3 4 0 7 -7 7 -7 0 -10 -3 -7 -7z" />
    <path d="M7355 4590 c3 -5 8 -10 11 -10 3 0 2 5 -1 10 -3 6 -8 10 -11 10 -3 0
-2 -4 1 -10z" />
    <path d="M7200 4540 c0 -7 3 -10 7 -7 3 4 3 10 0 14 -4 3 -7 0 -7 -7z" />
    <path d="M9715 4220 c3 -5 8 -10 11 -10 3 0 2 5 -1 10 -3 6 -8 10 -11 10 -3 0
-2 -4 1 -10z" />
    <path d="M8510 4120 c0 -7 3 -10 7 -7 3 4 3 10 0 14 -4 3 -7 0 -7 -7z" />
    <path d="M4835 3850 c10 -11 20 -20 23 -20 3 0 -3 9 -13 20 -10 11 -20 20 -23
20 -3 0 3 -9 13 -20z" />
    <path d="M10204 3838 l-7 -11 11 7 c7 4 12 9 12 12 0 8 -9 4 -16 -8z" />
    <path d="M5464 3808 l-7 -11 11 7 c7 4 12 9 12 12 0 8 -9 4 -16 -8z" />
    <path d="M10474 3048 l-7 -11 11 7 c12 7 16 16 8 16 -3 0 -8 -5 -12 -12z" />
    <path d="M10674 2848 l-7 -11 11 7 c12 7 16 16 8 16 -3 0 -8 -5 -12 -12z" />
    <path d="M10624 2788 l-7 -11 11 7 c7 4 12 9 12 12 0 8 -9 4 -16 -8z" />
    <path d="M10109 2633 l-14 -18 18 14 c16 13 21 21 13 21 -2 0 -10 -8 -17 -17z" />
    <path d="M10389 2523 l-14 -18 18 14 c16 13 21 21 13 21 -2 0 -10 -8 -17 -17z" />
    <path d="M10244 2378 l-7 -11 11 7 c12 7 16 16 8 16 -3 0 -8 -5 -12 -12z" />
    <path d="M10144 2288 l-7 -11 11 7 c12 7 16 16 8 16 -3 0 -8 -5 -12 -12z" />
    <path d="M3693 2013 c4 -3 10 -3 14 0 3 4 0 7 -7 7 -7 0 -10 -3 -7 -7z" />
    <path d="M7973 1113 c4 -3 10 -3 14 0 3 4 0 7 -7 7 -7 0 -10 -3 -7 -7z" />
    <path d="M7813 1073 c4 -3 10 -3 14 0 3 4 0 7 -7 7 -7 0 -10 -3 -7 -7z" />
  </g>
  <g transform="translate(0.000000,1224.000000) scale(0.100000,-0.100000)" fill="#2f2f2f" stroke="none">
    <path d="M6305 11040 c3 -5 8 -10 11 -10 3 0 2 5 -1 10 -3 6 -8 10 -11 10 -3
0 -2 -4 1 -10z" />
    <path d="M7703 10983 c4 -3 10 -3 14 0 3 4 0 7 -7 7 -7 0 -10 -3 -7 -7z" />
    <path d="M7773 10963 c4 -3 10 -3 14 0 3 4 0 7 -7 7 -7 0 -10 -3 -7 -7z" />
    <path d="M9635 10050 c3 -5 8 -10 11 -10 3 0 2 5 -1 10 -3 6 -8 10 -11 10 -3
0 -2 -4 1 -10z" />
    <path d="M10505 9170 c3 -5 8 -10 11 -10 3 0 2 5 -1 10 -3 6 -8 10 -11 10 -3
0 -2 -4 1 -10z" />
    <path d="M7145 9090 c3 -5 8 -10 11 -10 3 0 2 5 -1 10 -3 6 -8 10 -11 10 -3 0
-2 -4 1 -10z" />
    <path d="M6333 8563 c4 -3 10 -3 14 0 3 4 0 7 -7 7 -7 0 -10 -3 -7 -7z" />
    <path d="M6304 8348 l-7 -11 11 7 c7 4 12 9 12 12 0 8 -9 4 -16 -8z" />
    <path d="M6550 8130 c0 -7 3 -10 7 -7 3 4 3 10 0 14 -4 3 -7 0 -7 -7z" />
    <path d="M6535 7940 c3 -5 8 -10 11 -10 3 0 2 5 -1 10 -3 6 -8 10 -11 10 -3 0
-2 -4 1 -10z" />
    <path d="M6023 7793 c4 -3 10 -3 14 0 3 4 0 7 -7 7 -7 0 -10 -3 -7 -7z" />
    <path d="M11570 7690 c0 -7 3 -10 7 -7 3 4 3 10 0 14 -4 3 -7 0 -7 -7z" />
    <path d="M7154 7328 l-7 -11 11 7 c7 4 12 9 12 12 0 8 -9 4 -16 -8z" />
    <path d="M6619 7243 l-14 -18 18 14 c9 7 17 15 17 17 0 8 -8 3 -21 -13z" />
    <path d="M7549 6273 l-14 -18 18 14 c9 7 17 15 17 17 0 8 -8 3 -21 -13z" />
    <path d="M7454 6188 l-7 -11 11 7 c12 7 16 16 8 16 -3 0 -8 -5 -12 -12z" />
    <path d="M3883 4593 c4 -3 10 -3 14 0 3 4 0 7 -7 7 -7 0 -10 -3 -7 -7z" />
    <path d="M11280 4540 c0 -7 3 -10 7 -7 3 4 3 10 0 14 -4 3 -7 0 -7 -7z" />
    <path d="M6574 4528 l-7 -11 11 7 c7 4 12 9 12 12 0 8 -9 4 -16 -8z" />
    <path d="M10260 3990 c0 -7 3 -10 7 -7 3 4 3 10 0 14 -4 3 -7 0 -7 -7z" />
    <path d="M4980 3930 c0 -7 3 -10 7 -7 3 4 3 10 0 14 -4 3 -7 0 -7 -7z" />
    <path d="M7154 3818 l-7 -11 11 7 c7 4 12 9 12 12 0 8 -9 4 -16 -8z" />
    <path d="M9264 3798 l-7 -11 11 7 c7 4 12 9 12 12 0 8 -9 4 -16 -8z" />
    <path d="M6933 3703 c4 -3 10 -3 14 0 3 4 0 7 -7 7 -7 0 -10 -3 -7 -7z" />
    <path d="M10984 3278 l-7 -11 11 7 c12 7 16 16 8 16 -3 0 -8 -5 -12 -12z" />
    <path d="M8034 3238 l-7 -11 11 7 c7 4 12 9 12 12 0 8 -9 4 -16 -8z" />
    <path d="M10574 3178 l-7 -11 11 7 c12 7 16 16 8 16 -3 0 -8 -5 -12 -12z" />
    <path d="M10174 2698 l-7 -11 11 7 c7 4 12 9 12 12 0 8 -9 4 -16 -8z" />
    <path d="M9724 2278 l-7 -11 11 7 c12 7 16 16 8 16 -3 0 -8 -5 -12 -12z" />
    <path d="M9984 2148 l-7 -11 11 7 c7 4 12 9 12 12 0 8 -9 4 -16 -8z" />
    <path d="M7713 1273 c4 -3 10 -3 14 0 3 4 0 7 -7 7 -7 0 -10 -3 -7 -7z" />
  </g>
  <g transform="translate(0.000000,1224.000000) scale(0.100000,-0.100000)" fill="#dfdfdf" stroke="none">
    <path d="M9905 10090 c3 -5 8 -10 11 -10 3 0 2 5 -1 10 -3 6 -8 10 -11 10 -3
0 -2 -4 1 -10z" />
    <path d="M7155 9080 c3 -5 8 -10 11 -10 3 0 2 5 -1 10 -3 6 -8 10 -11 10 -3 0
-2 -4 1 -10z" />
    <path d="M10855 8650 c3 -5 8 -10 11 -10 3 0 2 5 -1 10 -3 6 -8 10 -11 10 -3
0 -2 -4 1 -10z" />
    <path d="M7585 8170 c3 -5 8 -10 11 -10 3 0 2 5 -1 10 -3 6 -8 10 -11 10 -3 0
-2 -4 1 -10z" />
    <path d="M11730 7070 c0 -7 3 -10 7 -7 3 4 3 10 0 14 -4 3 -7 0 -7 -7z" />
    <path d="M11800 6580 c0 -7 3 -10 7 -7 3 4 3 10 0 14 -4 3 -7 0 -7 -7z" />
    <path d="M7113 6053 c4 -3 10 -3 14 0 3 4 0 7 -7 7 -7 0 -10 -3 -7 -7z" />
    <path d="M7563 6043 c4 -3 10 -3 14 0 3 4 0 7 -7 7 -7 0 -10 -3 -7 -7z" />
    <path d="M4690 4170 c0 -7 3 -10 7 -7 3 4 3 10 0 14 -4 3 -7 0 -7 -7z" />
    <path d="M10304 3868 l-7 -11 11 7 c7 4 12 9 12 12 0 8 -9 4 -16 -8z" />
    <path d="M5123 3763 c4 -3 10 -3 14 0 3 4 0 7 -7 7 -7 0 -10 -3 -7 -7z" />
    <path d="M7043 3763 c4 -3 10 -3 14 0 3 4 0 7 -7 7 -7 0 -10 -3 -7 -7z" />
    <path d="M11194 3628 l-7 -11 11 7 c12 7 16 16 8 16 -3 0 -8 -5 -12 -12z" />
  </g>
  <g transform="translate(0.000000,1224.000000) scale(0.100000,-0.100000)" fill="#4f4f4f" stroke="none">
    <path d="M7203 11153 c4 -3 10 -3 14 0 3 4 0 7 -7 7 -7 0 -10 -3 -7 -7z" />
    <path d="M9225 10340 c3 -5 8 -10 11 -10 3 0 2 5 -1 10 -3 6 -8 10 -11 10 -3
0 -2 -4 1 -10z" />
    <path d="M5924 6178 l-7 -11 11 7 c7 4 12 9 12 12 0 8 -9 4 -16 -8z" />
    <path d="M4385 3820 c3 -5 8 -10 11 -10 3 0 2 5 -1 10 -3 6 -8 10 -11 10 -3 0
-2 -4 1 -10z" />
    <path d="M10924 3188 l-7 -11 11 7 c12 7 16 16 8 16 -3 0 -8 -5 -12 -12z" />
    <path d="M9394 2028 l-7 -11 11 7 c7 4 12 9 12 12 0 8 -9 4 -16 -8z" />
  </g>
  <g transform="translate(0.000000,1224.000000) scale(0.100000,-0.100000)" fill="#8f8f8f" stroke="none">
    <path d="M6570 8410 c0 -7 3 -10 7 -7 3 4 3 10 0 14 -4 3 -7 0 -7 -7z" />
    <path d="M9544 1818 l-7 -11 11 7 c12 7 16 16 8 16 -3 0 -8 -5 -12 -12z" />
    <path d="M4015 1750 c3 -5 8 -10 11 -10 3 0 2 5 -1 10 -3 6 -8 10 -11 10 -3 0
-2 -4 1 -10z" />
  </g>
  <g transform="translate(0.000000,1224.000000) scale(0.100000,-0.100000)" fill="#6f6f6f" stroke="none">
    <path d="M9963 3703 c4 -3 10 -3 14 0 3 4 0 7 -7 7 -7 0 -10 -3 -7 -7z" />
  </g>
  <g transform="translate(0.000000,1224.000000) scale(0.100000,-0.100000)" fill="#afafaf" stroke="none" />
  <g transform="translate(0.000000,1224.000000) scale(0.100000,-0.100000)" fill="#000000" stroke="none" />
  <g transform="translate(0.000000,1224.000000) scale(0.100000,-0.100000)" fill="#000000" stroke="none" />
  <g transform="translate(0.000000,1224.000000) scale(0.100000,-0.100000)" fill="#000000" stroke="none" />
  <g transform="translate(0.000000,1224.000000) scale(0.100000,-0.100000)" fill="#000000" stroke="none" />
  <g transform="translate(0.000000,1224.000000) scale(0.100000,-0.100000)" fill="#000000" stroke="none" />
  <g transform="translate(0.000000,1224.000000) scale(0.100000,-0.100000)" fill="#000000" stroke="none" />
  <g transform="translate(0.000000,1224.000000) scale(0.100000,-0.100000)" fill="#000000" stroke="none" />
  <g transform="translate(0.000000,1224.000000) scale(0.100000,-0.100000)" fill="#000000" stroke="none" />
</svg>